%
M48
M72
T01C0.03200
T02C0.03600
T03C0.04000
%
T01
X61800Y26800
X71800Y26800
X81800Y26800
X91800Y26800
X101800Y26800
X111800Y26800
X121800Y26800
X131800Y26800
X141800Y26800
X151800Y26800
X161800Y26800
X171800Y26800
X181800Y26800
X191800Y26800
X201800Y26800
X211800Y26800
X221800Y26800
X231800Y26800
X241800Y26800
X251800Y26800
X251800Y86800
X241800Y86800
X231800Y86800
X221800Y86800
X211800Y86800
X201800Y86800
X191800Y86800
X181800Y86800
X171800Y86800
X161800Y86800
X151800Y86800
X141800Y86800
X131800Y86800
X121800Y86800
X111800Y86800
X101800Y86800
X91800Y86800
X81800Y86800
X71800Y86800
X61800Y86800
T02
X146800Y154300
X156800Y154300
T03
X11800Y201800
X21800Y201800
X31800Y201800
X41800Y201800
X51800Y201800
X61800Y201800
X71800Y201800
X81800Y201800
X81800Y174300
X91800Y174300
X101800Y174300
X111800Y174300
X121800Y174300
X131800Y174300
X141800Y174300
X151800Y174300
X161800Y201800
X171800Y201800
X181800Y201800
X191800Y201800
X201800Y201800
X211800Y201800
X221800Y201800
X231800Y201800
X249300Y179300
X249300Y169300
X249300Y159300
X39300Y56800
X29300Y56800
X19300Y56800
M30
