G75*
%MOIN*%
%OFA0B0*%
%FSLAX25Y25*%
%IPPOS*%
%LPD*%
%AMOC8*
5,1,8,0,0,1.08239X$1,22.5*
%
%ADD10C,0.00000*%
%ADD11C,0.00600*%
%ADD12C,0.05200*%
%ADD13R,0.02600X0.08000*%
%ADD14C,0.06000*%
%ADD15R,0.07087X0.06299*%
%ADD16C,0.05600*%
%ADD17R,0.06299X0.07087*%
%ADD18R,0.07900X0.05900*%
%ADD19R,0.07900X0.15000*%
%ADD20C,0.01600*%
%ADD21C,0.02400*%
D10*
X0001800Y0001800D02*
X0001800Y0218335D01*
X0277391Y0218335D01*
X0277391Y0001800D01*
X0001800Y0001800D01*
D11*
X0017100Y0017100D02*
X0017100Y0021370D01*
X0019235Y0023505D01*
X0021370Y0021370D01*
X0021370Y0017100D01*
X0023545Y0018168D02*
X0023545Y0020303D01*
X0024613Y0021370D01*
X0027816Y0021370D01*
X0027816Y0023505D02*
X0027816Y0017100D01*
X0024613Y0017100D01*
X0023545Y0018168D01*
X0021370Y0020303D02*
X0017100Y0020303D01*
X0018168Y0027600D02*
X0020303Y0027600D01*
X0021370Y0028668D01*
X0021370Y0030803D01*
X0019235Y0030803D01*
X0017100Y0032938D02*
X0017100Y0028668D01*
X0018168Y0027600D01*
X0017100Y0032938D02*
X0018168Y0034005D01*
X0020303Y0034005D01*
X0021370Y0032938D01*
X0023545Y0034005D02*
X0027816Y0034005D01*
X0025681Y0034005D02*
X0025681Y0027600D01*
X0029991Y0027600D02*
X0032126Y0027600D01*
X0031059Y0027600D02*
X0031059Y0034005D01*
X0032126Y0034005D02*
X0029991Y0034005D01*
X0034288Y0031870D02*
X0036423Y0034005D01*
X0038558Y0031870D01*
X0038558Y0027600D01*
X0038558Y0030803D02*
X0034288Y0030803D01*
X0034288Y0031870D02*
X0034288Y0027600D01*
X0033194Y0021370D02*
X0034261Y0020303D01*
X0034261Y0017100D01*
X0031059Y0017100D01*
X0029991Y0018168D01*
X0031059Y0019235D01*
X0034261Y0019235D01*
X0033194Y0021370D02*
X0031059Y0021370D01*
X0036436Y0021370D02*
X0039639Y0021370D01*
X0040707Y0020303D01*
X0040707Y0018168D01*
X0039639Y0017100D01*
X0036436Y0017100D01*
X0036436Y0014965D02*
X0036436Y0021370D01*
X0042882Y0021370D02*
X0045017Y0021370D01*
X0043950Y0022438D02*
X0043950Y0018168D01*
X0045017Y0017100D01*
X0047179Y0018168D02*
X0047179Y0020303D01*
X0048247Y0021370D01*
X0050382Y0021370D01*
X0051449Y0020303D01*
X0051449Y0019235D01*
X0047179Y0019235D01*
X0047179Y0018168D02*
X0048247Y0017100D01*
X0050382Y0017100D01*
X0053624Y0017100D02*
X0053624Y0021370D01*
X0053624Y0019235D02*
X0055760Y0021370D01*
X0056827Y0021370D01*
D12*
X0061800Y0024200D02*
X0061800Y0029400D01*
X0071800Y0029400D02*
X0071800Y0024200D01*
X0081800Y0024200D02*
X0081800Y0029400D01*
X0091800Y0029400D02*
X0091800Y0024200D01*
X0101800Y0024200D02*
X0101800Y0029400D01*
X0111800Y0029400D02*
X0111800Y0024200D01*
X0121800Y0024200D02*
X0121800Y0029400D01*
X0131800Y0029400D02*
X0131800Y0024200D01*
X0141800Y0024200D02*
X0141800Y0029400D01*
X0151800Y0029400D02*
X0151800Y0024200D01*
X0161800Y0024200D02*
X0161800Y0029400D01*
X0171800Y0029400D02*
X0171800Y0024200D01*
X0181800Y0024200D02*
X0181800Y0029400D01*
X0191800Y0029400D02*
X0191800Y0024200D01*
X0201800Y0024200D02*
X0201800Y0029400D01*
X0211800Y0029400D02*
X0211800Y0024200D01*
X0221800Y0024200D02*
X0221800Y0029400D01*
X0231800Y0029400D02*
X0231800Y0024200D01*
X0241800Y0024200D02*
X0241800Y0029400D01*
X0251800Y0029400D02*
X0251800Y0024200D01*
X0251800Y0084200D02*
X0251800Y0089400D01*
X0241800Y0089400D02*
X0241800Y0084200D01*
X0231800Y0084200D02*
X0231800Y0089400D01*
X0221800Y0089400D02*
X0221800Y0084200D01*
X0211800Y0084200D02*
X0211800Y0089400D01*
X0201800Y0089400D02*
X0201800Y0084200D01*
X0191800Y0084200D02*
X0191800Y0089400D01*
X0181800Y0089400D02*
X0181800Y0084200D01*
X0171800Y0084200D02*
X0171800Y0089400D01*
X0161800Y0089400D02*
X0161800Y0084200D01*
X0151800Y0084200D02*
X0151800Y0089400D01*
X0141800Y0089400D02*
X0141800Y0084200D01*
X0131800Y0084200D02*
X0131800Y0089400D01*
X0121800Y0089400D02*
X0121800Y0084200D01*
X0111800Y0084200D02*
X0111800Y0089400D01*
X0101800Y0089400D02*
X0101800Y0084200D01*
X0091800Y0084200D02*
X0091800Y0089400D01*
X0081800Y0089400D02*
X0081800Y0084200D01*
X0071800Y0084200D02*
X0071800Y0089400D01*
X0061800Y0089400D02*
X0061800Y0084200D01*
D13*
X0091800Y0107000D03*
X0096800Y0107000D03*
X0101800Y0107000D03*
X0106800Y0107000D03*
X0111800Y0107000D03*
X0116800Y0107000D03*
X0121800Y0107000D03*
X0126800Y0107000D03*
X0131800Y0107000D03*
X0136800Y0107000D03*
X0171800Y0109500D03*
X0176800Y0109500D03*
X0181800Y0109500D03*
X0186800Y0109500D03*
X0191800Y0109500D03*
X0196800Y0109500D03*
X0201800Y0109500D03*
X0206800Y0109500D03*
X0211800Y0109500D03*
X0216800Y0109500D03*
X0216800Y0149100D03*
X0211800Y0149100D03*
X0206800Y0149100D03*
X0201800Y0149100D03*
X0196800Y0149100D03*
X0191800Y0149100D03*
X0186800Y0149100D03*
X0181800Y0149100D03*
X0176800Y0149100D03*
X0171800Y0149100D03*
X0136800Y0146600D03*
X0131800Y0146600D03*
X0126800Y0146600D03*
X0121800Y0146600D03*
X0116800Y0146600D03*
X0111800Y0146600D03*
X0106800Y0146600D03*
X0101800Y0146600D03*
X0096800Y0146600D03*
X0091800Y0146600D03*
X0066800Y0151600D03*
X0061800Y0151600D03*
X0056800Y0151600D03*
X0051800Y0151600D03*
X0046800Y0151600D03*
X0041800Y0151600D03*
X0036800Y0151600D03*
X0031800Y0151600D03*
X0026800Y0151600D03*
X0021800Y0151600D03*
X0021800Y0112000D03*
X0026800Y0112000D03*
X0031800Y0112000D03*
X0036800Y0112000D03*
X0041800Y0112000D03*
X0046800Y0112000D03*
X0051800Y0112000D03*
X0056800Y0112000D03*
X0061800Y0112000D03*
X0066800Y0112000D03*
D14*
X0039300Y0059800D02*
X0039300Y0053800D01*
X0029300Y0053800D02*
X0029300Y0059800D01*
X0019300Y0059800D02*
X0019300Y0053800D01*
X0081800Y0171300D02*
X0081800Y0177300D01*
X0091800Y0177300D02*
X0091800Y0171300D01*
X0101800Y0171300D02*
X0101800Y0177300D01*
X0111800Y0177300D02*
X0111800Y0171300D01*
X0121800Y0171300D02*
X0121800Y0177300D01*
X0131800Y0177300D02*
X0131800Y0171300D01*
X0141800Y0171300D02*
X0141800Y0177300D01*
X0151800Y0177300D02*
X0151800Y0171300D01*
X0161800Y0198800D02*
X0161800Y0204800D01*
X0171800Y0204800D02*
X0171800Y0198800D01*
X0181800Y0198800D02*
X0181800Y0204800D01*
X0191800Y0204800D02*
X0191800Y0198800D01*
X0201800Y0198800D02*
X0201800Y0204800D01*
X0211800Y0204800D02*
X0211800Y0198800D01*
X0221800Y0198800D02*
X0221800Y0204800D01*
X0231800Y0204800D02*
X0231800Y0198800D01*
X0246300Y0179300D02*
X0252300Y0179300D01*
X0252300Y0169300D02*
X0246300Y0169300D01*
X0246300Y0159300D02*
X0252300Y0159300D01*
X0081800Y0198800D02*
X0081800Y0204800D01*
X0071800Y0204800D02*
X0071800Y0198800D01*
X0061800Y0198800D02*
X0061800Y0204800D01*
X0051800Y0204800D02*
X0051800Y0198800D01*
X0041800Y0198800D02*
X0041800Y0204800D01*
X0031800Y0204800D02*
X0031800Y0198800D01*
X0021800Y0198800D02*
X0021800Y0204800D01*
X0011800Y0204800D02*
X0011800Y0198800D01*
D15*
X0076800Y0122312D03*
X0076800Y0111288D03*
X0146800Y0108788D03*
X0146800Y0119812D03*
X0229300Y0119812D03*
X0229300Y0108788D03*
D16*
X0156800Y0151500D02*
X0156800Y0157100D01*
X0146800Y0157100D02*
X0146800Y0151500D01*
D17*
X0156288Y0071800D03*
X0167312Y0071800D03*
X0196288Y0049300D03*
X0207312Y0049300D03*
D18*
X0169200Y0051900D03*
X0169200Y0042900D03*
X0169200Y0060900D03*
D19*
X0144400Y0051800D03*
D20*
X0149950Y0051354D02*
X0163650Y0051354D01*
X0163650Y0052952D02*
X0149950Y0052952D01*
X0149950Y0054551D02*
X0163650Y0054551D01*
X0163650Y0055513D02*
X0163650Y0048287D01*
X0164463Y0047474D01*
X0164145Y0047290D01*
X0163810Y0046955D01*
X0163573Y0046545D01*
X0163450Y0046087D01*
X0163450Y0043575D01*
X0168525Y0043575D01*
X0168525Y0042225D01*
X0169875Y0042225D01*
X0169875Y0043575D01*
X0174950Y0043575D01*
X0174950Y0046087D01*
X0174827Y0046545D01*
X0174590Y0046955D01*
X0174255Y0047290D01*
X0173937Y0047474D01*
X0174750Y0048287D01*
X0174750Y0049100D01*
X0184000Y0049100D01*
X0184000Y0033035D01*
X0182635Y0033600D01*
X0180965Y0033600D01*
X0179421Y0032961D01*
X0178239Y0031779D01*
X0177600Y0030235D01*
X0177600Y0023365D01*
X0178239Y0021821D01*
X0179421Y0020639D01*
X0180965Y0020000D01*
X0182635Y0020000D01*
X0184000Y0020565D01*
X0184000Y0013743D01*
X0184426Y0012714D01*
X0185214Y0011926D01*
X0186243Y0011500D01*
X0264857Y0011500D01*
X0265886Y0011926D01*
X0266674Y0012714D01*
X0267100Y0013743D01*
X0267100Y0109345D01*
X0266674Y0110374D01*
X0265886Y0111162D01*
X0264857Y0111588D01*
X0252100Y0111588D01*
X0252100Y0154700D01*
X0253215Y0154700D01*
X0254906Y0155400D01*
X0256200Y0156694D01*
X0256900Y0158385D01*
X0256900Y0160215D01*
X0256200Y0161906D01*
X0254906Y0163200D01*
X0253215Y0163900D01*
X0245385Y0163900D01*
X0243694Y0163200D01*
X0242400Y0161906D01*
X0241700Y0160215D01*
X0241700Y0158385D01*
X0242400Y0156694D01*
X0243694Y0155400D01*
X0245385Y0154700D01*
X0246500Y0154700D01*
X0246500Y0111588D01*
X0234443Y0111588D01*
X0234443Y0112601D01*
X0233506Y0113538D01*
X0225094Y0113538D01*
X0224157Y0112601D01*
X0224157Y0111588D01*
X0219700Y0111588D01*
X0219700Y0114163D01*
X0219600Y0114263D01*
X0219600Y0129857D01*
X0219174Y0130886D01*
X0218386Y0131674D01*
X0213386Y0136674D01*
X0212357Y0137100D01*
X0071243Y0137100D01*
X0070214Y0136674D01*
X0065214Y0131674D01*
X0064426Y0130886D01*
X0064000Y0129857D01*
X0064000Y0117559D01*
X0063795Y0117677D01*
X0063337Y0117800D01*
X0061800Y0117800D01*
X0061800Y0112000D01*
X0061800Y0112000D01*
X0061800Y0106200D01*
X0063337Y0106200D01*
X0063795Y0106323D01*
X0064205Y0106560D01*
X0064441Y0106796D01*
X0064837Y0106400D01*
X0068763Y0106400D01*
X0069700Y0107337D01*
X0069700Y0109200D01*
X0071657Y0109200D01*
X0071657Y0107476D01*
X0072594Y0106539D01*
X0081006Y0106539D01*
X0081943Y0107476D01*
X0081943Y0115101D01*
X0081006Y0116038D01*
X0072594Y0116038D01*
X0071657Y0115101D01*
X0071657Y0114800D01*
X0069700Y0114800D01*
X0069700Y0116663D01*
X0069600Y0116763D01*
X0069600Y0128140D01*
X0072960Y0131500D01*
X0134000Y0131500D01*
X0134000Y0112559D01*
X0133795Y0112677D01*
X0133337Y0112800D01*
X0131800Y0112800D01*
X0131800Y0107000D01*
X0131800Y0107000D01*
X0131800Y0112800D01*
X0130263Y0112800D01*
X0129805Y0112677D01*
X0129395Y0112440D01*
X0129159Y0112204D01*
X0128763Y0112600D01*
X0124837Y0112600D01*
X0124300Y0112063D01*
X0123763Y0112600D01*
X0119837Y0112600D01*
X0119300Y0112063D01*
X0118763Y0112600D01*
X0114837Y0112600D01*
X0114300Y0112063D01*
X0113763Y0112600D01*
X0109837Y0112600D01*
X0109300Y0112063D01*
X0108763Y0112600D01*
X0104837Y0112600D01*
X0104300Y0112063D01*
X0103763Y0112600D01*
X0099837Y0112600D01*
X0099300Y0112063D01*
X0098763Y0112600D01*
X0094837Y0112600D01*
X0094300Y0112063D01*
X0093763Y0112600D01*
X0089837Y0112600D01*
X0088900Y0111663D01*
X0088900Y0102337D01*
X0089400Y0101837D01*
X0089400Y0092940D01*
X0088239Y0091779D01*
X0087600Y0090235D01*
X0087600Y0083365D01*
X0088239Y0081821D01*
X0089421Y0080639D01*
X0090965Y0080000D01*
X0092635Y0080000D01*
X0094179Y0080639D01*
X0094400Y0080860D01*
X0094400Y0040294D01*
X0090441Y0036335D01*
X0089765Y0035659D01*
X0089400Y0034777D01*
X0089400Y0032940D01*
X0088239Y0031779D01*
X0087600Y0030235D01*
X0087600Y0023365D01*
X0088239Y0021821D01*
X0089421Y0020639D01*
X0090965Y0020000D01*
X0092635Y0020000D01*
X0094179Y0020639D01*
X0095361Y0021821D01*
X0096000Y0023365D01*
X0096000Y0030235D01*
X0095361Y0031779D01*
X0094200Y0032940D01*
X0094200Y0033306D01*
X0098835Y0037941D01*
X0099200Y0038823D01*
X0099200Y0080860D01*
X0099421Y0080639D01*
X0100965Y0080000D01*
X0102635Y0080000D01*
X0104179Y0080639D01*
X0104400Y0080860D01*
X0104400Y0067794D01*
X0102941Y0066335D01*
X0102941Y0066335D01*
X0102265Y0065659D01*
X0101900Y0064777D01*
X0101900Y0040294D01*
X0100441Y0038835D01*
X0100441Y0038835D01*
X0099765Y0038159D01*
X0099400Y0037277D01*
X0099400Y0032940D01*
X0098239Y0031779D01*
X0097600Y0030235D01*
X0097600Y0023365D01*
X0098239Y0021821D01*
X0099421Y0020639D01*
X0100965Y0020000D01*
X0102635Y0020000D01*
X0104179Y0020639D01*
X0105361Y0021821D01*
X0106000Y0023365D01*
X0106000Y0030235D01*
X0105361Y0031779D01*
X0104200Y0032940D01*
X0104200Y0035806D01*
X0106335Y0037941D01*
X0106700Y0038823D01*
X0106700Y0063306D01*
X0106900Y0063506D01*
X0106900Y0038823D01*
X0107265Y0037941D01*
X0109400Y0035806D01*
X0109400Y0032940D01*
X0108239Y0031779D01*
X0107600Y0030235D01*
X0107600Y0023365D01*
X0108239Y0021821D01*
X0109421Y0020639D01*
X0110965Y0020000D01*
X0112635Y0020000D01*
X0114179Y0020639D01*
X0115361Y0021821D01*
X0116000Y0023365D01*
X0116000Y0030235D01*
X0115361Y0031779D01*
X0114200Y0032940D01*
X0114200Y0037277D01*
X0113835Y0038159D01*
X0113159Y0038835D01*
X0111700Y0040294D01*
X0111700Y0063306D01*
X0111900Y0063506D01*
X0111900Y0041323D01*
X0112265Y0040441D01*
X0119400Y0033306D01*
X0119400Y0032940D01*
X0118239Y0031779D01*
X0117600Y0030235D01*
X0117600Y0023365D01*
X0118239Y0021821D01*
X0119421Y0020639D01*
X0120965Y0020000D01*
X0122635Y0020000D01*
X0124179Y0020639D01*
X0125361Y0021821D01*
X0126000Y0023365D01*
X0126000Y0030235D01*
X0125361Y0031779D01*
X0124200Y0032940D01*
X0124200Y0034777D01*
X0123835Y0035659D01*
X0123159Y0036335D01*
X0116700Y0042794D01*
X0116700Y0063306D01*
X0123835Y0070441D01*
X0124200Y0071323D01*
X0124200Y0073306D01*
X0128835Y0077941D01*
X0129200Y0078823D01*
X0129200Y0080860D01*
X0129421Y0080639D01*
X0130965Y0080000D01*
X0132635Y0080000D01*
X0134179Y0080639D01*
X0135361Y0081821D01*
X0136000Y0083365D01*
X0136000Y0090106D01*
X0137794Y0091900D01*
X0138360Y0091900D01*
X0138239Y0091779D01*
X0137600Y0090235D01*
X0137600Y0083365D01*
X0138239Y0081821D01*
X0139421Y0080639D01*
X0140965Y0080000D01*
X0142635Y0080000D01*
X0144179Y0080639D01*
X0145361Y0081821D01*
X0146000Y0083365D01*
X0146000Y0090106D01*
X0147794Y0091900D01*
X0148360Y0091900D01*
X0148239Y0091779D01*
X0147600Y0090235D01*
X0147600Y0083365D01*
X0148239Y0081821D01*
X0149421Y0080639D01*
X0150965Y0080000D01*
X0152635Y0080000D01*
X0154179Y0080639D01*
X0155361Y0081821D01*
X0156000Y0083365D01*
X0156000Y0090235D01*
X0155361Y0091779D01*
X0155240Y0091900D01*
X0158360Y0091900D01*
X0158239Y0091779D01*
X0157600Y0090235D01*
X0157600Y0083365D01*
X0158239Y0081821D01*
X0159421Y0080639D01*
X0160965Y0080000D01*
X0162635Y0080000D01*
X0164179Y0080639D01*
X0165361Y0081821D01*
X0166000Y0083365D01*
X0166000Y0090235D01*
X0165361Y0091779D01*
X0165267Y0091873D01*
X0167794Y0094400D01*
X0177277Y0094400D01*
X0178159Y0094765D01*
X0183159Y0099765D01*
X0183835Y0100441D01*
X0184200Y0101323D01*
X0184200Y0104337D01*
X0184300Y0104437D01*
X0184400Y0104337D01*
X0184400Y0100294D01*
X0180441Y0096335D01*
X0179765Y0095659D01*
X0179400Y0094777D01*
X0179400Y0092940D01*
X0178239Y0091779D01*
X0177600Y0090235D01*
X0177600Y0083365D01*
X0178239Y0081821D01*
X0179421Y0080639D01*
X0180965Y0080000D01*
X0182635Y0080000D01*
X0184179Y0080639D01*
X0185361Y0081821D01*
X0186000Y0083365D01*
X0186000Y0090235D01*
X0185361Y0091779D01*
X0184200Y0092940D01*
X0184200Y0093306D01*
X0188835Y0097941D01*
X0189200Y0098823D01*
X0189200Y0104337D01*
X0189300Y0104437D01*
X0189400Y0104337D01*
X0189400Y0098823D01*
X0189765Y0097941D01*
X0190441Y0097265D01*
X0194400Y0093306D01*
X0194400Y0092740D01*
X0194179Y0092961D01*
X0192635Y0093600D01*
X0190965Y0093600D01*
X0189421Y0092961D01*
X0188239Y0091779D01*
X0187600Y0090235D01*
X0187600Y0084060D01*
X0178140Y0074600D01*
X0172061Y0074600D01*
X0172061Y0076006D01*
X0171124Y0076943D01*
X0163499Y0076943D01*
X0162562Y0076006D01*
X0162562Y0067594D01*
X0163499Y0066657D01*
X0164000Y0066657D01*
X0164000Y0064863D01*
X0163650Y0064513D01*
X0163650Y0057287D01*
X0164537Y0056400D01*
X0163650Y0055513D01*
X0164287Y0056149D02*
X0149950Y0056149D01*
X0149950Y0057748D02*
X0163650Y0057748D01*
X0163650Y0059346D02*
X0149950Y0059346D01*
X0149950Y0059963D02*
X0149013Y0060900D01*
X0139787Y0060900D01*
X0138850Y0059963D01*
X0138850Y0043637D01*
X0139787Y0042700D01*
X0149013Y0042700D01*
X0149950Y0043637D01*
X0149950Y0059963D01*
X0152444Y0066579D02*
X0152902Y0066457D01*
X0155513Y0066457D01*
X0155513Y0071025D01*
X0151339Y0071025D01*
X0151339Y0068020D01*
X0151461Y0067562D01*
X0151698Y0067151D01*
X0152033Y0066816D01*
X0152444Y0066579D01*
X0151590Y0067339D02*
X0120733Y0067339D01*
X0119135Y0065740D02*
X0164000Y0065740D01*
X0163650Y0064142D02*
X0117536Y0064142D01*
X0116700Y0062543D02*
X0163650Y0062543D01*
X0163650Y0060945D02*
X0116700Y0060945D01*
X0116700Y0059346D02*
X0138850Y0059346D01*
X0138850Y0057748D02*
X0116700Y0057748D01*
X0116700Y0056149D02*
X0138850Y0056149D01*
X0138850Y0054551D02*
X0116700Y0054551D01*
X0116700Y0052952D02*
X0138850Y0052952D01*
X0138850Y0051354D02*
X0116700Y0051354D01*
X0116700Y0049755D02*
X0138850Y0049755D01*
X0138850Y0048157D02*
X0116700Y0048157D01*
X0116700Y0046558D02*
X0138850Y0046558D01*
X0138850Y0044960D02*
X0116700Y0044960D01*
X0116700Y0043361D02*
X0139126Y0043361D01*
X0140965Y0033600D02*
X0139421Y0032961D01*
X0138239Y0031779D01*
X0137600Y0030235D01*
X0137600Y0023365D01*
X0138239Y0021821D01*
X0139421Y0020639D01*
X0140965Y0020000D01*
X0142635Y0020000D01*
X0144179Y0020639D01*
X0145361Y0021821D01*
X0146000Y0023365D01*
X0146000Y0030235D01*
X0145361Y0031779D01*
X0144179Y0032961D01*
X0142635Y0033600D01*
X0140965Y0033600D01*
X0138632Y0032172D02*
X0134968Y0032172D01*
X0135361Y0031779D02*
X0134179Y0032961D01*
X0132635Y0033600D01*
X0130965Y0033600D01*
X0129421Y0032961D01*
X0128239Y0031779D01*
X0127600Y0030235D01*
X0127600Y0023365D01*
X0128239Y0021821D01*
X0129421Y0020639D01*
X0130965Y0020000D01*
X0132635Y0020000D01*
X0134179Y0020639D01*
X0135361Y0021821D01*
X0136000Y0023365D01*
X0136000Y0030235D01*
X0135361Y0031779D01*
X0135860Y0030573D02*
X0137740Y0030573D01*
X0137600Y0028975D02*
X0136000Y0028975D01*
X0136000Y0027376D02*
X0137600Y0027376D01*
X0137600Y0025778D02*
X0136000Y0025778D01*
X0136000Y0024179D02*
X0137600Y0024179D01*
X0137925Y0022581D02*
X0135675Y0022581D01*
X0134522Y0020982D02*
X0139078Y0020982D01*
X0144522Y0020982D02*
X0149078Y0020982D01*
X0149421Y0020639D02*
X0150965Y0020000D01*
X0152635Y0020000D01*
X0154179Y0020639D01*
X0155361Y0021821D01*
X0156000Y0023365D01*
X0156000Y0030235D01*
X0155361Y0031779D01*
X0154179Y0032961D01*
X0152635Y0033600D01*
X0150965Y0033600D01*
X0149421Y0032961D01*
X0148239Y0031779D01*
X0147600Y0030235D01*
X0147600Y0023365D01*
X0148239Y0021821D01*
X0149421Y0020639D01*
X0147925Y0022581D02*
X0145675Y0022581D01*
X0146000Y0024179D02*
X0147600Y0024179D01*
X0147600Y0025778D02*
X0146000Y0025778D01*
X0146000Y0027376D02*
X0147600Y0027376D01*
X0147600Y0028975D02*
X0146000Y0028975D01*
X0145860Y0030573D02*
X0147740Y0030573D01*
X0148632Y0032172D02*
X0144968Y0032172D01*
X0154968Y0032172D02*
X0158632Y0032172D01*
X0158239Y0031779D02*
X0157600Y0030235D01*
X0157600Y0023365D01*
X0158239Y0021821D01*
X0159421Y0020639D01*
X0160965Y0020000D01*
X0162635Y0020000D01*
X0164179Y0020639D01*
X0165361Y0021821D01*
X0166000Y0023365D01*
X0166000Y0030235D01*
X0165361Y0031779D01*
X0164179Y0032961D01*
X0162635Y0033600D01*
X0160965Y0033600D01*
X0159421Y0032961D01*
X0158239Y0031779D01*
X0157740Y0030573D02*
X0155860Y0030573D01*
X0156000Y0028975D02*
X0157600Y0028975D01*
X0157600Y0027376D02*
X0156000Y0027376D01*
X0156000Y0025778D02*
X0157600Y0025778D01*
X0157600Y0024179D02*
X0156000Y0024179D01*
X0155675Y0022581D02*
X0157925Y0022581D01*
X0159078Y0020982D02*
X0154522Y0020982D01*
X0164522Y0020982D02*
X0169078Y0020982D01*
X0169421Y0020639D02*
X0170965Y0020000D01*
X0172635Y0020000D01*
X0174179Y0020639D01*
X0175361Y0021821D01*
X0176000Y0023365D01*
X0176000Y0030235D01*
X0175361Y0031779D01*
X0174179Y0032961D01*
X0172635Y0033600D01*
X0170965Y0033600D01*
X0169421Y0032961D01*
X0168239Y0031779D01*
X0167600Y0030235D01*
X0167600Y0023365D01*
X0168239Y0021821D01*
X0169421Y0020639D01*
X0167925Y0022581D02*
X0165675Y0022581D01*
X0166000Y0024179D02*
X0167600Y0024179D01*
X0167600Y0025778D02*
X0166000Y0025778D01*
X0166000Y0027376D02*
X0167600Y0027376D01*
X0167600Y0028975D02*
X0166000Y0028975D01*
X0165860Y0030573D02*
X0167740Y0030573D01*
X0168632Y0032172D02*
X0164968Y0032172D01*
X0165013Y0038150D02*
X0168525Y0038150D01*
X0168525Y0042225D01*
X0163450Y0042225D01*
X0163450Y0039713D01*
X0163573Y0039255D01*
X0163810Y0038845D01*
X0164145Y0038510D01*
X0164555Y0038273D01*
X0165013Y0038150D01*
X0164089Y0038566D02*
X0120928Y0038566D01*
X0119330Y0040164D02*
X0163450Y0040164D01*
X0163450Y0041763D02*
X0117731Y0041763D01*
X0114300Y0041800D02*
X0121800Y0034300D01*
X0121800Y0026800D01*
X0126000Y0027376D02*
X0127600Y0027376D01*
X0127600Y0025778D02*
X0126000Y0025778D01*
X0126000Y0024179D02*
X0127600Y0024179D01*
X0127925Y0022581D02*
X0125675Y0022581D01*
X0124522Y0020982D02*
X0129078Y0020982D01*
X0119078Y0020982D02*
X0114522Y0020982D01*
X0115675Y0022581D02*
X0117925Y0022581D01*
X0117600Y0024179D02*
X0116000Y0024179D01*
X0116000Y0025778D02*
X0117600Y0025778D01*
X0117600Y0027376D02*
X0116000Y0027376D01*
X0116000Y0028975D02*
X0117600Y0028975D01*
X0117740Y0030573D02*
X0115860Y0030573D01*
X0114968Y0032172D02*
X0118632Y0032172D01*
X0118936Y0033770D02*
X0114200Y0033770D01*
X0114200Y0035369D02*
X0117337Y0035369D01*
X0115739Y0036967D02*
X0114200Y0036967D01*
X0114140Y0038566D02*
X0113428Y0038566D01*
X0112542Y0040164D02*
X0111830Y0040164D01*
X0111900Y0041763D02*
X0111700Y0041763D01*
X0111700Y0043361D02*
X0111900Y0043361D01*
X0111900Y0044960D02*
X0111700Y0044960D01*
X0111700Y0046558D02*
X0111900Y0046558D01*
X0111900Y0048157D02*
X0111700Y0048157D01*
X0111700Y0049755D02*
X0111900Y0049755D01*
X0111900Y0051354D02*
X0111700Y0051354D01*
X0111700Y0052952D02*
X0111900Y0052952D01*
X0111900Y0054551D02*
X0111700Y0054551D01*
X0111700Y0056149D02*
X0111900Y0056149D01*
X0111900Y0057748D02*
X0111700Y0057748D01*
X0111700Y0059346D02*
X0111900Y0059346D01*
X0111900Y0060945D02*
X0111700Y0060945D01*
X0111700Y0062543D02*
X0111900Y0062543D01*
X0114300Y0064300D02*
X0114300Y0041800D01*
X0111800Y0036800D02*
X0111800Y0026800D01*
X0107600Y0027376D02*
X0106000Y0027376D01*
X0106000Y0025778D02*
X0107600Y0025778D01*
X0107600Y0024179D02*
X0106000Y0024179D01*
X0105675Y0022581D02*
X0107925Y0022581D01*
X0109078Y0020982D02*
X0104522Y0020982D01*
X0099078Y0020982D02*
X0094522Y0020982D01*
X0095675Y0022581D02*
X0097925Y0022581D01*
X0097600Y0024179D02*
X0096000Y0024179D01*
X0096000Y0025778D02*
X0097600Y0025778D01*
X0097600Y0027376D02*
X0096000Y0027376D01*
X0096000Y0028975D02*
X0097600Y0028975D01*
X0097740Y0030573D02*
X0095860Y0030573D01*
X0094968Y0032172D02*
X0098632Y0032172D01*
X0099400Y0033770D02*
X0094664Y0033770D01*
X0096263Y0035369D02*
X0099400Y0035369D01*
X0099400Y0036967D02*
X0097861Y0036967D01*
X0099094Y0038566D02*
X0100172Y0038566D01*
X0099200Y0040164D02*
X0101770Y0040164D01*
X0101900Y0041763D02*
X0099200Y0041763D01*
X0099200Y0043361D02*
X0101900Y0043361D01*
X0101900Y0044960D02*
X0099200Y0044960D01*
X0099200Y0046558D02*
X0101900Y0046558D01*
X0101900Y0048157D02*
X0099200Y0048157D01*
X0099200Y0049755D02*
X0101900Y0049755D01*
X0101900Y0051354D02*
X0099200Y0051354D01*
X0099200Y0052952D02*
X0101900Y0052952D01*
X0101900Y0054551D02*
X0099200Y0054551D01*
X0099200Y0056149D02*
X0101900Y0056149D01*
X0101900Y0057748D02*
X0099200Y0057748D01*
X0099200Y0059346D02*
X0101900Y0059346D01*
X0101900Y0060945D02*
X0099200Y0060945D01*
X0099200Y0062543D02*
X0101900Y0062543D01*
X0101900Y0064142D02*
X0099200Y0064142D01*
X0099200Y0065740D02*
X0102346Y0065740D01*
X0103945Y0067339D02*
X0099200Y0067339D01*
X0099200Y0068937D02*
X0104400Y0068937D01*
X0104400Y0070536D02*
X0099200Y0070536D01*
X0099200Y0072134D02*
X0104400Y0072134D01*
X0104400Y0073733D02*
X0099200Y0073733D01*
X0099200Y0075332D02*
X0104400Y0075332D01*
X0104400Y0076930D02*
X0099200Y0076930D01*
X0099200Y0078529D02*
X0104400Y0078529D01*
X0104400Y0080127D02*
X0102942Y0080127D01*
X0100658Y0080127D02*
X0099200Y0080127D01*
X0094400Y0080127D02*
X0092942Y0080127D01*
X0094400Y0078529D02*
X0053466Y0078529D01*
X0051867Y0080127D02*
X0060658Y0080127D01*
X0060965Y0080000D02*
X0062635Y0080000D01*
X0064179Y0080639D01*
X0065361Y0081821D01*
X0066000Y0083365D01*
X0066000Y0090235D01*
X0065361Y0091779D01*
X0065240Y0091900D01*
X0065806Y0091900D01*
X0067600Y0090106D01*
X0067600Y0083365D01*
X0068239Y0081821D01*
X0069421Y0080639D01*
X0070965Y0080000D01*
X0072635Y0080000D01*
X0074179Y0080639D01*
X0075361Y0081821D01*
X0076000Y0083365D01*
X0076000Y0090235D01*
X0075361Y0091779D01*
X0074179Y0092961D01*
X0072635Y0093600D01*
X0070965Y0093600D01*
X0070915Y0093579D01*
X0068835Y0095659D01*
X0068159Y0096335D01*
X0067277Y0096700D01*
X0060294Y0096700D01*
X0054200Y0102794D01*
X0054200Y0106837D01*
X0054300Y0106937D01*
X0054400Y0106837D01*
X0054400Y0103823D01*
X0054765Y0102941D01*
X0055441Y0102265D01*
X0060441Y0097265D01*
X0061323Y0096900D01*
X0070806Y0096900D01*
X0077600Y0090106D01*
X0077600Y0083365D01*
X0078239Y0081821D01*
X0079421Y0080639D01*
X0080965Y0080000D01*
X0082635Y0080000D01*
X0084179Y0080639D01*
X0085361Y0081821D01*
X0086000Y0083365D01*
X0086000Y0090235D01*
X0085361Y0091779D01*
X0084179Y0092961D01*
X0082635Y0093600D01*
X0080965Y0093600D01*
X0080915Y0093579D01*
X0073835Y0100659D01*
X0073159Y0101335D01*
X0072277Y0101700D01*
X0062794Y0101700D01*
X0059200Y0105294D01*
X0059200Y0106754D01*
X0059395Y0106560D01*
X0059805Y0106323D01*
X0060263Y0106200D01*
X0061800Y0106200D01*
X0061800Y0112000D01*
X0061800Y0112000D01*
X0061800Y0117800D01*
X0060263Y0117800D01*
X0059805Y0117677D01*
X0059395Y0117440D01*
X0059159Y0117204D01*
X0058763Y0117600D01*
X0054837Y0117600D01*
X0054300Y0117063D01*
X0053763Y0117600D01*
X0049837Y0117600D01*
X0049300Y0117063D01*
X0048763Y0117600D01*
X0044837Y0117600D01*
X0044300Y0117063D01*
X0043763Y0117600D01*
X0039837Y0117600D01*
X0039300Y0117063D01*
X0038763Y0117600D01*
X0034837Y0117600D01*
X0034300Y0117063D01*
X0033763Y0117600D01*
X0029837Y0117600D01*
X0029300Y0117063D01*
X0028763Y0117600D01*
X0024837Y0117600D01*
X0024300Y0117063D01*
X0023763Y0117600D01*
X0019837Y0117600D01*
X0018900Y0116663D01*
X0018900Y0107337D01*
X0019400Y0106837D01*
X0019400Y0067794D01*
X0017941Y0066335D01*
X0017265Y0065659D01*
X0016900Y0064777D01*
X0016900Y0063785D01*
X0016694Y0063700D01*
X0015400Y0062406D01*
X0014700Y0060715D01*
X0014700Y0052885D01*
X0015400Y0051194D01*
X0016694Y0049900D01*
X0018385Y0049200D01*
X0020215Y0049200D01*
X0021906Y0049900D01*
X0023200Y0051194D01*
X0023900Y0052885D01*
X0023900Y0060715D01*
X0023200Y0062406D01*
X0022000Y0063606D01*
X0023835Y0065441D01*
X0024200Y0066323D01*
X0024200Y0106837D01*
X0024300Y0106937D01*
X0024400Y0106837D01*
X0024400Y0066323D01*
X0024765Y0065441D01*
X0026600Y0063606D01*
X0025400Y0062406D01*
X0024700Y0060715D01*
X0024700Y0052885D01*
X0025400Y0051194D01*
X0026694Y0049900D01*
X0028385Y0049200D01*
X0030215Y0049200D01*
X0031906Y0049900D01*
X0033200Y0051194D01*
X0033900Y0052885D01*
X0033900Y0060715D01*
X0033200Y0062406D01*
X0031906Y0063700D01*
X0031700Y0063785D01*
X0031700Y0064777D01*
X0031335Y0065659D01*
X0030659Y0066335D01*
X0029200Y0067794D01*
X0029200Y0106837D01*
X0029300Y0106937D01*
X0029400Y0106837D01*
X0029400Y0068823D01*
X0029765Y0067941D01*
X0035371Y0062335D01*
X0034700Y0060715D01*
X0034700Y0052885D01*
X0035400Y0051194D01*
X0036694Y0049900D01*
X0038385Y0049200D01*
X0040215Y0049200D01*
X0041906Y0049900D01*
X0043200Y0051194D01*
X0043900Y0052885D01*
X0043900Y0060715D01*
X0043200Y0062406D01*
X0041906Y0063700D01*
X0040215Y0064400D01*
X0040094Y0064400D01*
X0034200Y0070294D01*
X0034200Y0106837D01*
X0034300Y0106937D01*
X0034400Y0106837D01*
X0034400Y0083823D01*
X0034765Y0082941D01*
X0059400Y0058306D01*
X0059400Y0032940D01*
X0058239Y0031779D01*
X0057600Y0030235D01*
X0057600Y0023365D01*
X0058239Y0021821D01*
X0059421Y0020639D01*
X0060965Y0020000D01*
X0062635Y0020000D01*
X0064179Y0020639D01*
X0065361Y0021821D01*
X0066000Y0023365D01*
X0066000Y0030235D01*
X0065361Y0031779D01*
X0064200Y0032940D01*
X0064200Y0059777D01*
X0063835Y0060659D01*
X0039200Y0085294D01*
X0039200Y0106837D01*
X0039300Y0106937D01*
X0039400Y0106837D01*
X0039400Y0086323D01*
X0039765Y0085441D01*
X0040441Y0084765D01*
X0069400Y0055806D01*
X0069400Y0032940D01*
X0068239Y0031779D01*
X0067600Y0030235D01*
X0067600Y0023365D01*
X0068239Y0021821D01*
X0069421Y0020639D01*
X0070965Y0020000D01*
X0072635Y0020000D01*
X0074179Y0020639D01*
X0075361Y0021821D01*
X0076000Y0023365D01*
X0076000Y0030235D01*
X0075361Y0031779D01*
X0074200Y0032940D01*
X0074200Y0057277D01*
X0073835Y0058159D01*
X0044200Y0087794D01*
X0044200Y0106837D01*
X0044300Y0106937D01*
X0044400Y0106837D01*
X0044400Y0101323D01*
X0044765Y0100441D01*
X0057600Y0087606D01*
X0057600Y0083365D01*
X0058239Y0081821D01*
X0059421Y0080639D01*
X0060965Y0080000D01*
X0062942Y0080127D02*
X0070658Y0080127D01*
X0072942Y0080127D02*
X0080658Y0080127D01*
X0082942Y0080127D02*
X0090658Y0080127D01*
X0088335Y0081726D02*
X0085265Y0081726D01*
X0085983Y0083324D02*
X0087617Y0083324D01*
X0087600Y0084923D02*
X0086000Y0084923D01*
X0086000Y0086521D02*
X0087600Y0086521D01*
X0087600Y0088120D02*
X0086000Y0088120D01*
X0086000Y0089718D02*
X0087600Y0089718D01*
X0088048Y0091317D02*
X0085552Y0091317D01*
X0084225Y0092915D02*
X0089375Y0092915D01*
X0089400Y0094514D02*
X0079980Y0094514D01*
X0078382Y0096112D02*
X0089400Y0096112D01*
X0089400Y0097711D02*
X0076783Y0097711D01*
X0075185Y0099309D02*
X0089400Y0099309D01*
X0089400Y0100908D02*
X0073586Y0100908D01*
X0071800Y0099300D02*
X0061800Y0099300D01*
X0056800Y0104300D01*
X0056800Y0112000D01*
X0061800Y0112097D02*
X0061800Y0112097D01*
X0061800Y0110499D02*
X0061800Y0110499D01*
X0061800Y0108900D02*
X0061800Y0108900D01*
X0061800Y0107302D02*
X0061800Y0107302D01*
X0059200Y0105703D02*
X0088900Y0105703D01*
X0088900Y0104105D02*
X0060389Y0104105D01*
X0061988Y0102506D02*
X0088900Y0102506D01*
X0088900Y0107302D02*
X0081769Y0107302D01*
X0081943Y0108900D02*
X0088900Y0108900D01*
X0088900Y0110499D02*
X0081943Y0110499D01*
X0081943Y0112097D02*
X0089335Y0112097D01*
X0094265Y0112097D02*
X0094335Y0112097D01*
X0099265Y0112097D02*
X0099335Y0112097D01*
X0104265Y0112097D02*
X0104335Y0112097D01*
X0109265Y0112097D02*
X0109335Y0112097D01*
X0114265Y0112097D02*
X0114335Y0112097D01*
X0116800Y0109300D02*
X0116800Y0107000D01*
X0116800Y0071800D01*
X0109300Y0064300D01*
X0109300Y0039300D01*
X0111800Y0036800D01*
X0109400Y0035369D02*
X0104200Y0035369D01*
X0104200Y0033770D02*
X0109400Y0033770D01*
X0108632Y0032172D02*
X0104968Y0032172D01*
X0105860Y0030573D02*
X0107740Y0030573D01*
X0107600Y0028975D02*
X0106000Y0028975D01*
X0101800Y0026800D02*
X0101800Y0036800D01*
X0104300Y0039300D01*
X0104300Y0064300D01*
X0106800Y0066800D01*
X0106800Y0107000D01*
X0101800Y0107000D02*
X0101800Y0086800D01*
X0111800Y0086800D02*
X0111800Y0107000D01*
X0119265Y0112097D02*
X0119335Y0112097D01*
X0124265Y0112097D02*
X0124335Y0112097D01*
X0126800Y0107000D02*
X0126800Y0079300D01*
X0121800Y0074300D01*
X0121800Y0071800D01*
X0114300Y0064300D01*
X0106900Y0062543D02*
X0106700Y0062543D01*
X0106700Y0060945D02*
X0106900Y0060945D01*
X0106900Y0059346D02*
X0106700Y0059346D01*
X0106700Y0057748D02*
X0106900Y0057748D01*
X0106900Y0056149D02*
X0106700Y0056149D01*
X0106700Y0054551D02*
X0106900Y0054551D01*
X0106900Y0052952D02*
X0106700Y0052952D01*
X0106700Y0051354D02*
X0106900Y0051354D01*
X0106900Y0049755D02*
X0106700Y0049755D01*
X0106700Y0048157D02*
X0106900Y0048157D01*
X0106900Y0046558D02*
X0106700Y0046558D01*
X0106700Y0044960D02*
X0106900Y0044960D01*
X0106900Y0043361D02*
X0106700Y0043361D01*
X0106700Y0041763D02*
X0106900Y0041763D01*
X0106900Y0040164D02*
X0106700Y0040164D01*
X0106594Y0038566D02*
X0107006Y0038566D01*
X0108239Y0036967D02*
X0105361Y0036967D01*
X0096800Y0039300D02*
X0091800Y0034300D01*
X0091800Y0026800D01*
X0087600Y0027376D02*
X0086200Y0027376D01*
X0086200Y0026800D02*
X0086200Y0029746D01*
X0086092Y0030430D01*
X0085878Y0031089D01*
X0085563Y0031706D01*
X0085156Y0032266D01*
X0084666Y0032756D01*
X0084106Y0033163D01*
X0083489Y0033478D01*
X0082830Y0033692D01*
X0082146Y0033800D01*
X0081800Y0033800D01*
X0081800Y0026800D01*
X0086200Y0026800D01*
X0081800Y0026800D01*
X0081800Y0026800D01*
X0081800Y0026800D01*
X0081800Y0019800D01*
X0082146Y0019800D01*
X0082830Y0019908D01*
X0083489Y0020122D01*
X0084106Y0020437D01*
X0084666Y0020844D01*
X0085156Y0021334D01*
X0085563Y0021894D01*
X0085878Y0022511D01*
X0086092Y0023170D01*
X0086200Y0023854D01*
X0086200Y0026800D01*
X0086200Y0025778D02*
X0087600Y0025778D01*
X0087600Y0024179D02*
X0086200Y0024179D01*
X0085900Y0022581D02*
X0087925Y0022581D01*
X0089078Y0020982D02*
X0084805Y0020982D01*
X0081800Y0020982D02*
X0081800Y0020982D01*
X0081800Y0019800D02*
X0081454Y0019800D01*
X0080770Y0019908D01*
X0080111Y0020122D01*
X0079494Y0020437D01*
X0078934Y0020844D01*
X0078444Y0021334D01*
X0078037Y0021894D01*
X0077722Y0022511D01*
X0077508Y0023170D01*
X0077400Y0023854D01*
X0077400Y0026800D01*
X0081800Y0026800D01*
X0081800Y0026800D01*
X0081800Y0026800D01*
X0081800Y0033800D01*
X0081454Y0033800D01*
X0080770Y0033692D01*
X0080111Y0033478D01*
X0079494Y0033163D01*
X0078934Y0032756D01*
X0078444Y0032266D01*
X0078037Y0031706D01*
X0077722Y0031089D01*
X0077508Y0030430D01*
X0077400Y0029746D01*
X0077400Y0026800D01*
X0081800Y0026800D01*
X0081800Y0019800D01*
X0078795Y0020982D02*
X0074522Y0020982D01*
X0075675Y0022581D02*
X0077700Y0022581D01*
X0077400Y0024179D02*
X0076000Y0024179D01*
X0076000Y0025778D02*
X0077400Y0025778D01*
X0077400Y0027376D02*
X0076000Y0027376D01*
X0076000Y0028975D02*
X0077400Y0028975D01*
X0077555Y0030573D02*
X0075860Y0030573D01*
X0074968Y0032172D02*
X0078375Y0032172D01*
X0081266Y0033770D02*
X0074200Y0033770D01*
X0074200Y0035369D02*
X0089645Y0035369D01*
X0089400Y0033770D02*
X0082334Y0033770D01*
X0081800Y0033770D02*
X0081800Y0033770D01*
X0081800Y0032172D02*
X0081800Y0032172D01*
X0081800Y0030573D02*
X0081800Y0030573D01*
X0081800Y0028975D02*
X0081800Y0028975D01*
X0081800Y0027376D02*
X0081800Y0027376D01*
X0081800Y0025778D02*
X0081800Y0025778D01*
X0081800Y0024179D02*
X0081800Y0024179D01*
X0081800Y0022581D02*
X0081800Y0022581D01*
X0086200Y0028975D02*
X0087600Y0028975D01*
X0087740Y0030573D02*
X0086045Y0030573D01*
X0085225Y0032172D02*
X0088632Y0032172D01*
X0091073Y0036967D02*
X0074200Y0036967D01*
X0074200Y0038566D02*
X0092672Y0038566D01*
X0094270Y0040164D02*
X0074200Y0040164D01*
X0074200Y0041763D02*
X0094400Y0041763D01*
X0094400Y0043361D02*
X0074200Y0043361D01*
X0074200Y0044960D02*
X0094400Y0044960D01*
X0094400Y0046558D02*
X0074200Y0046558D01*
X0074200Y0048157D02*
X0094400Y0048157D01*
X0094400Y0049755D02*
X0074200Y0049755D01*
X0074200Y0051354D02*
X0094400Y0051354D01*
X0094400Y0052952D02*
X0074200Y0052952D01*
X0074200Y0054551D02*
X0094400Y0054551D01*
X0094400Y0056149D02*
X0074200Y0056149D01*
X0074005Y0057748D02*
X0094400Y0057748D01*
X0094400Y0059346D02*
X0072648Y0059346D01*
X0071049Y0060945D02*
X0094400Y0060945D01*
X0094400Y0062543D02*
X0069451Y0062543D01*
X0067852Y0064142D02*
X0094400Y0064142D01*
X0094400Y0065740D02*
X0066254Y0065740D01*
X0064655Y0067339D02*
X0094400Y0067339D01*
X0094400Y0068937D02*
X0063057Y0068937D01*
X0061458Y0070536D02*
X0094400Y0070536D01*
X0094400Y0072134D02*
X0059860Y0072134D01*
X0058261Y0073733D02*
X0094400Y0073733D01*
X0094400Y0075332D02*
X0056663Y0075332D01*
X0055064Y0076930D02*
X0094400Y0076930D01*
X0091800Y0086800D02*
X0091800Y0107000D01*
X0096800Y0107000D02*
X0096800Y0039300D01*
X0122527Y0036967D02*
X0184000Y0036967D01*
X0184000Y0035369D02*
X0123955Y0035369D01*
X0124200Y0033770D02*
X0184000Y0033770D01*
X0184000Y0038566D02*
X0174311Y0038566D01*
X0174255Y0038510D02*
X0174590Y0038845D01*
X0174827Y0039255D01*
X0174950Y0039713D01*
X0174950Y0042225D01*
X0169875Y0042225D01*
X0169875Y0038150D01*
X0173387Y0038150D01*
X0173845Y0038273D01*
X0174255Y0038510D01*
X0174950Y0040164D02*
X0184000Y0040164D01*
X0184000Y0041763D02*
X0174950Y0041763D01*
X0174950Y0044960D02*
X0184000Y0044960D01*
X0184000Y0046558D02*
X0174820Y0046558D01*
X0174620Y0048157D02*
X0184000Y0048157D01*
X0184000Y0043361D02*
X0169875Y0043361D01*
X0168525Y0043361D02*
X0149674Y0043361D01*
X0149950Y0044960D02*
X0163450Y0044960D01*
X0163580Y0046558D02*
X0149950Y0046558D01*
X0149950Y0048157D02*
X0163780Y0048157D01*
X0163650Y0049755D02*
X0149950Y0049755D01*
X0168525Y0041763D02*
X0169875Y0041763D01*
X0169875Y0040164D02*
X0168525Y0040164D01*
X0168525Y0038566D02*
X0169875Y0038566D01*
X0174968Y0032172D02*
X0178632Y0032172D01*
X0177740Y0030573D02*
X0175860Y0030573D01*
X0176000Y0028975D02*
X0177600Y0028975D01*
X0177600Y0027376D02*
X0176000Y0027376D01*
X0176000Y0025778D02*
X0177600Y0025778D01*
X0177600Y0024179D02*
X0176000Y0024179D01*
X0175675Y0022581D02*
X0177925Y0022581D01*
X0179078Y0020982D02*
X0174522Y0020982D01*
X0184000Y0019384D02*
X0055488Y0019384D01*
X0055488Y0020982D02*
X0059078Y0020982D01*
X0057925Y0022581D02*
X0055488Y0022581D01*
X0055488Y0024179D02*
X0057600Y0024179D01*
X0057600Y0025778D02*
X0055488Y0025778D01*
X0055488Y0027376D02*
X0057600Y0027376D01*
X0057600Y0028975D02*
X0055488Y0028975D01*
X0055488Y0030573D02*
X0057740Y0030573D01*
X0058632Y0032172D02*
X0055488Y0032172D01*
X0055488Y0033770D02*
X0059400Y0033770D01*
X0059400Y0035369D02*
X0055488Y0035369D01*
X0055488Y0036738D02*
X0055461Y0036946D01*
X0055406Y0037149D01*
X0055326Y0037343D01*
X0055221Y0037524D01*
X0055094Y0037691D01*
X0054945Y0037839D01*
X0054779Y0037967D01*
X0054597Y0038071D01*
X0054403Y0038152D01*
X0054201Y0038206D01*
X0053993Y0038233D01*
X0014362Y0038233D01*
X0014154Y0038206D01*
X0013951Y0038152D01*
X0013757Y0038071D01*
X0013576Y0037967D01*
X0013409Y0037839D01*
X0013261Y0037691D01*
X0013133Y0037524D01*
X0013029Y0037343D01*
X0012948Y0037149D01*
X0012894Y0036946D01*
X0012867Y0036738D01*
X0012867Y0014362D01*
X0012894Y0014154D01*
X0012948Y0013951D01*
X0013029Y0013757D01*
X0013133Y0013576D01*
X0013261Y0013409D01*
X0013409Y0013261D01*
X0013576Y0013133D01*
X0013757Y0013029D01*
X0013951Y0012948D01*
X0014154Y0012894D01*
X0014362Y0012867D01*
X0053993Y0012867D01*
X0054201Y0012894D01*
X0054403Y0012948D01*
X0054597Y0013029D01*
X0054779Y0013133D01*
X0054945Y0013261D01*
X0055094Y0013409D01*
X0055221Y0013576D01*
X0055326Y0013757D01*
X0055406Y0013951D01*
X0055461Y0014154D01*
X0055488Y0014362D01*
X0055488Y0036738D01*
X0055455Y0036967D02*
X0059400Y0036967D01*
X0059400Y0038566D02*
X0006600Y0038566D01*
X0006600Y0040164D02*
X0059400Y0040164D01*
X0059400Y0041763D02*
X0006600Y0041763D01*
X0006600Y0043361D02*
X0059400Y0043361D01*
X0059400Y0044960D02*
X0006600Y0044960D01*
X0006600Y0046558D02*
X0059400Y0046558D01*
X0059400Y0048157D02*
X0006600Y0048157D01*
X0006600Y0049755D02*
X0017044Y0049755D01*
X0015334Y0051354D02*
X0006600Y0051354D01*
X0006600Y0052952D02*
X0014700Y0052952D01*
X0014700Y0054551D02*
X0006600Y0054551D01*
X0006600Y0056149D02*
X0014700Y0056149D01*
X0014700Y0057748D02*
X0006600Y0057748D01*
X0006600Y0059346D02*
X0014700Y0059346D01*
X0014795Y0060945D02*
X0006600Y0060945D01*
X0006600Y0062543D02*
X0015538Y0062543D01*
X0016900Y0064142D02*
X0006600Y0064142D01*
X0006600Y0065740D02*
X0017346Y0065740D01*
X0018945Y0067339D02*
X0006600Y0067339D01*
X0006600Y0068937D02*
X0019400Y0068937D01*
X0019400Y0070536D02*
X0006600Y0070536D01*
X0006600Y0072134D02*
X0019400Y0072134D01*
X0019400Y0073733D02*
X0006600Y0073733D01*
X0006600Y0075332D02*
X0019400Y0075332D01*
X0019400Y0076930D02*
X0006600Y0076930D01*
X0006600Y0078529D02*
X0019400Y0078529D01*
X0019400Y0080127D02*
X0006600Y0080127D01*
X0006600Y0081726D02*
X0019400Y0081726D01*
X0019400Y0083324D02*
X0006600Y0083324D01*
X0006600Y0084923D02*
X0019400Y0084923D01*
X0019400Y0086521D02*
X0006600Y0086521D01*
X0006600Y0088120D02*
X0019400Y0088120D01*
X0019400Y0089718D02*
X0006600Y0089718D01*
X0006600Y0091317D02*
X0019400Y0091317D01*
X0019400Y0092915D02*
X0006600Y0092915D01*
X0006600Y0094514D02*
X0019400Y0094514D01*
X0019400Y0096112D02*
X0006600Y0096112D01*
X0006600Y0097711D02*
X0019400Y0097711D01*
X0019400Y0099309D02*
X0006600Y0099309D01*
X0006600Y0100908D02*
X0019400Y0100908D01*
X0019400Y0102506D02*
X0006600Y0102506D01*
X0006600Y0104105D02*
X0019400Y0104105D01*
X0019400Y0105703D02*
X0006600Y0105703D01*
X0006600Y0107302D02*
X0018936Y0107302D01*
X0018900Y0108900D02*
X0006600Y0108900D01*
X0006600Y0110499D02*
X0018900Y0110499D01*
X0018900Y0112097D02*
X0006600Y0112097D01*
X0006600Y0113696D02*
X0018900Y0113696D01*
X0018900Y0115294D02*
X0006600Y0115294D01*
X0006600Y0116893D02*
X0019130Y0116893D01*
X0021800Y0112000D02*
X0021800Y0066800D01*
X0019300Y0064300D01*
X0019300Y0056800D01*
X0023900Y0056149D02*
X0024700Y0056149D01*
X0024700Y0054551D02*
X0023900Y0054551D01*
X0023900Y0052952D02*
X0024700Y0052952D01*
X0025334Y0051354D02*
X0023266Y0051354D01*
X0021556Y0049755D02*
X0027044Y0049755D01*
X0031556Y0049755D02*
X0037044Y0049755D01*
X0035334Y0051354D02*
X0033266Y0051354D01*
X0033900Y0052952D02*
X0034700Y0052952D01*
X0034700Y0054551D02*
X0033900Y0054551D01*
X0033900Y0056149D02*
X0034700Y0056149D01*
X0034700Y0057748D02*
X0033900Y0057748D01*
X0033900Y0059346D02*
X0034700Y0059346D01*
X0034795Y0060945D02*
X0033805Y0060945D01*
X0033062Y0062543D02*
X0035162Y0062543D01*
X0033564Y0064142D02*
X0031700Y0064142D01*
X0031965Y0065740D02*
X0031254Y0065740D01*
X0030367Y0067339D02*
X0029655Y0067339D01*
X0029400Y0068937D02*
X0029200Y0068937D01*
X0029200Y0070536D02*
X0029400Y0070536D01*
X0029400Y0072134D02*
X0029200Y0072134D01*
X0029200Y0073733D02*
X0029400Y0073733D01*
X0029400Y0075332D02*
X0029200Y0075332D01*
X0029200Y0076930D02*
X0029400Y0076930D01*
X0029400Y0078529D02*
X0029200Y0078529D01*
X0029200Y0080127D02*
X0029400Y0080127D01*
X0029400Y0081726D02*
X0029200Y0081726D01*
X0029200Y0083324D02*
X0029400Y0083324D01*
X0029400Y0084923D02*
X0029200Y0084923D01*
X0029200Y0086521D02*
X0029400Y0086521D01*
X0029400Y0088120D02*
X0029200Y0088120D01*
X0029200Y0089718D02*
X0029400Y0089718D01*
X0029400Y0091317D02*
X0029200Y0091317D01*
X0029200Y0092915D02*
X0029400Y0092915D01*
X0029400Y0094514D02*
X0029200Y0094514D01*
X0029200Y0096112D02*
X0029400Y0096112D01*
X0029400Y0097711D02*
X0029200Y0097711D01*
X0029200Y0099309D02*
X0029400Y0099309D01*
X0029400Y0100908D02*
X0029200Y0100908D01*
X0029200Y0102506D02*
X0029400Y0102506D01*
X0029400Y0104105D02*
X0029200Y0104105D01*
X0029200Y0105703D02*
X0029400Y0105703D01*
X0034200Y0105703D02*
X0034400Y0105703D01*
X0034400Y0104105D02*
X0034200Y0104105D01*
X0034200Y0102506D02*
X0034400Y0102506D01*
X0034400Y0100908D02*
X0034200Y0100908D01*
X0034200Y0099309D02*
X0034400Y0099309D01*
X0034400Y0097711D02*
X0034200Y0097711D01*
X0034200Y0096112D02*
X0034400Y0096112D01*
X0034400Y0094514D02*
X0034200Y0094514D01*
X0034200Y0092915D02*
X0034400Y0092915D01*
X0034400Y0091317D02*
X0034200Y0091317D01*
X0034200Y0089718D02*
X0034400Y0089718D01*
X0034400Y0088120D02*
X0034200Y0088120D01*
X0034200Y0086521D02*
X0034400Y0086521D01*
X0034400Y0084923D02*
X0034200Y0084923D01*
X0034200Y0083324D02*
X0034606Y0083324D01*
X0034200Y0081726D02*
X0035980Y0081726D01*
X0037579Y0080127D02*
X0034200Y0080127D01*
X0034200Y0078529D02*
X0039177Y0078529D01*
X0040776Y0076930D02*
X0034200Y0076930D01*
X0034200Y0075332D02*
X0042374Y0075332D01*
X0043973Y0073733D02*
X0034200Y0073733D01*
X0034200Y0072134D02*
X0045571Y0072134D01*
X0047170Y0070536D02*
X0034200Y0070536D01*
X0035557Y0068937D02*
X0048768Y0068937D01*
X0050367Y0067339D02*
X0037155Y0067339D01*
X0038754Y0065740D02*
X0051965Y0065740D01*
X0053564Y0064142D02*
X0040838Y0064142D01*
X0043062Y0062543D02*
X0055162Y0062543D01*
X0056761Y0060945D02*
X0043805Y0060945D01*
X0043900Y0059346D02*
X0058359Y0059346D01*
X0059400Y0057748D02*
X0043900Y0057748D01*
X0043900Y0056149D02*
X0059400Y0056149D01*
X0059400Y0054551D02*
X0043900Y0054551D01*
X0043900Y0052952D02*
X0059400Y0052952D01*
X0059400Y0051354D02*
X0043266Y0051354D01*
X0041556Y0049755D02*
X0059400Y0049755D01*
X0064200Y0049755D02*
X0069400Y0049755D01*
X0069400Y0048157D02*
X0064200Y0048157D01*
X0064200Y0046558D02*
X0069400Y0046558D01*
X0069400Y0044960D02*
X0064200Y0044960D01*
X0064200Y0043361D02*
X0069400Y0043361D01*
X0069400Y0041763D02*
X0064200Y0041763D01*
X0064200Y0040164D02*
X0069400Y0040164D01*
X0069400Y0038566D02*
X0064200Y0038566D01*
X0064200Y0036967D02*
X0069400Y0036967D01*
X0069400Y0035369D02*
X0064200Y0035369D01*
X0064200Y0033770D02*
X0069400Y0033770D01*
X0068632Y0032172D02*
X0064968Y0032172D01*
X0065860Y0030573D02*
X0067740Y0030573D01*
X0067600Y0028975D02*
X0066000Y0028975D01*
X0066000Y0027376D02*
X0067600Y0027376D01*
X0067600Y0025778D02*
X0066000Y0025778D01*
X0066000Y0024179D02*
X0067600Y0024179D01*
X0067925Y0022581D02*
X0065675Y0022581D01*
X0064522Y0020982D02*
X0069078Y0020982D01*
X0071800Y0024300D02*
X0071800Y0026800D01*
X0071800Y0056800D01*
X0041800Y0086800D01*
X0041800Y0112000D01*
X0036800Y0112000D02*
X0036800Y0084300D01*
X0061800Y0059300D01*
X0061800Y0026800D01*
X0055488Y0017785D02*
X0184000Y0017785D01*
X0184000Y0016187D02*
X0055488Y0016187D01*
X0055488Y0014588D02*
X0184000Y0014588D01*
X0184312Y0012990D02*
X0054503Y0012990D01*
X0013852Y0012990D02*
X0006600Y0012990D01*
X0006600Y0014588D02*
X0012867Y0014588D01*
X0012867Y0016187D02*
X0006600Y0016187D01*
X0006600Y0017785D02*
X0012867Y0017785D01*
X0012867Y0019384D02*
X0006600Y0019384D01*
X0006600Y0020982D02*
X0012867Y0020982D01*
X0012867Y0022581D02*
X0006600Y0022581D01*
X0006600Y0024179D02*
X0012867Y0024179D01*
X0012867Y0025778D02*
X0006600Y0025778D01*
X0006600Y0027376D02*
X0012867Y0027376D01*
X0012867Y0028975D02*
X0006600Y0028975D01*
X0006600Y0030573D02*
X0012867Y0030573D01*
X0012867Y0032172D02*
X0006600Y0032172D01*
X0006600Y0033770D02*
X0012867Y0033770D01*
X0012867Y0035369D02*
X0006600Y0035369D01*
X0006600Y0036967D02*
X0012900Y0036967D01*
X0029300Y0056800D02*
X0029300Y0064300D01*
X0026800Y0066800D01*
X0026800Y0112000D01*
X0031800Y0112000D02*
X0031800Y0069300D01*
X0039300Y0061800D01*
X0039300Y0056800D01*
X0025538Y0062543D02*
X0023062Y0062543D01*
X0022536Y0064142D02*
X0026064Y0064142D01*
X0024641Y0065740D02*
X0023959Y0065740D01*
X0024200Y0067339D02*
X0024400Y0067339D01*
X0024400Y0068937D02*
X0024200Y0068937D01*
X0024200Y0070536D02*
X0024400Y0070536D01*
X0024400Y0072134D02*
X0024200Y0072134D01*
X0024200Y0073733D02*
X0024400Y0073733D01*
X0024400Y0075332D02*
X0024200Y0075332D01*
X0024200Y0076930D02*
X0024400Y0076930D01*
X0024400Y0078529D02*
X0024200Y0078529D01*
X0024200Y0080127D02*
X0024400Y0080127D01*
X0024400Y0081726D02*
X0024200Y0081726D01*
X0024200Y0083324D02*
X0024400Y0083324D01*
X0024400Y0084923D02*
X0024200Y0084923D01*
X0024200Y0086521D02*
X0024400Y0086521D01*
X0024400Y0088120D02*
X0024200Y0088120D01*
X0024200Y0089718D02*
X0024400Y0089718D01*
X0024400Y0091317D02*
X0024200Y0091317D01*
X0024200Y0092915D02*
X0024400Y0092915D01*
X0024400Y0094514D02*
X0024200Y0094514D01*
X0024200Y0096112D02*
X0024400Y0096112D01*
X0024400Y0097711D02*
X0024200Y0097711D01*
X0024200Y0099309D02*
X0024400Y0099309D01*
X0024400Y0100908D02*
X0024200Y0100908D01*
X0024200Y0102506D02*
X0024400Y0102506D01*
X0024400Y0104105D02*
X0024200Y0104105D01*
X0024200Y0105703D02*
X0024400Y0105703D01*
X0039200Y0105703D02*
X0039400Y0105703D01*
X0039400Y0104105D02*
X0039200Y0104105D01*
X0039200Y0102506D02*
X0039400Y0102506D01*
X0039400Y0100908D02*
X0039200Y0100908D01*
X0039200Y0099309D02*
X0039400Y0099309D01*
X0039400Y0097711D02*
X0039200Y0097711D01*
X0039200Y0096112D02*
X0039400Y0096112D01*
X0039400Y0094514D02*
X0039200Y0094514D01*
X0039200Y0092915D02*
X0039400Y0092915D01*
X0039400Y0091317D02*
X0039200Y0091317D01*
X0039200Y0089718D02*
X0039400Y0089718D01*
X0039400Y0088120D02*
X0039200Y0088120D01*
X0039200Y0086521D02*
X0039400Y0086521D01*
X0039572Y0084923D02*
X0040283Y0084923D01*
X0041170Y0083324D02*
X0041882Y0083324D01*
X0042769Y0081726D02*
X0043480Y0081726D01*
X0044367Y0080127D02*
X0045079Y0080127D01*
X0045966Y0078529D02*
X0046677Y0078529D01*
X0047564Y0076930D02*
X0048276Y0076930D01*
X0049163Y0075332D02*
X0049874Y0075332D01*
X0050761Y0073733D02*
X0051473Y0073733D01*
X0052360Y0072134D02*
X0053071Y0072134D01*
X0053958Y0070536D02*
X0054670Y0070536D01*
X0055557Y0068937D02*
X0056268Y0068937D01*
X0057155Y0067339D02*
X0057867Y0067339D01*
X0058754Y0065740D02*
X0059465Y0065740D01*
X0060352Y0064142D02*
X0061064Y0064142D01*
X0061951Y0062543D02*
X0062662Y0062543D01*
X0063549Y0060945D02*
X0064261Y0060945D01*
X0064200Y0059346D02*
X0065859Y0059346D01*
X0067458Y0057748D02*
X0064200Y0057748D01*
X0064200Y0056149D02*
X0069056Y0056149D01*
X0069400Y0054551D02*
X0064200Y0054551D01*
X0064200Y0052952D02*
X0069400Y0052952D01*
X0069400Y0051354D02*
X0064200Y0051354D01*
X0065265Y0081726D02*
X0068335Y0081726D01*
X0067617Y0083324D02*
X0065983Y0083324D01*
X0066000Y0084923D02*
X0067600Y0084923D01*
X0067600Y0086521D02*
X0066000Y0086521D01*
X0066000Y0088120D02*
X0067600Y0088120D01*
X0067600Y0089718D02*
X0066000Y0089718D01*
X0066389Y0091317D02*
X0065552Y0091317D01*
X0066800Y0094300D02*
X0059300Y0094300D01*
X0051800Y0101800D01*
X0051800Y0112000D01*
X0046800Y0112000D02*
X0046800Y0101800D01*
X0061800Y0086800D01*
X0057600Y0086521D02*
X0045473Y0086521D01*
X0044200Y0088120D02*
X0057086Y0088120D01*
X0055488Y0089718D02*
X0044200Y0089718D01*
X0044200Y0091317D02*
X0053889Y0091317D01*
X0052291Y0092915D02*
X0044200Y0092915D01*
X0044200Y0094514D02*
X0050692Y0094514D01*
X0049094Y0096112D02*
X0044200Y0096112D01*
X0044200Y0097711D02*
X0047495Y0097711D01*
X0045897Y0099309D02*
X0044200Y0099309D01*
X0044200Y0100908D02*
X0044572Y0100908D01*
X0044400Y0102506D02*
X0044200Y0102506D01*
X0044200Y0104105D02*
X0044400Y0104105D01*
X0044400Y0105703D02*
X0044200Y0105703D01*
X0054200Y0105703D02*
X0054400Y0105703D01*
X0054400Y0104105D02*
X0054200Y0104105D01*
X0054488Y0102506D02*
X0055200Y0102506D01*
X0056086Y0100908D02*
X0056798Y0100908D01*
X0057685Y0099309D02*
X0058397Y0099309D01*
X0059283Y0097711D02*
X0059995Y0097711D01*
X0066800Y0094300D02*
X0071800Y0089300D01*
X0071800Y0086800D01*
X0076000Y0086521D02*
X0077600Y0086521D01*
X0077600Y0084923D02*
X0076000Y0084923D01*
X0075983Y0083324D02*
X0077617Y0083324D01*
X0078335Y0081726D02*
X0075265Y0081726D01*
X0076000Y0088120D02*
X0077600Y0088120D01*
X0077600Y0089718D02*
X0076000Y0089718D01*
X0076389Y0091317D02*
X0075552Y0091317D01*
X0074791Y0092915D02*
X0074225Y0092915D01*
X0073192Y0094514D02*
X0069980Y0094514D01*
X0068382Y0096112D02*
X0071594Y0096112D01*
X0071800Y0099300D02*
X0081800Y0089300D01*
X0081800Y0086800D01*
X0071831Y0107302D02*
X0069664Y0107302D01*
X0069700Y0108900D02*
X0071657Y0108900D01*
X0071850Y0115294D02*
X0069700Y0115294D01*
X0069600Y0116893D02*
X0134000Y0116893D01*
X0134000Y0118491D02*
X0082027Y0118491D01*
X0082021Y0118467D02*
X0082143Y0118925D01*
X0082143Y0121537D01*
X0077575Y0121537D01*
X0077575Y0123087D01*
X0076025Y0123087D01*
X0076025Y0127261D01*
X0073020Y0127261D01*
X0072562Y0127139D01*
X0072151Y0126902D01*
X0071816Y0126567D01*
X0071579Y0126156D01*
X0071457Y0125698D01*
X0071457Y0123087D01*
X0076025Y0123087D01*
X0076025Y0121537D01*
X0071457Y0121537D01*
X0071457Y0118925D01*
X0071579Y0118467D01*
X0071816Y0118057D01*
X0072151Y0117722D01*
X0072562Y0117485D01*
X0073020Y0117362D01*
X0076025Y0117362D01*
X0076025Y0121537D01*
X0077575Y0121537D01*
X0077575Y0117362D01*
X0080580Y0117362D01*
X0081038Y0117485D01*
X0081449Y0117722D01*
X0081784Y0118057D01*
X0082021Y0118467D01*
X0082143Y0120090D02*
X0134000Y0120090D01*
X0134000Y0121688D02*
X0077575Y0121688D01*
X0077575Y0123087D02*
X0082143Y0123087D01*
X0082143Y0125698D01*
X0082021Y0126156D01*
X0081784Y0126567D01*
X0081449Y0126902D01*
X0081038Y0127139D01*
X0080580Y0127261D01*
X0077575Y0127261D01*
X0077575Y0123087D01*
X0077575Y0123287D02*
X0076025Y0123287D01*
X0076025Y0124885D02*
X0077575Y0124885D01*
X0077575Y0126484D02*
X0076025Y0126484D01*
X0071769Y0126484D02*
X0069600Y0126484D01*
X0069600Y0128082D02*
X0134000Y0128082D01*
X0134000Y0126484D02*
X0081831Y0126484D01*
X0082143Y0124885D02*
X0134000Y0124885D01*
X0134000Y0123287D02*
X0082143Y0123287D01*
X0077575Y0120090D02*
X0076025Y0120090D01*
X0076025Y0121688D02*
X0069600Y0121688D01*
X0069600Y0120090D02*
X0071457Y0120090D01*
X0071573Y0118491D02*
X0069600Y0118491D01*
X0069600Y0123287D02*
X0071457Y0123287D01*
X0071457Y0124885D02*
X0069600Y0124885D01*
X0071141Y0129681D02*
X0134000Y0129681D01*
X0134000Y0131279D02*
X0072739Y0131279D01*
X0068017Y0134476D02*
X0006600Y0134476D01*
X0006600Y0132878D02*
X0066418Y0132878D01*
X0064820Y0131279D02*
X0006600Y0131279D01*
X0006600Y0129681D02*
X0064000Y0129681D01*
X0064000Y0128082D02*
X0006600Y0128082D01*
X0006600Y0126484D02*
X0064000Y0126484D01*
X0064000Y0124885D02*
X0006600Y0124885D01*
X0006600Y0123287D02*
X0064000Y0123287D01*
X0064000Y0121688D02*
X0006600Y0121688D01*
X0006600Y0120090D02*
X0064000Y0120090D01*
X0064000Y0118491D02*
X0006600Y0118491D01*
X0006600Y0136075D02*
X0069615Y0136075D01*
X0068337Y0145800D02*
X0066800Y0145800D01*
X0066800Y0151600D01*
X0066800Y0151600D01*
X0066800Y0157400D01*
X0068337Y0157400D01*
X0068795Y0157277D01*
X0069205Y0157040D01*
X0069540Y0156705D01*
X0069777Y0156295D01*
X0069900Y0155837D01*
X0069900Y0151600D01*
X0066800Y0151600D01*
X0066800Y0151600D01*
X0066800Y0157400D01*
X0065263Y0157400D01*
X0064805Y0157277D01*
X0064395Y0157040D01*
X0064200Y0156846D01*
X0064200Y0170806D01*
X0083835Y0190441D01*
X0084200Y0191323D01*
X0084200Y0194815D01*
X0084406Y0194900D01*
X0085700Y0196194D01*
X0086400Y0197885D01*
X0086400Y0205715D01*
X0085700Y0207406D01*
X0084406Y0208700D01*
X0082715Y0209400D01*
X0080885Y0209400D01*
X0079194Y0208700D01*
X0077900Y0207406D01*
X0077200Y0205715D01*
X0077200Y0197885D01*
X0077900Y0196194D01*
X0079194Y0194900D01*
X0079400Y0194815D01*
X0079400Y0192794D01*
X0060441Y0173835D01*
X0059765Y0173159D01*
X0059400Y0172277D01*
X0059400Y0156763D01*
X0059300Y0156663D01*
X0059200Y0156763D01*
X0059200Y0173306D01*
X0073835Y0187941D01*
X0074200Y0188823D01*
X0074200Y0194815D01*
X0074406Y0194900D01*
X0075700Y0196194D01*
X0076400Y0197885D01*
X0076400Y0205715D01*
X0075700Y0207406D01*
X0074406Y0208700D01*
X0072715Y0209400D01*
X0070885Y0209400D01*
X0069194Y0208700D01*
X0067900Y0207406D01*
X0067200Y0205715D01*
X0067200Y0197885D01*
X0067900Y0196194D01*
X0069194Y0194900D01*
X0069400Y0194815D01*
X0069400Y0190294D01*
X0055441Y0176335D01*
X0054765Y0175659D01*
X0054400Y0174777D01*
X0054400Y0156763D01*
X0054300Y0156663D01*
X0054200Y0156763D01*
X0054200Y0175806D01*
X0063835Y0185441D01*
X0064200Y0186323D01*
X0064200Y0194815D01*
X0064406Y0194900D01*
X0065700Y0196194D01*
X0066400Y0197885D01*
X0066400Y0205715D01*
X0065700Y0207406D01*
X0064406Y0208700D01*
X0062715Y0209400D01*
X0060885Y0209400D01*
X0059194Y0208700D01*
X0057900Y0207406D01*
X0057200Y0205715D01*
X0057200Y0197885D01*
X0057900Y0196194D01*
X0059194Y0194900D01*
X0059400Y0194815D01*
X0059400Y0187794D01*
X0050441Y0178835D01*
X0049765Y0178159D01*
X0049400Y0177277D01*
X0049400Y0156763D01*
X0049300Y0156663D01*
X0049200Y0156763D01*
X0049200Y0178306D01*
X0053835Y0182941D01*
X0054200Y0183823D01*
X0054200Y0194815D01*
X0054406Y0194900D01*
X0055700Y0196194D01*
X0056400Y0197885D01*
X0056400Y0205715D01*
X0055700Y0207406D01*
X0054406Y0208700D01*
X0052715Y0209400D01*
X0050885Y0209400D01*
X0049194Y0208700D01*
X0047900Y0207406D01*
X0047200Y0205715D01*
X0047200Y0197885D01*
X0047900Y0196194D01*
X0049194Y0194900D01*
X0049400Y0194815D01*
X0049400Y0185294D01*
X0045441Y0181335D01*
X0044765Y0180659D01*
X0044400Y0179777D01*
X0044400Y0156763D01*
X0044300Y0156663D01*
X0044200Y0156763D01*
X0044200Y0194815D01*
X0044406Y0194900D01*
X0045700Y0196194D01*
X0046400Y0197885D01*
X0046400Y0205715D01*
X0045700Y0207406D01*
X0044406Y0208700D01*
X0042715Y0209400D01*
X0040885Y0209400D01*
X0039194Y0208700D01*
X0037900Y0207406D01*
X0037200Y0205715D01*
X0037200Y0197885D01*
X0037900Y0196194D01*
X0039194Y0194900D01*
X0039400Y0194815D01*
X0039400Y0156763D01*
X0039300Y0156663D01*
X0039200Y0156763D01*
X0039200Y0179777D01*
X0038835Y0180659D01*
X0038159Y0181335D01*
X0034200Y0185294D01*
X0034200Y0194815D01*
X0034406Y0194900D01*
X0035700Y0196194D01*
X0036400Y0197885D01*
X0036400Y0205715D01*
X0035700Y0207406D01*
X0034406Y0208700D01*
X0032715Y0209400D01*
X0030885Y0209400D01*
X0029194Y0208700D01*
X0027900Y0207406D01*
X0027200Y0205715D01*
X0027200Y0197885D01*
X0027900Y0196194D01*
X0029194Y0194900D01*
X0029400Y0194815D01*
X0029400Y0183823D01*
X0029765Y0182941D01*
X0034400Y0178306D01*
X0034400Y0156763D01*
X0034300Y0156663D01*
X0034200Y0156763D01*
X0034200Y0177277D01*
X0033835Y0178159D01*
X0033159Y0178835D01*
X0024200Y0187794D01*
X0024200Y0194815D01*
X0024406Y0194900D01*
X0025700Y0196194D01*
X0026400Y0197885D01*
X0026400Y0205715D01*
X0025700Y0207406D01*
X0024406Y0208700D01*
X0022715Y0209400D01*
X0020885Y0209400D01*
X0019194Y0208700D01*
X0017900Y0207406D01*
X0017200Y0205715D01*
X0017200Y0197885D01*
X0017900Y0196194D01*
X0019194Y0194900D01*
X0019400Y0194815D01*
X0019400Y0186323D01*
X0019765Y0185441D01*
X0029400Y0175806D01*
X0029400Y0156763D01*
X0029300Y0156663D01*
X0029200Y0156763D01*
X0029200Y0174777D01*
X0028835Y0175659D01*
X0028159Y0176335D01*
X0014200Y0190294D01*
X0014200Y0194815D01*
X0014406Y0194900D01*
X0015700Y0196194D01*
X0016400Y0197885D01*
X0016400Y0205715D01*
X0015700Y0207406D01*
X0014406Y0208700D01*
X0012715Y0209400D01*
X0010885Y0209400D01*
X0009194Y0208700D01*
X0007900Y0207406D01*
X0007200Y0205715D01*
X0007200Y0197885D01*
X0007900Y0196194D01*
X0009194Y0194900D01*
X0009400Y0194815D01*
X0009400Y0188823D01*
X0009765Y0187941D01*
X0024400Y0173306D01*
X0024400Y0156846D01*
X0024205Y0157040D01*
X0023795Y0157277D01*
X0023337Y0157400D01*
X0021800Y0157400D01*
X0021800Y0151600D01*
X0021800Y0151600D01*
X0021800Y0145800D01*
X0023337Y0145800D01*
X0023795Y0145923D01*
X0024205Y0146160D01*
X0024441Y0146396D01*
X0024837Y0146000D01*
X0028763Y0146000D01*
X0029300Y0146537D01*
X0029837Y0146000D01*
X0033763Y0146000D01*
X0034300Y0146537D01*
X0034837Y0146000D01*
X0038763Y0146000D01*
X0039300Y0146537D01*
X0039837Y0146000D01*
X0043763Y0146000D01*
X0044300Y0146537D01*
X0044837Y0146000D01*
X0048763Y0146000D01*
X0049300Y0146537D01*
X0049837Y0146000D01*
X0053763Y0146000D01*
X0054300Y0146537D01*
X0054837Y0146000D01*
X0058763Y0146000D01*
X0059300Y0146537D01*
X0059837Y0146000D01*
X0063763Y0146000D01*
X0064159Y0146396D01*
X0064395Y0146160D01*
X0064805Y0145923D01*
X0065263Y0145800D01*
X0066800Y0145800D01*
X0066800Y0151600D01*
X0069900Y0151600D01*
X0069900Y0147363D01*
X0069777Y0146905D01*
X0069540Y0146495D01*
X0069205Y0146160D01*
X0068795Y0145923D01*
X0068337Y0145800D01*
X0069874Y0147265D02*
X0088700Y0147265D01*
X0088700Y0146600D02*
X0091800Y0146600D01*
X0091800Y0146600D01*
X0091800Y0152400D01*
X0092806Y0152400D01*
X0088306Y0156900D01*
X0083823Y0156900D01*
X0082941Y0157265D01*
X0080441Y0159765D01*
X0079765Y0160441D01*
X0079400Y0161323D01*
X0079400Y0167315D01*
X0079194Y0167400D01*
X0077900Y0168694D01*
X0077200Y0170385D01*
X0077200Y0178215D01*
X0077900Y0179906D01*
X0079194Y0181200D01*
X0080885Y0181900D01*
X0082715Y0181900D01*
X0084406Y0181200D01*
X0085700Y0179906D01*
X0086400Y0178215D01*
X0086400Y0170385D01*
X0085700Y0168694D01*
X0084406Y0167400D01*
X0084200Y0167315D01*
X0084200Y0162794D01*
X0085294Y0161700D01*
X0089400Y0161700D01*
X0089400Y0167315D01*
X0089194Y0167400D01*
X0087900Y0168694D01*
X0087200Y0170385D01*
X0087200Y0178215D01*
X0087900Y0179906D01*
X0089194Y0181200D01*
X0090885Y0181900D01*
X0092715Y0181900D01*
X0094406Y0181200D01*
X0095700Y0179906D01*
X0096400Y0178215D01*
X0096400Y0170385D01*
X0095700Y0168694D01*
X0094406Y0167400D01*
X0094200Y0167315D01*
X0094200Y0162794D01*
X0103835Y0153159D01*
X0104200Y0152277D01*
X0104200Y0151763D01*
X0104300Y0151663D01*
X0104400Y0151763D01*
X0104400Y0155806D01*
X0100441Y0159765D01*
X0100441Y0159765D01*
X0099765Y0160441D01*
X0099400Y0161323D01*
X0099400Y0167315D01*
X0099194Y0167400D01*
X0097900Y0168694D01*
X0097200Y0170385D01*
X0097200Y0178215D01*
X0097900Y0179906D01*
X0099194Y0181200D01*
X0100885Y0181900D01*
X0102715Y0181900D01*
X0104406Y0181200D01*
X0105700Y0179906D01*
X0106400Y0178215D01*
X0106400Y0170385D01*
X0105700Y0168694D01*
X0104406Y0167400D01*
X0104200Y0167315D01*
X0104200Y0162794D01*
X0108835Y0158159D01*
X0109200Y0157277D01*
X0109200Y0151763D01*
X0109300Y0151663D01*
X0109400Y0151763D01*
X0109400Y0167315D01*
X0109194Y0167400D01*
X0107900Y0168694D01*
X0107200Y0170385D01*
X0107200Y0178215D01*
X0107900Y0179906D01*
X0109194Y0181200D01*
X0110885Y0181900D01*
X0112715Y0181900D01*
X0114406Y0181200D01*
X0115700Y0179906D01*
X0116400Y0178215D01*
X0116400Y0170385D01*
X0115700Y0168694D01*
X0114406Y0167400D01*
X0114200Y0167315D01*
X0114200Y0151763D01*
X0114300Y0151663D01*
X0114400Y0151763D01*
X0114400Y0157277D01*
X0114765Y0158159D01*
X0119400Y0162794D01*
X0119400Y0167315D01*
X0119194Y0167400D01*
X0117900Y0168694D01*
X0117200Y0170385D01*
X0117200Y0178215D01*
X0117900Y0179906D01*
X0119194Y0181200D01*
X0120885Y0181900D01*
X0122715Y0181900D01*
X0124406Y0181200D01*
X0125700Y0179906D01*
X0126400Y0178215D01*
X0126400Y0170385D01*
X0125700Y0168694D01*
X0124406Y0167400D01*
X0124200Y0167315D01*
X0124200Y0161323D01*
X0123835Y0160441D01*
X0123159Y0159765D01*
X0119200Y0155806D01*
X0119200Y0151763D01*
X0119300Y0151663D01*
X0119400Y0151763D01*
X0119400Y0152277D01*
X0119765Y0153159D01*
X0129400Y0162794D01*
X0129400Y0167315D01*
X0129194Y0167400D01*
X0127900Y0168694D01*
X0127200Y0170385D01*
X0127200Y0178215D01*
X0127900Y0179906D01*
X0129194Y0181200D01*
X0130885Y0181900D01*
X0132715Y0181900D01*
X0134406Y0181200D01*
X0135700Y0179906D01*
X0136400Y0178215D01*
X0136400Y0170385D01*
X0135700Y0168694D01*
X0134406Y0167400D01*
X0134200Y0167315D01*
X0134200Y0162594D01*
X0139100Y0167494D01*
X0137900Y0168694D01*
X0137200Y0170385D01*
X0137200Y0178215D01*
X0137900Y0179906D01*
X0139194Y0181200D01*
X0140885Y0181900D01*
X0142715Y0181900D01*
X0144406Y0181200D01*
X0145700Y0179906D01*
X0146400Y0178215D01*
X0146400Y0170385D01*
X0145982Y0169376D01*
X0147200Y0170594D01*
X0147200Y0178215D01*
X0147900Y0179906D01*
X0149194Y0181200D01*
X0150885Y0181900D01*
X0152715Y0181900D01*
X0154406Y0181200D01*
X0155700Y0179906D01*
X0156400Y0178215D01*
X0156400Y0170385D01*
X0155700Y0168694D01*
X0154406Y0167400D01*
X0152715Y0166700D01*
X0150885Y0166700D01*
X0150326Y0166932D01*
X0135594Y0152200D01*
X0138763Y0152200D01*
X0139700Y0151263D01*
X0139700Y0150594D01*
X0142400Y0153294D01*
X0142400Y0157975D01*
X0143070Y0159592D01*
X0144308Y0160830D01*
X0145925Y0161500D01*
X0147675Y0161500D01*
X0149292Y0160830D01*
X0150530Y0159592D01*
X0151200Y0157975D01*
X0151200Y0150625D01*
X0150530Y0149008D01*
X0149292Y0147770D01*
X0147675Y0147100D01*
X0145925Y0147100D01*
X0144308Y0147770D01*
X0143986Y0148092D01*
X0140459Y0144565D01*
X0139700Y0144251D01*
X0139700Y0141937D01*
X0138763Y0141000D01*
X0134837Y0141000D01*
X0134300Y0141537D01*
X0133763Y0141000D01*
X0129837Y0141000D01*
X0129300Y0141537D01*
X0128763Y0141000D01*
X0124837Y0141000D01*
X0124300Y0141537D01*
X0123763Y0141000D01*
X0119837Y0141000D01*
X0119300Y0141537D01*
X0118763Y0141000D01*
X0114837Y0141000D01*
X0114300Y0141537D01*
X0113763Y0141000D01*
X0109837Y0141000D01*
X0109300Y0141537D01*
X0108763Y0141000D01*
X0104837Y0141000D01*
X0104300Y0141537D01*
X0103763Y0141000D01*
X0099837Y0141000D01*
X0099300Y0141537D01*
X0099200Y0141437D01*
X0099200Y0141323D01*
X0098835Y0140441D01*
X0098159Y0139765D01*
X0097277Y0139400D01*
X0096323Y0139400D01*
X0095441Y0139765D01*
X0094765Y0140441D01*
X0094400Y0141323D01*
X0094400Y0141354D01*
X0094205Y0141160D01*
X0093795Y0140923D01*
X0093337Y0140800D01*
X0091800Y0140800D01*
X0091800Y0146600D01*
X0091800Y0146600D01*
X0091800Y0146600D01*
X0091800Y0152400D01*
X0090263Y0152400D01*
X0089805Y0152277D01*
X0089395Y0152040D01*
X0089060Y0151705D01*
X0088823Y0151295D01*
X0088700Y0150837D01*
X0088700Y0146600D01*
X0088700Y0142363D01*
X0088823Y0141905D01*
X0089060Y0141495D01*
X0089395Y0141160D01*
X0089805Y0140923D01*
X0090263Y0140800D01*
X0091800Y0140800D01*
X0091800Y0146600D01*
X0088700Y0146600D01*
X0088700Y0145666D02*
X0006600Y0145666D01*
X0006600Y0144068D02*
X0088700Y0144068D01*
X0088700Y0142469D02*
X0006600Y0142469D01*
X0006600Y0140870D02*
X0090000Y0140870D01*
X0091800Y0140870D02*
X0091800Y0140870D01*
X0091800Y0142469D02*
X0091800Y0142469D01*
X0091800Y0144068D02*
X0091800Y0144068D01*
X0091800Y0145666D02*
X0091800Y0145666D01*
X0091800Y0147265D02*
X0091800Y0147265D01*
X0091800Y0148863D02*
X0091800Y0148863D01*
X0091800Y0150462D02*
X0091800Y0150462D01*
X0091800Y0152060D02*
X0091800Y0152060D01*
X0091547Y0153659D02*
X0069900Y0153659D01*
X0069900Y0155257D02*
X0089949Y0155257D01*
X0088350Y0156856D02*
X0069390Y0156856D01*
X0066800Y0156856D02*
X0066800Y0156856D01*
X0066800Y0155257D02*
X0066800Y0155257D01*
X0066800Y0153659D02*
X0066800Y0153659D01*
X0066800Y0152060D02*
X0066800Y0152060D01*
X0066800Y0151600D02*
X0066800Y0151600D01*
X0066800Y0150462D02*
X0066800Y0150462D01*
X0066800Y0148863D02*
X0066800Y0148863D01*
X0066800Y0147265D02*
X0066800Y0147265D01*
X0069900Y0148863D02*
X0088700Y0148863D01*
X0088700Y0150462D02*
X0069900Y0150462D01*
X0069900Y0152060D02*
X0089429Y0152060D01*
X0089300Y0159300D02*
X0096800Y0151800D01*
X0096800Y0146600D01*
X0096800Y0141800D01*
X0099013Y0140870D02*
X0246500Y0140870D01*
X0246500Y0139272D02*
X0006600Y0139272D01*
X0006600Y0137673D02*
X0246500Y0137673D01*
X0246500Y0136075D02*
X0213985Y0136075D01*
X0215583Y0134476D02*
X0246500Y0134476D01*
X0246500Y0132878D02*
X0217182Y0132878D01*
X0218780Y0131279D02*
X0246500Y0131279D01*
X0246500Y0129681D02*
X0219600Y0129681D01*
X0219600Y0128082D02*
X0246500Y0128082D01*
X0246500Y0126484D02*
X0219600Y0126484D01*
X0219600Y0124885D02*
X0246500Y0124885D01*
X0246500Y0123287D02*
X0234620Y0123287D01*
X0234643Y0123198D02*
X0234521Y0123656D01*
X0234284Y0124067D01*
X0233949Y0124402D01*
X0233538Y0124639D01*
X0233080Y0124761D01*
X0230075Y0124761D01*
X0230075Y0120587D01*
X0228525Y0120587D01*
X0228525Y0124761D01*
X0225520Y0124761D01*
X0225062Y0124639D01*
X0224651Y0124402D01*
X0224316Y0124067D01*
X0224079Y0123656D01*
X0223957Y0123198D01*
X0223957Y0120587D01*
X0228525Y0120587D01*
X0228525Y0119037D01*
X0223957Y0119037D01*
X0223957Y0116425D01*
X0224079Y0115967D01*
X0224316Y0115557D01*
X0224651Y0115222D01*
X0225062Y0114985D01*
X0225520Y0114862D01*
X0228525Y0114862D01*
X0228525Y0119037D01*
X0230075Y0119037D01*
X0230075Y0120587D01*
X0234643Y0120587D01*
X0234643Y0123198D01*
X0234643Y0121688D02*
X0246500Y0121688D01*
X0246500Y0120090D02*
X0230075Y0120090D01*
X0230075Y0119037D02*
X0234643Y0119037D01*
X0234643Y0116425D01*
X0234521Y0115967D01*
X0234284Y0115557D01*
X0233949Y0115222D01*
X0233538Y0114985D01*
X0233080Y0114862D01*
X0230075Y0114862D01*
X0230075Y0119037D01*
X0230075Y0118491D02*
X0228525Y0118491D01*
X0228525Y0116893D02*
X0230075Y0116893D01*
X0230075Y0115294D02*
X0228525Y0115294D01*
X0224579Y0115294D02*
X0219600Y0115294D01*
X0219600Y0116893D02*
X0223957Y0116893D01*
X0223957Y0118491D02*
X0219600Y0118491D01*
X0219600Y0120090D02*
X0228525Y0120090D01*
X0228525Y0121688D02*
X0230075Y0121688D01*
X0230075Y0123287D02*
X0228525Y0123287D01*
X0223980Y0123287D02*
X0219600Y0123287D01*
X0219600Y0121688D02*
X0223957Y0121688D01*
X0214000Y0121688D02*
X0152143Y0121688D01*
X0152143Y0120587D02*
X0152143Y0123198D01*
X0152021Y0123656D01*
X0151784Y0124067D01*
X0151449Y0124402D01*
X0151038Y0124639D01*
X0150580Y0124761D01*
X0147575Y0124761D01*
X0147575Y0120587D01*
X0146025Y0120587D01*
X0146025Y0124761D01*
X0143020Y0124761D01*
X0142562Y0124639D01*
X0142151Y0124402D01*
X0141816Y0124067D01*
X0141579Y0123656D01*
X0141457Y0123198D01*
X0141457Y0120587D01*
X0146025Y0120587D01*
X0146025Y0119037D01*
X0141457Y0119037D01*
X0141457Y0116425D01*
X0141579Y0115967D01*
X0141816Y0115557D01*
X0142151Y0115222D01*
X0142562Y0114985D01*
X0143020Y0114862D01*
X0146025Y0114862D01*
X0146025Y0119037D01*
X0147575Y0119037D01*
X0147575Y0120587D01*
X0152143Y0120587D01*
X0152143Y0119037D02*
X0152143Y0116425D01*
X0152021Y0115967D01*
X0151784Y0115557D01*
X0151449Y0115222D01*
X0151038Y0114985D01*
X0150580Y0114862D01*
X0147575Y0114862D01*
X0147575Y0119037D01*
X0152143Y0119037D01*
X0152143Y0118491D02*
X0214000Y0118491D01*
X0214000Y0116893D02*
X0152143Y0116893D01*
X0151521Y0115294D02*
X0210242Y0115294D01*
X0210263Y0115300D02*
X0209805Y0115177D01*
X0209395Y0114940D01*
X0209159Y0114704D01*
X0208763Y0115100D01*
X0204837Y0115100D01*
X0204300Y0114563D01*
X0203763Y0115100D01*
X0199837Y0115100D01*
X0199300Y0114563D01*
X0198763Y0115100D01*
X0194837Y0115100D01*
X0194300Y0114563D01*
X0193763Y0115100D01*
X0189837Y0115100D01*
X0189300Y0114563D01*
X0188763Y0115100D01*
X0184837Y0115100D01*
X0184300Y0114563D01*
X0183763Y0115100D01*
X0179837Y0115100D01*
X0179300Y0114563D01*
X0178763Y0115100D01*
X0174837Y0115100D01*
X0174300Y0114563D01*
X0173763Y0115100D01*
X0169837Y0115100D01*
X0168900Y0114163D01*
X0168900Y0111700D01*
X0163823Y0111700D01*
X0162941Y0111335D01*
X0153306Y0101700D01*
X0143823Y0101700D01*
X0142941Y0101335D01*
X0138306Y0096700D01*
X0136323Y0096700D01*
X0135441Y0096335D01*
X0134765Y0095659D01*
X0132685Y0093579D01*
X0132635Y0093600D01*
X0130965Y0093600D01*
X0129421Y0092961D01*
X0129200Y0092740D01*
X0129200Y0101754D01*
X0129395Y0101560D01*
X0129805Y0101323D01*
X0130263Y0101200D01*
X0131800Y0101200D01*
X0133337Y0101200D01*
X0133795Y0101323D01*
X0134205Y0101560D01*
X0134441Y0101796D01*
X0134837Y0101400D01*
X0138763Y0101400D01*
X0139700Y0102337D01*
X0139700Y0104000D01*
X0147357Y0104000D01*
X0147450Y0104039D01*
X0151006Y0104039D01*
X0151943Y0104976D01*
X0151943Y0112601D01*
X0151006Y0113538D01*
X0142594Y0113538D01*
X0141657Y0112601D01*
X0141657Y0109600D01*
X0139700Y0109600D01*
X0139700Y0111663D01*
X0139600Y0111763D01*
X0139600Y0131500D01*
X0210640Y0131500D01*
X0214000Y0128140D01*
X0214000Y0115059D01*
X0213795Y0115177D01*
X0213337Y0115300D01*
X0211800Y0115300D01*
X0211800Y0109500D01*
X0211800Y0109500D01*
X0211800Y0115300D01*
X0210263Y0115300D01*
X0211800Y0115294D02*
X0211800Y0115294D01*
X0213358Y0115294D02*
X0214000Y0115294D01*
X0211800Y0113696D02*
X0211800Y0113696D01*
X0211800Y0112097D02*
X0211800Y0112097D01*
X0211800Y0110499D02*
X0211800Y0110499D01*
X0211800Y0109500D02*
X0211800Y0103700D01*
X0213337Y0103700D01*
X0213795Y0103823D01*
X0214205Y0104060D01*
X0214441Y0104296D01*
X0214837Y0103900D01*
X0218763Y0103900D01*
X0219700Y0104837D01*
X0219700Y0105988D01*
X0224157Y0105988D01*
X0224157Y0104976D01*
X0225094Y0104039D01*
X0228650Y0104039D01*
X0228743Y0104000D01*
X0229857Y0104000D01*
X0229950Y0104039D01*
X0233506Y0104039D01*
X0234443Y0104976D01*
X0234443Y0105988D01*
X0261500Y0105988D01*
X0261500Y0017100D01*
X0189600Y0017100D01*
X0189600Y0020565D01*
X0190965Y0020000D01*
X0192635Y0020000D01*
X0194179Y0020639D01*
X0195361Y0021821D01*
X0196000Y0023365D01*
X0196000Y0030235D01*
X0195361Y0031779D01*
X0194179Y0032961D01*
X0192635Y0033600D01*
X0190965Y0033600D01*
X0189600Y0033035D01*
X0189600Y0049100D01*
X0191539Y0049100D01*
X0191539Y0045094D01*
X0192476Y0044157D01*
X0200101Y0044157D01*
X0201038Y0045094D01*
X0201038Y0053506D01*
X0200101Y0054443D01*
X0194865Y0054443D01*
X0194245Y0054700D01*
X0174750Y0054700D01*
X0174750Y0055513D01*
X0173863Y0056400D01*
X0174750Y0057287D01*
X0174750Y0064513D01*
X0173813Y0065450D01*
X0169600Y0065450D01*
X0169600Y0066657D01*
X0171124Y0066657D01*
X0172061Y0067594D01*
X0172061Y0069000D01*
X0179857Y0069000D01*
X0180886Y0069426D01*
X0181674Y0070214D01*
X0191460Y0080000D01*
X0192635Y0080000D01*
X0194179Y0080639D01*
X0194400Y0080860D01*
X0194400Y0078823D01*
X0194765Y0077941D01*
X0195441Y0077265D01*
X0229400Y0043306D01*
X0229400Y0032940D01*
X0228239Y0031779D01*
X0227600Y0030235D01*
X0227600Y0023365D01*
X0228239Y0021821D01*
X0229421Y0020639D01*
X0230965Y0020000D01*
X0232635Y0020000D01*
X0234179Y0020639D01*
X0235361Y0021821D01*
X0236000Y0023365D01*
X0236000Y0030235D01*
X0235361Y0031779D01*
X0234200Y0032940D01*
X0234200Y0043506D01*
X0239400Y0038306D01*
X0239400Y0032940D01*
X0238239Y0031779D01*
X0237600Y0030235D01*
X0237600Y0023365D01*
X0238239Y0021821D01*
X0239421Y0020639D01*
X0240965Y0020000D01*
X0242635Y0020000D01*
X0244179Y0020639D01*
X0245361Y0021821D01*
X0246000Y0023365D01*
X0246000Y0030235D01*
X0245361Y0031779D01*
X0244200Y0032940D01*
X0244200Y0039777D01*
X0243835Y0040659D01*
X0209200Y0075294D01*
X0209200Y0080860D01*
X0209421Y0080639D01*
X0210965Y0080000D01*
X0212635Y0080000D01*
X0214179Y0080639D01*
X0214400Y0080860D01*
X0214400Y0071323D01*
X0214765Y0070441D01*
X0249400Y0035806D01*
X0249400Y0032940D01*
X0248239Y0031779D01*
X0247600Y0030235D01*
X0247600Y0023365D01*
X0248239Y0021821D01*
X0249421Y0020639D01*
X0250965Y0020000D01*
X0252635Y0020000D01*
X0254179Y0020639D01*
X0255361Y0021821D01*
X0256000Y0023365D01*
X0256000Y0030235D01*
X0255361Y0031779D01*
X0254200Y0032940D01*
X0254200Y0037277D01*
X0253835Y0038159D01*
X0219200Y0072794D01*
X0219200Y0080860D01*
X0219421Y0080639D01*
X0220965Y0080000D01*
X0222635Y0080000D01*
X0224179Y0080639D01*
X0225361Y0081821D01*
X0226000Y0083365D01*
X0226000Y0090235D01*
X0225361Y0091779D01*
X0224179Y0092961D01*
X0222635Y0093600D01*
X0220965Y0093600D01*
X0219421Y0092961D01*
X0219065Y0092604D01*
X0218835Y0093159D01*
X0218159Y0093835D01*
X0209200Y0102794D01*
X0209200Y0104254D01*
X0209395Y0104060D01*
X0209805Y0103823D01*
X0210263Y0103700D01*
X0211800Y0103700D01*
X0211800Y0109500D01*
X0211800Y0109500D01*
X0211800Y0108900D02*
X0211800Y0108900D01*
X0211800Y0107302D02*
X0211800Y0107302D01*
X0211800Y0105703D02*
X0211800Y0105703D01*
X0211800Y0104105D02*
X0211800Y0104105D01*
X0214250Y0104105D02*
X0214633Y0104105D01*
X0218967Y0104105D02*
X0225028Y0104105D01*
X0224157Y0105703D02*
X0219700Y0105703D01*
X0219700Y0112097D02*
X0224157Y0112097D01*
X0219700Y0113696D02*
X0246500Y0113696D01*
X0246500Y0115294D02*
X0234021Y0115294D01*
X0234643Y0116893D02*
X0246500Y0116893D01*
X0246500Y0118491D02*
X0234643Y0118491D01*
X0234443Y0112097D02*
X0246500Y0112097D01*
X0252100Y0112097D02*
X0272591Y0112097D01*
X0272591Y0110499D02*
X0266549Y0110499D01*
X0267100Y0108900D02*
X0272591Y0108900D01*
X0272591Y0107302D02*
X0267100Y0107302D01*
X0267100Y0105703D02*
X0272591Y0105703D01*
X0272591Y0104105D02*
X0267100Y0104105D01*
X0267100Y0102506D02*
X0272591Y0102506D01*
X0272591Y0100908D02*
X0267100Y0100908D01*
X0267100Y0099309D02*
X0272591Y0099309D01*
X0272591Y0097711D02*
X0267100Y0097711D01*
X0267100Y0096112D02*
X0272591Y0096112D01*
X0272591Y0094514D02*
X0267100Y0094514D01*
X0267100Y0092915D02*
X0272591Y0092915D01*
X0272591Y0091317D02*
X0267100Y0091317D01*
X0267100Y0089718D02*
X0272591Y0089718D01*
X0272591Y0088120D02*
X0267100Y0088120D01*
X0267100Y0086521D02*
X0272591Y0086521D01*
X0272591Y0084923D02*
X0267100Y0084923D01*
X0267100Y0083324D02*
X0272591Y0083324D01*
X0272591Y0081726D02*
X0267100Y0081726D01*
X0267100Y0080127D02*
X0272591Y0080127D01*
X0272591Y0078529D02*
X0267100Y0078529D01*
X0267100Y0076930D02*
X0272591Y0076930D01*
X0272591Y0075332D02*
X0267100Y0075332D01*
X0267100Y0073733D02*
X0272591Y0073733D01*
X0272591Y0072134D02*
X0267100Y0072134D01*
X0267100Y0070536D02*
X0272591Y0070536D01*
X0272591Y0068937D02*
X0267100Y0068937D01*
X0267100Y0067339D02*
X0272591Y0067339D01*
X0272591Y0065740D02*
X0267100Y0065740D01*
X0267100Y0064142D02*
X0272591Y0064142D01*
X0272591Y0062543D02*
X0267100Y0062543D01*
X0267100Y0060945D02*
X0272591Y0060945D01*
X0272591Y0059346D02*
X0267100Y0059346D01*
X0267100Y0057748D02*
X0272591Y0057748D01*
X0272591Y0056149D02*
X0267100Y0056149D01*
X0267100Y0054551D02*
X0272591Y0054551D01*
X0272591Y0052952D02*
X0267100Y0052952D01*
X0267100Y0051354D02*
X0272591Y0051354D01*
X0272591Y0049755D02*
X0267100Y0049755D01*
X0267100Y0048157D02*
X0272591Y0048157D01*
X0272591Y0046558D02*
X0267100Y0046558D01*
X0267100Y0044960D02*
X0272591Y0044960D01*
X0272591Y0043361D02*
X0267100Y0043361D01*
X0267100Y0041763D02*
X0272591Y0041763D01*
X0272591Y0040164D02*
X0267100Y0040164D01*
X0267100Y0038566D02*
X0272591Y0038566D01*
X0272591Y0036967D02*
X0267100Y0036967D01*
X0267100Y0035369D02*
X0272591Y0035369D01*
X0272591Y0033770D02*
X0267100Y0033770D01*
X0267100Y0032172D02*
X0272591Y0032172D01*
X0272591Y0030573D02*
X0267100Y0030573D01*
X0267100Y0028975D02*
X0272591Y0028975D01*
X0272591Y0027376D02*
X0267100Y0027376D01*
X0267100Y0025778D02*
X0272591Y0025778D01*
X0272591Y0024179D02*
X0267100Y0024179D01*
X0267100Y0022581D02*
X0272591Y0022581D01*
X0272591Y0020982D02*
X0267100Y0020982D01*
X0267100Y0019384D02*
X0272591Y0019384D01*
X0272591Y0017785D02*
X0267100Y0017785D01*
X0267100Y0016187D02*
X0272591Y0016187D01*
X0272591Y0014588D02*
X0267100Y0014588D01*
X0266788Y0012990D02*
X0272591Y0012990D01*
X0272591Y0011391D02*
X0006600Y0011391D01*
X0006600Y0009793D02*
X0272591Y0009793D01*
X0272591Y0008194D02*
X0006600Y0008194D01*
X0006600Y0006600D02*
X0006600Y0213535D01*
X0272591Y0213535D01*
X0272591Y0006600D01*
X0006600Y0006600D01*
X0023900Y0057748D02*
X0024700Y0057748D01*
X0024700Y0059346D02*
X0023900Y0059346D01*
X0023805Y0060945D02*
X0024795Y0060945D01*
X0050269Y0081726D02*
X0058335Y0081726D01*
X0057617Y0083324D02*
X0048670Y0083324D01*
X0047072Y0084923D02*
X0057600Y0084923D01*
X0061800Y0113696D02*
X0061800Y0113696D01*
X0061800Y0115294D02*
X0061800Y0115294D01*
X0061800Y0116893D02*
X0061800Y0116893D01*
X0076025Y0118491D02*
X0077575Y0118491D01*
X0081750Y0115294D02*
X0134000Y0115294D01*
X0134000Y0113696D02*
X0081943Y0113696D01*
X0093600Y0140870D02*
X0094587Y0140870D01*
X0101800Y0146600D02*
X0101800Y0151800D01*
X0091800Y0161800D01*
X0091800Y0174300D01*
X0087200Y0174439D02*
X0086400Y0174439D01*
X0086400Y0172841D02*
X0087200Y0172841D01*
X0087200Y0171242D02*
X0086400Y0171242D01*
X0086093Y0169644D02*
X0087507Y0169644D01*
X0088549Y0168045D02*
X0085051Y0168045D01*
X0084200Y0166447D02*
X0089400Y0166447D01*
X0089400Y0164848D02*
X0084200Y0164848D01*
X0084200Y0163250D02*
X0089400Y0163250D01*
X0089300Y0159300D02*
X0084300Y0159300D01*
X0081800Y0161800D01*
X0081800Y0174300D01*
X0086400Y0176038D02*
X0087200Y0176038D01*
X0087200Y0177636D02*
X0086400Y0177636D01*
X0085978Y0179235D02*
X0087622Y0179235D01*
X0088828Y0180833D02*
X0084772Y0180833D01*
X0078828Y0180833D02*
X0074227Y0180833D01*
X0072629Y0179235D02*
X0077622Y0179235D01*
X0077200Y0177636D02*
X0071030Y0177636D01*
X0069432Y0176038D02*
X0077200Y0176038D01*
X0077200Y0174439D02*
X0067833Y0174439D01*
X0066235Y0172841D02*
X0077200Y0172841D01*
X0077200Y0171242D02*
X0064636Y0171242D01*
X0064200Y0169644D02*
X0077507Y0169644D01*
X0078549Y0168045D02*
X0064200Y0168045D01*
X0064200Y0166447D02*
X0079400Y0166447D01*
X0079400Y0164848D02*
X0064200Y0164848D01*
X0064200Y0163250D02*
X0079400Y0163250D01*
X0079400Y0161651D02*
X0064200Y0161651D01*
X0064200Y0160053D02*
X0080153Y0160053D01*
X0081752Y0158454D02*
X0064200Y0158454D01*
X0064200Y0156856D02*
X0064210Y0156856D01*
X0059400Y0156856D02*
X0059200Y0156856D01*
X0059200Y0158454D02*
X0059400Y0158454D01*
X0059400Y0160053D02*
X0059200Y0160053D01*
X0059200Y0161651D02*
X0059400Y0161651D01*
X0059400Y0163250D02*
X0059200Y0163250D01*
X0059200Y0164848D02*
X0059400Y0164848D01*
X0059400Y0166447D02*
X0059200Y0166447D01*
X0059200Y0168045D02*
X0059400Y0168045D01*
X0059400Y0169644D02*
X0059200Y0169644D01*
X0059200Y0171242D02*
X0059400Y0171242D01*
X0059200Y0172841D02*
X0059633Y0172841D01*
X0060333Y0174439D02*
X0061045Y0174439D01*
X0061932Y0176038D02*
X0062644Y0176038D01*
X0063530Y0177636D02*
X0064242Y0177636D01*
X0065129Y0179235D02*
X0065841Y0179235D01*
X0066727Y0180833D02*
X0067439Y0180833D01*
X0068326Y0182432D02*
X0069038Y0182432D01*
X0069924Y0184030D02*
X0070636Y0184030D01*
X0071523Y0185629D02*
X0072235Y0185629D01*
X0073121Y0187227D02*
X0073833Y0187227D01*
X0074200Y0188826D02*
X0075432Y0188826D01*
X0074200Y0190424D02*
X0077030Y0190424D01*
X0078629Y0192023D02*
X0074200Y0192023D01*
X0074200Y0193621D02*
X0079400Y0193621D01*
X0078875Y0195220D02*
X0074725Y0195220D01*
X0075958Y0196818D02*
X0077642Y0196818D01*
X0077200Y0198417D02*
X0076400Y0198417D01*
X0076400Y0200015D02*
X0077200Y0200015D01*
X0077200Y0201614D02*
X0076400Y0201614D01*
X0076400Y0203212D02*
X0077200Y0203212D01*
X0077200Y0204811D02*
X0076400Y0204811D01*
X0076112Y0206409D02*
X0077488Y0206409D01*
X0078503Y0208008D02*
X0075097Y0208008D01*
X0068503Y0208008D02*
X0065097Y0208008D01*
X0066112Y0206409D02*
X0067488Y0206409D01*
X0067200Y0204811D02*
X0066400Y0204811D01*
X0066400Y0203212D02*
X0067200Y0203212D01*
X0067200Y0201614D02*
X0066400Y0201614D01*
X0066400Y0200015D02*
X0067200Y0200015D01*
X0067200Y0198417D02*
X0066400Y0198417D01*
X0065958Y0196818D02*
X0067642Y0196818D01*
X0068875Y0195220D02*
X0064725Y0195220D01*
X0064200Y0193621D02*
X0069400Y0193621D01*
X0069400Y0192023D02*
X0064200Y0192023D01*
X0064200Y0190424D02*
X0069400Y0190424D01*
X0067932Y0188826D02*
X0064200Y0188826D01*
X0064200Y0187227D02*
X0066333Y0187227D01*
X0064735Y0185629D02*
X0063913Y0185629D01*
X0063136Y0184030D02*
X0062424Y0184030D01*
X0061538Y0182432D02*
X0060826Y0182432D01*
X0059939Y0180833D02*
X0059227Y0180833D01*
X0058341Y0179235D02*
X0057629Y0179235D01*
X0056742Y0177636D02*
X0056030Y0177636D01*
X0055144Y0176038D02*
X0054432Y0176038D01*
X0054400Y0174439D02*
X0054200Y0174439D01*
X0054200Y0172841D02*
X0054400Y0172841D01*
X0054400Y0171242D02*
X0054200Y0171242D01*
X0054200Y0169644D02*
X0054400Y0169644D01*
X0054400Y0168045D02*
X0054200Y0168045D01*
X0054200Y0166447D02*
X0054400Y0166447D01*
X0054400Y0164848D02*
X0054200Y0164848D01*
X0054200Y0163250D02*
X0054400Y0163250D01*
X0054400Y0161651D02*
X0054200Y0161651D01*
X0054200Y0160053D02*
X0054400Y0160053D01*
X0054400Y0158454D02*
X0054200Y0158454D01*
X0054200Y0156856D02*
X0054400Y0156856D01*
X0049400Y0156856D02*
X0049200Y0156856D01*
X0049200Y0158454D02*
X0049400Y0158454D01*
X0049400Y0160053D02*
X0049200Y0160053D01*
X0049200Y0161651D02*
X0049400Y0161651D01*
X0049400Y0163250D02*
X0049200Y0163250D01*
X0049200Y0164848D02*
X0049400Y0164848D01*
X0049400Y0166447D02*
X0049200Y0166447D01*
X0049200Y0168045D02*
X0049400Y0168045D01*
X0049400Y0169644D02*
X0049200Y0169644D01*
X0049200Y0171242D02*
X0049400Y0171242D01*
X0049400Y0172841D02*
X0049200Y0172841D01*
X0049200Y0174439D02*
X0049400Y0174439D01*
X0049400Y0176038D02*
X0049200Y0176038D01*
X0049200Y0177636D02*
X0049549Y0177636D01*
X0050129Y0179235D02*
X0050841Y0179235D01*
X0051727Y0180833D02*
X0052439Y0180833D01*
X0053326Y0182432D02*
X0054038Y0182432D01*
X0054200Y0184030D02*
X0055636Y0184030D01*
X0054200Y0185629D02*
X0057235Y0185629D01*
X0058833Y0187227D02*
X0054200Y0187227D01*
X0054200Y0188826D02*
X0059400Y0188826D01*
X0059400Y0190424D02*
X0054200Y0190424D01*
X0054200Y0192023D02*
X0059400Y0192023D01*
X0059400Y0193621D02*
X0054200Y0193621D01*
X0054725Y0195220D02*
X0058875Y0195220D01*
X0057642Y0196818D02*
X0055958Y0196818D01*
X0056400Y0198417D02*
X0057200Y0198417D01*
X0057200Y0200015D02*
X0056400Y0200015D01*
X0056400Y0201614D02*
X0057200Y0201614D01*
X0057200Y0203212D02*
X0056400Y0203212D01*
X0056400Y0204811D02*
X0057200Y0204811D01*
X0057488Y0206409D02*
X0056112Y0206409D01*
X0055097Y0208008D02*
X0058503Y0208008D01*
X0061800Y0201800D02*
X0061800Y0186800D01*
X0051800Y0176800D01*
X0051800Y0151600D01*
X0046800Y0151600D02*
X0046800Y0179300D01*
X0051800Y0184300D01*
X0051800Y0201800D01*
X0047200Y0201614D02*
X0046400Y0201614D01*
X0046400Y0203212D02*
X0047200Y0203212D01*
X0047200Y0204811D02*
X0046400Y0204811D01*
X0046112Y0206409D02*
X0047488Y0206409D01*
X0048503Y0208008D02*
X0045097Y0208008D01*
X0038503Y0208008D02*
X0035097Y0208008D01*
X0036112Y0206409D02*
X0037488Y0206409D01*
X0037200Y0204811D02*
X0036400Y0204811D01*
X0036400Y0203212D02*
X0037200Y0203212D01*
X0037200Y0201614D02*
X0036400Y0201614D01*
X0036400Y0200015D02*
X0037200Y0200015D01*
X0037200Y0198417D02*
X0036400Y0198417D01*
X0035958Y0196818D02*
X0037642Y0196818D01*
X0038875Y0195220D02*
X0034725Y0195220D01*
X0034200Y0193621D02*
X0039400Y0193621D01*
X0039400Y0192023D02*
X0034200Y0192023D01*
X0034200Y0190424D02*
X0039400Y0190424D01*
X0039400Y0188826D02*
X0034200Y0188826D01*
X0034200Y0187227D02*
X0039400Y0187227D01*
X0039400Y0185629D02*
X0034200Y0185629D01*
X0035464Y0184030D02*
X0039400Y0184030D01*
X0039400Y0182432D02*
X0037062Y0182432D01*
X0038661Y0180833D02*
X0039400Y0180833D01*
X0039400Y0179235D02*
X0039200Y0179235D01*
X0039200Y0177636D02*
X0039400Y0177636D01*
X0039400Y0176038D02*
X0039200Y0176038D01*
X0039200Y0174439D02*
X0039400Y0174439D01*
X0039400Y0172841D02*
X0039200Y0172841D01*
X0039200Y0171242D02*
X0039400Y0171242D01*
X0039400Y0169644D02*
X0039200Y0169644D01*
X0039200Y0168045D02*
X0039400Y0168045D01*
X0039400Y0166447D02*
X0039200Y0166447D01*
X0039200Y0164848D02*
X0039400Y0164848D01*
X0039400Y0163250D02*
X0039200Y0163250D01*
X0039200Y0161651D02*
X0039400Y0161651D01*
X0039400Y0160053D02*
X0039200Y0160053D01*
X0039200Y0158454D02*
X0039400Y0158454D01*
X0039400Y0156856D02*
X0039200Y0156856D01*
X0034400Y0156856D02*
X0034200Y0156856D01*
X0034200Y0158454D02*
X0034400Y0158454D01*
X0034400Y0160053D02*
X0034200Y0160053D01*
X0034200Y0161651D02*
X0034400Y0161651D01*
X0034400Y0163250D02*
X0034200Y0163250D01*
X0034200Y0164848D02*
X0034400Y0164848D01*
X0034400Y0166447D02*
X0034200Y0166447D01*
X0034200Y0168045D02*
X0034400Y0168045D01*
X0034400Y0169644D02*
X0034200Y0169644D01*
X0034200Y0171242D02*
X0034400Y0171242D01*
X0034400Y0172841D02*
X0034200Y0172841D01*
X0034200Y0174439D02*
X0034400Y0174439D01*
X0034400Y0176038D02*
X0034200Y0176038D01*
X0034051Y0177636D02*
X0034400Y0177636D01*
X0033471Y0179235D02*
X0032759Y0179235D01*
X0031873Y0180833D02*
X0031161Y0180833D01*
X0030274Y0182432D02*
X0029562Y0182432D01*
X0029400Y0184030D02*
X0027964Y0184030D01*
X0029400Y0185629D02*
X0026365Y0185629D01*
X0024767Y0187227D02*
X0029400Y0187227D01*
X0029400Y0188826D02*
X0024200Y0188826D01*
X0024200Y0190424D02*
X0029400Y0190424D01*
X0029400Y0192023D02*
X0024200Y0192023D01*
X0024200Y0193621D02*
X0029400Y0193621D01*
X0028875Y0195220D02*
X0024725Y0195220D01*
X0025958Y0196818D02*
X0027642Y0196818D01*
X0027200Y0198417D02*
X0026400Y0198417D01*
X0026400Y0200015D02*
X0027200Y0200015D01*
X0027200Y0201614D02*
X0026400Y0201614D01*
X0026400Y0203212D02*
X0027200Y0203212D01*
X0027200Y0204811D02*
X0026400Y0204811D01*
X0026112Y0206409D02*
X0027488Y0206409D01*
X0028503Y0208008D02*
X0025097Y0208008D01*
X0018503Y0208008D02*
X0015097Y0208008D01*
X0016112Y0206409D02*
X0017488Y0206409D01*
X0017200Y0204811D02*
X0016400Y0204811D01*
X0016400Y0203212D02*
X0017200Y0203212D01*
X0017200Y0201614D02*
X0016400Y0201614D01*
X0016400Y0200015D02*
X0017200Y0200015D01*
X0017200Y0198417D02*
X0016400Y0198417D01*
X0015958Y0196818D02*
X0017642Y0196818D01*
X0018875Y0195220D02*
X0014725Y0195220D01*
X0014200Y0193621D02*
X0019400Y0193621D01*
X0019400Y0192023D02*
X0014200Y0192023D01*
X0014200Y0190424D02*
X0019400Y0190424D01*
X0019400Y0188826D02*
X0015668Y0188826D01*
X0017267Y0187227D02*
X0019400Y0187227D01*
X0019687Y0185629D02*
X0018865Y0185629D01*
X0020464Y0184030D02*
X0021176Y0184030D01*
X0022062Y0182432D02*
X0022774Y0182432D01*
X0023661Y0180833D02*
X0024373Y0180833D01*
X0025259Y0179235D02*
X0025971Y0179235D01*
X0026858Y0177636D02*
X0027570Y0177636D01*
X0028456Y0176038D02*
X0029168Y0176038D01*
X0029200Y0174439D02*
X0029400Y0174439D01*
X0029400Y0172841D02*
X0029200Y0172841D01*
X0029200Y0171242D02*
X0029400Y0171242D01*
X0029400Y0169644D02*
X0029200Y0169644D01*
X0029200Y0168045D02*
X0029400Y0168045D01*
X0029400Y0166447D02*
X0029200Y0166447D01*
X0029200Y0164848D02*
X0029400Y0164848D01*
X0029400Y0163250D02*
X0029200Y0163250D01*
X0029200Y0161651D02*
X0029400Y0161651D01*
X0029400Y0160053D02*
X0029200Y0160053D01*
X0029200Y0158454D02*
X0029400Y0158454D01*
X0029400Y0156856D02*
X0029200Y0156856D01*
X0024400Y0156856D02*
X0024390Y0156856D01*
X0024400Y0158454D02*
X0006600Y0158454D01*
X0006600Y0156856D02*
X0019210Y0156856D01*
X0019060Y0156705D02*
X0018823Y0156295D01*
X0018700Y0155837D01*
X0018700Y0151600D01*
X0021800Y0151600D01*
X0021800Y0151600D01*
X0021800Y0151600D01*
X0021800Y0157400D01*
X0020263Y0157400D01*
X0019805Y0157277D01*
X0019395Y0157040D01*
X0019060Y0156705D01*
X0018700Y0155257D02*
X0006600Y0155257D01*
X0006600Y0153659D02*
X0018700Y0153659D01*
X0018700Y0152060D02*
X0006600Y0152060D01*
X0006600Y0150462D02*
X0018700Y0150462D01*
X0018700Y0151600D02*
X0018700Y0147363D01*
X0018823Y0146905D01*
X0019060Y0146495D01*
X0019395Y0146160D01*
X0019805Y0145923D01*
X0020263Y0145800D01*
X0021800Y0145800D01*
X0021800Y0151600D01*
X0018700Y0151600D01*
X0018700Y0148863D02*
X0006600Y0148863D01*
X0006600Y0147265D02*
X0018726Y0147265D01*
X0021800Y0147265D02*
X0021800Y0147265D01*
X0021800Y0148863D02*
X0021800Y0148863D01*
X0021800Y0150462D02*
X0021800Y0150462D01*
X0021800Y0152060D02*
X0021800Y0152060D01*
X0021800Y0153659D02*
X0021800Y0153659D01*
X0021800Y0155257D02*
X0021800Y0155257D01*
X0021800Y0156856D02*
X0021800Y0156856D01*
X0024400Y0160053D02*
X0006600Y0160053D01*
X0006600Y0161651D02*
X0024400Y0161651D01*
X0024400Y0163250D02*
X0006600Y0163250D01*
X0006600Y0164848D02*
X0024400Y0164848D01*
X0024400Y0166447D02*
X0006600Y0166447D01*
X0006600Y0168045D02*
X0024400Y0168045D01*
X0024400Y0169644D02*
X0006600Y0169644D01*
X0006600Y0171242D02*
X0024400Y0171242D01*
X0024400Y0172841D02*
X0006600Y0172841D01*
X0006600Y0174439D02*
X0023267Y0174439D01*
X0021668Y0176038D02*
X0006600Y0176038D01*
X0006600Y0177636D02*
X0020070Y0177636D01*
X0018471Y0179235D02*
X0006600Y0179235D01*
X0006600Y0180833D02*
X0016873Y0180833D01*
X0015274Y0182432D02*
X0006600Y0182432D01*
X0006600Y0184030D02*
X0013676Y0184030D01*
X0012077Y0185629D02*
X0006600Y0185629D01*
X0006600Y0187227D02*
X0010479Y0187227D01*
X0009400Y0188826D02*
X0006600Y0188826D01*
X0006600Y0190424D02*
X0009400Y0190424D01*
X0009400Y0192023D02*
X0006600Y0192023D01*
X0006600Y0193621D02*
X0009400Y0193621D01*
X0008875Y0195220D02*
X0006600Y0195220D01*
X0006600Y0196818D02*
X0007642Y0196818D01*
X0007200Y0198417D02*
X0006600Y0198417D01*
X0006600Y0200015D02*
X0007200Y0200015D01*
X0007200Y0201614D02*
X0006600Y0201614D01*
X0006600Y0203212D02*
X0007200Y0203212D01*
X0007200Y0204811D02*
X0006600Y0204811D01*
X0006600Y0206409D02*
X0007488Y0206409D01*
X0006600Y0208008D02*
X0008503Y0208008D01*
X0006600Y0209606D02*
X0272591Y0209606D01*
X0272591Y0208008D02*
X0235097Y0208008D01*
X0235700Y0207406D02*
X0234406Y0208700D01*
X0232715Y0209400D01*
X0230885Y0209400D01*
X0229194Y0208700D01*
X0227900Y0207406D01*
X0227200Y0205715D01*
X0227200Y0197885D01*
X0227900Y0196194D01*
X0229194Y0194900D01*
X0229400Y0194815D01*
X0229400Y0192794D01*
X0209765Y0173159D01*
X0209400Y0172277D01*
X0209400Y0154263D01*
X0209300Y0154163D01*
X0209200Y0154263D01*
X0209200Y0173306D01*
X0223835Y0187941D01*
X0224200Y0188823D01*
X0224200Y0194815D01*
X0224406Y0194900D01*
X0225700Y0196194D01*
X0226400Y0197885D01*
X0226400Y0205715D01*
X0225700Y0207406D01*
X0224406Y0208700D01*
X0222715Y0209400D01*
X0220885Y0209400D01*
X0219194Y0208700D01*
X0217900Y0207406D01*
X0217200Y0205715D01*
X0217200Y0197885D01*
X0217900Y0196194D01*
X0219194Y0194900D01*
X0219400Y0194815D01*
X0219400Y0190294D01*
X0204765Y0175659D01*
X0204400Y0174777D01*
X0204400Y0154263D01*
X0204300Y0154163D01*
X0204200Y0154263D01*
X0204200Y0175806D01*
X0213159Y0184765D01*
X0213835Y0185441D01*
X0214200Y0186323D01*
X0214200Y0194815D01*
X0214406Y0194900D01*
X0215700Y0196194D01*
X0216400Y0197885D01*
X0216400Y0205715D01*
X0215700Y0207406D01*
X0214406Y0208700D01*
X0212715Y0209400D01*
X0210885Y0209400D01*
X0209194Y0208700D01*
X0207900Y0207406D01*
X0207200Y0205715D01*
X0207200Y0197885D01*
X0207900Y0196194D01*
X0209194Y0194900D01*
X0209400Y0194815D01*
X0209400Y0187794D01*
X0199765Y0178159D01*
X0199400Y0177277D01*
X0199400Y0154263D01*
X0199300Y0154163D01*
X0199200Y0154263D01*
X0199200Y0180806D01*
X0203159Y0184765D01*
X0203835Y0185441D01*
X0204200Y0186323D01*
X0204200Y0194815D01*
X0204406Y0194900D01*
X0205700Y0196194D01*
X0206400Y0197885D01*
X0206400Y0205715D01*
X0205700Y0207406D01*
X0204406Y0208700D01*
X0202715Y0209400D01*
X0200885Y0209400D01*
X0199194Y0208700D01*
X0197900Y0207406D01*
X0197200Y0205715D01*
X0197200Y0197885D01*
X0197900Y0196194D01*
X0199194Y0194900D01*
X0199400Y0194815D01*
X0199400Y0187794D01*
X0194765Y0183159D01*
X0194400Y0182277D01*
X0194400Y0154263D01*
X0194300Y0154163D01*
X0194200Y0154263D01*
X0194200Y0194815D01*
X0194406Y0194900D01*
X0195700Y0196194D01*
X0196400Y0197885D01*
X0196400Y0205715D01*
X0195700Y0207406D01*
X0194406Y0208700D01*
X0192715Y0209400D01*
X0190885Y0209400D01*
X0189194Y0208700D01*
X0187900Y0207406D01*
X0187200Y0205715D01*
X0187200Y0197885D01*
X0187900Y0196194D01*
X0189194Y0194900D01*
X0189400Y0194815D01*
X0189400Y0154263D01*
X0189300Y0154163D01*
X0189200Y0154263D01*
X0189200Y0182277D01*
X0188835Y0183159D01*
X0184200Y0187794D01*
X0184200Y0194815D01*
X0184406Y0194900D01*
X0185700Y0196194D01*
X0186400Y0197885D01*
X0186400Y0205715D01*
X0185700Y0207406D01*
X0184406Y0208700D01*
X0182715Y0209400D01*
X0180885Y0209400D01*
X0179194Y0208700D01*
X0177900Y0207406D01*
X0177200Y0205715D01*
X0177200Y0197885D01*
X0177900Y0196194D01*
X0179194Y0194900D01*
X0179400Y0194815D01*
X0179400Y0186323D01*
X0179765Y0185441D01*
X0180441Y0184765D01*
X0184400Y0180806D01*
X0184400Y0154263D01*
X0184300Y0154163D01*
X0184200Y0154263D01*
X0184200Y0177277D01*
X0183835Y0178159D01*
X0174200Y0187794D01*
X0174200Y0194815D01*
X0174406Y0194900D01*
X0175700Y0196194D01*
X0176400Y0197885D01*
X0176400Y0205715D01*
X0175700Y0207406D01*
X0174406Y0208700D01*
X0172715Y0209400D01*
X0170885Y0209400D01*
X0169194Y0208700D01*
X0167900Y0207406D01*
X0167200Y0205715D01*
X0167200Y0197885D01*
X0167900Y0196194D01*
X0169194Y0194900D01*
X0169400Y0194815D01*
X0169400Y0186323D01*
X0169765Y0185441D01*
X0170441Y0184765D01*
X0179400Y0175806D01*
X0179400Y0154263D01*
X0179300Y0154163D01*
X0179200Y0154263D01*
X0179200Y0174777D01*
X0178835Y0175659D01*
X0164200Y0190294D01*
X0164200Y0194815D01*
X0164406Y0194900D01*
X0165700Y0196194D01*
X0166400Y0197885D01*
X0166400Y0205715D01*
X0165700Y0207406D01*
X0164406Y0208700D01*
X0162715Y0209400D01*
X0160885Y0209400D01*
X0159194Y0208700D01*
X0157900Y0207406D01*
X0157200Y0205715D01*
X0157200Y0197885D01*
X0157900Y0196194D01*
X0159194Y0194900D01*
X0159400Y0194815D01*
X0159400Y0188823D01*
X0159765Y0187941D01*
X0160441Y0187265D01*
X0174400Y0173306D01*
X0174400Y0154346D01*
X0174205Y0154540D01*
X0173795Y0154777D01*
X0173337Y0154900D01*
X0171800Y0154900D01*
X0171800Y0149100D01*
X0171800Y0149100D01*
X0171800Y0143300D01*
X0173337Y0143300D01*
X0173795Y0143423D01*
X0174205Y0143660D01*
X0174441Y0143896D01*
X0174837Y0143500D01*
X0178763Y0143500D01*
X0179300Y0144037D01*
X0179837Y0143500D01*
X0183763Y0143500D01*
X0184300Y0144037D01*
X0184837Y0143500D01*
X0188763Y0143500D01*
X0189300Y0144037D01*
X0189837Y0143500D01*
X0193763Y0143500D01*
X0194300Y0144037D01*
X0194837Y0143500D01*
X0198763Y0143500D01*
X0199300Y0144037D01*
X0199837Y0143500D01*
X0203763Y0143500D01*
X0204300Y0144037D01*
X0204837Y0143500D01*
X0208763Y0143500D01*
X0209300Y0144037D01*
X0209837Y0143500D01*
X0213763Y0143500D01*
X0214159Y0143896D01*
X0214395Y0143660D01*
X0214805Y0143423D01*
X0215263Y0143300D01*
X0216800Y0143300D01*
X0218337Y0143300D01*
X0218795Y0143423D01*
X0219205Y0143660D01*
X0219540Y0143995D01*
X0219777Y0144405D01*
X0219900Y0144863D01*
X0219900Y0149100D01*
X0219900Y0153337D01*
X0219777Y0153795D01*
X0219540Y0154205D01*
X0219205Y0154540D01*
X0218795Y0154777D01*
X0218337Y0154900D01*
X0216800Y0154900D01*
X0216800Y0149100D01*
X0216800Y0149100D01*
X0219900Y0149100D01*
X0216800Y0149100D01*
X0216800Y0149100D01*
X0216800Y0154900D01*
X0215263Y0154900D01*
X0214805Y0154777D01*
X0214395Y0154540D01*
X0214200Y0154346D01*
X0214200Y0170806D01*
X0233159Y0189765D01*
X0233835Y0190441D01*
X0234200Y0191323D01*
X0234200Y0194815D01*
X0234406Y0194900D01*
X0235700Y0196194D01*
X0236400Y0197885D01*
X0236400Y0205715D01*
X0235700Y0207406D01*
X0236112Y0206409D02*
X0272591Y0206409D01*
X0272591Y0204811D02*
X0236400Y0204811D01*
X0236400Y0203212D02*
X0272591Y0203212D01*
X0272591Y0201614D02*
X0236400Y0201614D01*
X0236400Y0200015D02*
X0272591Y0200015D01*
X0272591Y0198417D02*
X0236400Y0198417D01*
X0235958Y0196818D02*
X0272591Y0196818D01*
X0272591Y0195220D02*
X0234725Y0195220D01*
X0234200Y0193621D02*
X0272591Y0193621D01*
X0272591Y0192023D02*
X0234200Y0192023D01*
X0233818Y0190424D02*
X0272591Y0190424D01*
X0272591Y0188826D02*
X0232220Y0188826D01*
X0230621Y0187227D02*
X0272591Y0187227D01*
X0272591Y0185629D02*
X0229023Y0185629D01*
X0227424Y0184030D02*
X0272591Y0184030D01*
X0272591Y0182432D02*
X0255674Y0182432D01*
X0256200Y0181906D02*
X0254906Y0183200D01*
X0253215Y0183900D01*
X0245385Y0183900D01*
X0243694Y0183200D01*
X0242400Y0181906D01*
X0241700Y0180215D01*
X0241700Y0178385D01*
X0242400Y0176694D01*
X0243694Y0175400D01*
X0245385Y0174700D01*
X0253215Y0174700D01*
X0254906Y0175400D01*
X0256200Y0176694D01*
X0256900Y0178385D01*
X0256900Y0180215D01*
X0256200Y0181906D01*
X0256644Y0180833D02*
X0272591Y0180833D01*
X0272591Y0179235D02*
X0256900Y0179235D01*
X0256590Y0177636D02*
X0272591Y0177636D01*
X0272591Y0176038D02*
X0255543Y0176038D01*
X0254143Y0173748D02*
X0253424Y0173982D01*
X0252678Y0174100D01*
X0249500Y0174100D01*
X0249500Y0169500D01*
X0249100Y0169500D01*
X0249100Y0174100D01*
X0245922Y0174100D01*
X0245176Y0173982D01*
X0244457Y0173748D01*
X0243784Y0173405D01*
X0243173Y0172961D01*
X0242639Y0172427D01*
X0242195Y0171816D01*
X0241852Y0171143D01*
X0241618Y0170424D01*
X0241500Y0169678D01*
X0241500Y0169500D01*
X0249100Y0169500D01*
X0249100Y0169100D01*
X0249500Y0169100D01*
X0249500Y0169500D01*
X0257100Y0169500D01*
X0257100Y0169678D01*
X0256982Y0170424D01*
X0256748Y0171143D01*
X0256405Y0171816D01*
X0255961Y0172427D01*
X0255427Y0172961D01*
X0254816Y0173405D01*
X0254143Y0173748D01*
X0255547Y0172841D02*
X0272591Y0172841D01*
X0272591Y0174439D02*
X0217833Y0174439D01*
X0216235Y0172841D02*
X0243052Y0172841D01*
X0241902Y0171242D02*
X0214636Y0171242D01*
X0214200Y0169644D02*
X0241500Y0169644D01*
X0241500Y0169100D02*
X0241500Y0168922D01*
X0241618Y0168176D01*
X0241852Y0167457D01*
X0242195Y0166784D01*
X0242639Y0166173D01*
X0243173Y0165639D01*
X0243784Y0165195D01*
X0244457Y0164852D01*
X0245176Y0164618D01*
X0245922Y0164500D01*
X0249100Y0164500D01*
X0249100Y0169100D01*
X0241500Y0169100D01*
X0241661Y0168045D02*
X0214200Y0168045D01*
X0214200Y0166447D02*
X0242440Y0166447D01*
X0244468Y0164848D02*
X0214200Y0164848D01*
X0214200Y0163250D02*
X0243815Y0163250D01*
X0242295Y0161651D02*
X0214200Y0161651D01*
X0214200Y0160053D02*
X0241700Y0160053D01*
X0241700Y0158454D02*
X0214200Y0158454D01*
X0214200Y0156856D02*
X0242333Y0156856D01*
X0244040Y0155257D02*
X0214200Y0155257D01*
X0216800Y0153659D02*
X0216800Y0153659D01*
X0216800Y0152060D02*
X0216800Y0152060D01*
X0216800Y0150462D02*
X0216800Y0150462D01*
X0216800Y0149100D02*
X0216800Y0143300D01*
X0216800Y0149100D01*
X0216800Y0149100D01*
X0216800Y0148863D02*
X0216800Y0148863D01*
X0216800Y0147265D02*
X0216800Y0147265D01*
X0216800Y0145666D02*
X0216800Y0145666D01*
X0216800Y0144068D02*
X0216800Y0144068D01*
X0219582Y0144068D02*
X0246500Y0144068D01*
X0246500Y0145666D02*
X0219900Y0145666D01*
X0219900Y0147265D02*
X0246500Y0147265D01*
X0246500Y0148863D02*
X0219900Y0148863D01*
X0219900Y0150462D02*
X0246500Y0150462D01*
X0246500Y0152060D02*
X0219900Y0152060D01*
X0219814Y0153659D02*
X0246500Y0153659D01*
X0252100Y0153659D02*
X0272591Y0153659D01*
X0272591Y0155257D02*
X0254560Y0155257D01*
X0256266Y0156856D02*
X0272591Y0156856D01*
X0272591Y0158454D02*
X0256900Y0158454D01*
X0256900Y0160053D02*
X0272591Y0160053D01*
X0272591Y0161651D02*
X0256305Y0161651D01*
X0254785Y0163250D02*
X0272591Y0163250D01*
X0272591Y0164848D02*
X0254132Y0164848D01*
X0254143Y0164852D02*
X0254816Y0165195D01*
X0255427Y0165639D01*
X0255961Y0166173D01*
X0256405Y0166784D01*
X0256748Y0167457D01*
X0256982Y0168176D01*
X0257100Y0168922D01*
X0257100Y0169100D01*
X0249500Y0169100D01*
X0249500Y0164500D01*
X0252678Y0164500D01*
X0253424Y0164618D01*
X0254143Y0164852D01*
X0256160Y0166447D02*
X0272591Y0166447D01*
X0272591Y0168045D02*
X0256939Y0168045D01*
X0257100Y0169644D02*
X0272591Y0169644D01*
X0272591Y0171242D02*
X0256698Y0171242D01*
X0249500Y0171242D02*
X0249100Y0171242D01*
X0249100Y0169644D02*
X0249500Y0169644D01*
X0249500Y0168045D02*
X0249100Y0168045D01*
X0249100Y0166447D02*
X0249500Y0166447D01*
X0249500Y0164848D02*
X0249100Y0164848D01*
X0249100Y0172841D02*
X0249500Y0172841D01*
X0243057Y0176038D02*
X0219432Y0176038D01*
X0221030Y0177636D02*
X0242010Y0177636D01*
X0241700Y0179235D02*
X0222629Y0179235D01*
X0224227Y0180833D02*
X0241956Y0180833D01*
X0242926Y0182432D02*
X0225826Y0182432D01*
X0222235Y0185629D02*
X0221523Y0185629D01*
X0220636Y0184030D02*
X0219924Y0184030D01*
X0219038Y0182432D02*
X0218326Y0182432D01*
X0217439Y0180833D02*
X0216727Y0180833D01*
X0215841Y0179235D02*
X0215129Y0179235D01*
X0214242Y0177636D02*
X0213530Y0177636D01*
X0212644Y0176038D02*
X0211932Y0176038D01*
X0211045Y0174439D02*
X0210333Y0174439D01*
X0209633Y0172841D02*
X0209200Y0172841D01*
X0209200Y0171242D02*
X0209400Y0171242D01*
X0209400Y0169644D02*
X0209200Y0169644D01*
X0209200Y0168045D02*
X0209400Y0168045D01*
X0209400Y0166447D02*
X0209200Y0166447D01*
X0209200Y0164848D02*
X0209400Y0164848D01*
X0209400Y0163250D02*
X0209200Y0163250D01*
X0209200Y0161651D02*
X0209400Y0161651D01*
X0209400Y0160053D02*
X0209200Y0160053D01*
X0209200Y0158454D02*
X0209400Y0158454D01*
X0209400Y0156856D02*
X0209200Y0156856D01*
X0209200Y0155257D02*
X0209400Y0155257D01*
X0204400Y0155257D02*
X0204200Y0155257D01*
X0204200Y0156856D02*
X0204400Y0156856D01*
X0204400Y0158454D02*
X0204200Y0158454D01*
X0204200Y0160053D02*
X0204400Y0160053D01*
X0204400Y0161651D02*
X0204200Y0161651D01*
X0204200Y0163250D02*
X0204400Y0163250D01*
X0204400Y0164848D02*
X0204200Y0164848D01*
X0204200Y0166447D02*
X0204400Y0166447D01*
X0204400Y0168045D02*
X0204200Y0168045D01*
X0204200Y0169644D02*
X0204400Y0169644D01*
X0204400Y0171242D02*
X0204200Y0171242D01*
X0204200Y0172841D02*
X0204400Y0172841D01*
X0204400Y0174439D02*
X0204200Y0174439D01*
X0204432Y0176038D02*
X0205144Y0176038D01*
X0206030Y0177636D02*
X0206742Y0177636D01*
X0207629Y0179235D02*
X0208341Y0179235D01*
X0209227Y0180833D02*
X0209939Y0180833D01*
X0210826Y0182432D02*
X0211538Y0182432D01*
X0212424Y0184030D02*
X0213136Y0184030D01*
X0213913Y0185629D02*
X0214735Y0185629D01*
X0214200Y0187227D02*
X0216333Y0187227D01*
X0217932Y0188826D02*
X0214200Y0188826D01*
X0214200Y0190424D02*
X0219400Y0190424D01*
X0219400Y0192023D02*
X0214200Y0192023D01*
X0214200Y0193621D02*
X0219400Y0193621D01*
X0218875Y0195220D02*
X0214725Y0195220D01*
X0215958Y0196818D02*
X0217642Y0196818D01*
X0217200Y0198417D02*
X0216400Y0198417D01*
X0216400Y0200015D02*
X0217200Y0200015D01*
X0217200Y0201614D02*
X0216400Y0201614D01*
X0216400Y0203212D02*
X0217200Y0203212D01*
X0217200Y0204811D02*
X0216400Y0204811D01*
X0216112Y0206409D02*
X0217488Y0206409D01*
X0218503Y0208008D02*
X0215097Y0208008D01*
X0208503Y0208008D02*
X0205097Y0208008D01*
X0206112Y0206409D02*
X0207488Y0206409D01*
X0207200Y0204811D02*
X0206400Y0204811D01*
X0206400Y0203212D02*
X0207200Y0203212D01*
X0207200Y0201614D02*
X0206400Y0201614D01*
X0206400Y0200015D02*
X0207200Y0200015D01*
X0207200Y0198417D02*
X0206400Y0198417D01*
X0205958Y0196818D02*
X0207642Y0196818D01*
X0208875Y0195220D02*
X0204725Y0195220D01*
X0204200Y0193621D02*
X0209400Y0193621D01*
X0209400Y0192023D02*
X0204200Y0192023D01*
X0204200Y0190424D02*
X0209400Y0190424D01*
X0209400Y0188826D02*
X0204200Y0188826D01*
X0204200Y0187227D02*
X0208833Y0187227D01*
X0207235Y0185629D02*
X0203913Y0185629D01*
X0202424Y0184030D02*
X0205636Y0184030D01*
X0204038Y0182432D02*
X0200826Y0182432D01*
X0199227Y0180833D02*
X0202439Y0180833D01*
X0200841Y0179235D02*
X0199200Y0179235D01*
X0199200Y0177636D02*
X0199549Y0177636D01*
X0199400Y0176038D02*
X0199200Y0176038D01*
X0199200Y0174439D02*
X0199400Y0174439D01*
X0199400Y0172841D02*
X0199200Y0172841D01*
X0199200Y0171242D02*
X0199400Y0171242D01*
X0199400Y0169644D02*
X0199200Y0169644D01*
X0199200Y0168045D02*
X0199400Y0168045D01*
X0199400Y0166447D02*
X0199200Y0166447D01*
X0199200Y0164848D02*
X0199400Y0164848D01*
X0199400Y0163250D02*
X0199200Y0163250D01*
X0199200Y0161651D02*
X0199400Y0161651D01*
X0199400Y0160053D02*
X0199200Y0160053D01*
X0199200Y0158454D02*
X0199400Y0158454D01*
X0199400Y0156856D02*
X0199200Y0156856D01*
X0199200Y0155257D02*
X0199400Y0155257D01*
X0194400Y0155257D02*
X0194200Y0155257D01*
X0194200Y0156856D02*
X0194400Y0156856D01*
X0194400Y0158454D02*
X0194200Y0158454D01*
X0194200Y0160053D02*
X0194400Y0160053D01*
X0194400Y0161651D02*
X0194200Y0161651D01*
X0194200Y0163250D02*
X0194400Y0163250D01*
X0194400Y0164848D02*
X0194200Y0164848D01*
X0194200Y0166447D02*
X0194400Y0166447D01*
X0194400Y0168045D02*
X0194200Y0168045D01*
X0194200Y0169644D02*
X0194400Y0169644D01*
X0194400Y0171242D02*
X0194200Y0171242D01*
X0194200Y0172841D02*
X0194400Y0172841D01*
X0194400Y0174439D02*
X0194200Y0174439D01*
X0194200Y0176038D02*
X0194400Y0176038D01*
X0194400Y0177636D02*
X0194200Y0177636D01*
X0194200Y0179235D02*
X0194400Y0179235D01*
X0194400Y0180833D02*
X0194200Y0180833D01*
X0194200Y0182432D02*
X0194464Y0182432D01*
X0194200Y0184030D02*
X0195636Y0184030D01*
X0194200Y0185629D02*
X0197235Y0185629D01*
X0198833Y0187227D02*
X0194200Y0187227D01*
X0194200Y0188826D02*
X0199400Y0188826D01*
X0199400Y0190424D02*
X0194200Y0190424D01*
X0194200Y0192023D02*
X0199400Y0192023D01*
X0199400Y0193621D02*
X0194200Y0193621D01*
X0194725Y0195220D02*
X0198875Y0195220D01*
X0197642Y0196818D02*
X0195958Y0196818D01*
X0196400Y0198417D02*
X0197200Y0198417D01*
X0197200Y0200015D02*
X0196400Y0200015D01*
X0196400Y0201614D02*
X0197200Y0201614D01*
X0197200Y0203212D02*
X0196400Y0203212D01*
X0196400Y0204811D02*
X0197200Y0204811D01*
X0197488Y0206409D02*
X0196112Y0206409D01*
X0195097Y0208008D02*
X0198503Y0208008D01*
X0201800Y0201800D02*
X0201800Y0186800D01*
X0196800Y0181800D01*
X0196800Y0149100D01*
X0201800Y0149100D02*
X0201800Y0146800D01*
X0201800Y0149100D02*
X0201800Y0176800D01*
X0211800Y0186800D01*
X0211800Y0201800D01*
X0221800Y0201800D02*
X0221800Y0189300D01*
X0206800Y0174300D01*
X0206800Y0149100D01*
X0211800Y0149100D02*
X0211800Y0171800D01*
X0231800Y0191800D01*
X0231800Y0201800D01*
X0227200Y0201614D02*
X0226400Y0201614D01*
X0226400Y0203212D02*
X0227200Y0203212D01*
X0227200Y0204811D02*
X0226400Y0204811D01*
X0226112Y0206409D02*
X0227488Y0206409D01*
X0228503Y0208008D02*
X0225097Y0208008D01*
X0226400Y0200015D02*
X0227200Y0200015D01*
X0227200Y0198417D02*
X0226400Y0198417D01*
X0225958Y0196818D02*
X0227642Y0196818D01*
X0228875Y0195220D02*
X0224725Y0195220D01*
X0224200Y0193621D02*
X0229400Y0193621D01*
X0228629Y0192023D02*
X0224200Y0192023D01*
X0224200Y0190424D02*
X0227030Y0190424D01*
X0225432Y0188826D02*
X0224200Y0188826D01*
X0223833Y0187227D02*
X0223121Y0187227D01*
X0191800Y0201800D02*
X0191800Y0149100D01*
X0186800Y0149100D02*
X0186800Y0181800D01*
X0181800Y0186800D01*
X0181800Y0201800D01*
X0177200Y0201614D02*
X0176400Y0201614D01*
X0176400Y0203212D02*
X0177200Y0203212D01*
X0177200Y0204811D02*
X0176400Y0204811D01*
X0176112Y0206409D02*
X0177488Y0206409D01*
X0178503Y0208008D02*
X0175097Y0208008D01*
X0168503Y0208008D02*
X0165097Y0208008D01*
X0166112Y0206409D02*
X0167488Y0206409D01*
X0167200Y0204811D02*
X0166400Y0204811D01*
X0166400Y0203212D02*
X0167200Y0203212D01*
X0167200Y0201614D02*
X0166400Y0201614D01*
X0166400Y0200015D02*
X0167200Y0200015D01*
X0167200Y0198417D02*
X0166400Y0198417D01*
X0165958Y0196818D02*
X0167642Y0196818D01*
X0168875Y0195220D02*
X0164725Y0195220D01*
X0164200Y0193621D02*
X0169400Y0193621D01*
X0169400Y0192023D02*
X0164200Y0192023D01*
X0164200Y0190424D02*
X0169400Y0190424D01*
X0169400Y0188826D02*
X0165668Y0188826D01*
X0167267Y0187227D02*
X0169400Y0187227D01*
X0169687Y0185629D02*
X0168865Y0185629D01*
X0170464Y0184030D02*
X0171176Y0184030D01*
X0172062Y0182432D02*
X0172774Y0182432D01*
X0173661Y0180833D02*
X0174373Y0180833D01*
X0175259Y0179235D02*
X0175971Y0179235D01*
X0176858Y0177636D02*
X0177570Y0177636D01*
X0178456Y0176038D02*
X0179168Y0176038D01*
X0179200Y0174439D02*
X0179400Y0174439D01*
X0179400Y0172841D02*
X0179200Y0172841D01*
X0179200Y0171242D02*
X0179400Y0171242D01*
X0179400Y0169644D02*
X0179200Y0169644D01*
X0179200Y0168045D02*
X0179400Y0168045D01*
X0179400Y0166447D02*
X0179200Y0166447D01*
X0179200Y0164848D02*
X0179400Y0164848D01*
X0179400Y0163250D02*
X0179200Y0163250D01*
X0179200Y0161651D02*
X0179400Y0161651D01*
X0179400Y0160053D02*
X0179200Y0160053D01*
X0179200Y0158454D02*
X0179400Y0158454D01*
X0179400Y0156856D02*
X0179200Y0156856D01*
X0179200Y0155257D02*
X0179400Y0155257D01*
X0174400Y0155257D02*
X0161400Y0155257D01*
X0161400Y0154400D02*
X0161400Y0157462D01*
X0161287Y0158177D01*
X0161063Y0158866D01*
X0160734Y0159511D01*
X0160309Y0160097D01*
X0159797Y0160609D01*
X0159211Y0161034D01*
X0158566Y0161363D01*
X0157877Y0161587D01*
X0157162Y0161700D01*
X0156900Y0161700D01*
X0156900Y0154400D01*
X0161400Y0154400D01*
X0161400Y0154200D02*
X0156900Y0154200D01*
X0156900Y0154400D01*
X0156700Y0154400D01*
X0156700Y0161700D01*
X0156438Y0161700D01*
X0155723Y0161587D01*
X0155034Y0161363D01*
X0154389Y0161034D01*
X0153803Y0160609D01*
X0153291Y0160097D01*
X0152866Y0159511D01*
X0152537Y0158866D01*
X0152313Y0158177D01*
X0152200Y0157462D01*
X0152200Y0154400D01*
X0156700Y0154400D01*
X0156700Y0154200D01*
X0156900Y0154200D01*
X0156900Y0146900D01*
X0157162Y0146900D01*
X0157877Y0147013D01*
X0158566Y0147237D01*
X0159211Y0147566D01*
X0159797Y0147991D01*
X0160309Y0148503D01*
X0160734Y0149089D01*
X0161063Y0149734D01*
X0161287Y0150423D01*
X0161400Y0151138D01*
X0161400Y0154200D01*
X0161400Y0153659D02*
X0168786Y0153659D01*
X0168823Y0153795D02*
X0168700Y0153337D01*
X0168700Y0149100D01*
X0171800Y0149100D01*
X0171800Y0149100D01*
X0171800Y0149100D01*
X0171800Y0154900D01*
X0170263Y0154900D01*
X0169805Y0154777D01*
X0169395Y0154540D01*
X0169060Y0154205D01*
X0168823Y0153795D01*
X0168700Y0152060D02*
X0161400Y0152060D01*
X0161293Y0150462D02*
X0168700Y0150462D01*
X0168700Y0149100D02*
X0168700Y0144863D01*
X0168823Y0144405D01*
X0169060Y0143995D01*
X0169395Y0143660D01*
X0169805Y0143423D01*
X0170263Y0143300D01*
X0171800Y0143300D01*
X0171800Y0149100D01*
X0168700Y0149100D01*
X0168700Y0148863D02*
X0160570Y0148863D01*
X0158620Y0147265D02*
X0168700Y0147265D01*
X0168700Y0145666D02*
X0141560Y0145666D01*
X0143159Y0147265D02*
X0145528Y0147265D01*
X0148072Y0147265D02*
X0154980Y0147265D01*
X0155034Y0147237D02*
X0155723Y0147013D01*
X0156438Y0146900D01*
X0156700Y0146900D01*
X0156700Y0154200D01*
X0152200Y0154200D01*
X0152200Y0151138D01*
X0152313Y0150423D01*
X0152537Y0149734D01*
X0152866Y0149089D01*
X0153291Y0148503D01*
X0153803Y0147991D01*
X0154389Y0147566D01*
X0155034Y0147237D01*
X0156700Y0147265D02*
X0156900Y0147265D01*
X0156900Y0148863D02*
X0156700Y0148863D01*
X0156700Y0150462D02*
X0156900Y0150462D01*
X0156900Y0152060D02*
X0156700Y0152060D01*
X0156700Y0153659D02*
X0156900Y0153659D01*
X0156900Y0155257D02*
X0156700Y0155257D01*
X0156700Y0156856D02*
X0156900Y0156856D01*
X0156900Y0158454D02*
X0156700Y0158454D01*
X0156700Y0160053D02*
X0156900Y0160053D01*
X0156900Y0161651D02*
X0156700Y0161651D01*
X0156129Y0161651D02*
X0145045Y0161651D01*
X0143530Y0160053D02*
X0143447Y0160053D01*
X0142598Y0158454D02*
X0141848Y0158454D01*
X0142400Y0156856D02*
X0140250Y0156856D01*
X0138651Y0155257D02*
X0142400Y0155257D01*
X0142400Y0153659D02*
X0137053Y0153659D01*
X0138903Y0152060D02*
X0141166Y0152060D01*
X0139100Y0146600D02*
X0136800Y0146600D01*
X0139100Y0146600D02*
X0146800Y0154300D01*
X0151200Y0153659D02*
X0152200Y0153659D01*
X0152200Y0155257D02*
X0151200Y0155257D01*
X0151200Y0156856D02*
X0152200Y0156856D01*
X0152403Y0158454D02*
X0151002Y0158454D01*
X0150070Y0160053D02*
X0153259Y0160053D01*
X0157471Y0161651D02*
X0174400Y0161651D01*
X0174400Y0160053D02*
X0160341Y0160053D01*
X0161197Y0158454D02*
X0174400Y0158454D01*
X0174400Y0156856D02*
X0161400Y0156856D01*
X0152200Y0152060D02*
X0151200Y0152060D01*
X0151132Y0150462D02*
X0152307Y0150462D01*
X0153030Y0148863D02*
X0150386Y0148863D01*
X0139700Y0144068D02*
X0169018Y0144068D01*
X0171800Y0144068D02*
X0171800Y0144068D01*
X0171800Y0145666D02*
X0171800Y0145666D01*
X0171800Y0147265D02*
X0171800Y0147265D01*
X0171800Y0148863D02*
X0171800Y0148863D01*
X0171800Y0150462D02*
X0171800Y0150462D01*
X0171800Y0152060D02*
X0171800Y0152060D01*
X0171800Y0153659D02*
X0171800Y0153659D01*
X0176800Y0149100D02*
X0176800Y0174300D01*
X0161800Y0189300D01*
X0161800Y0201800D01*
X0157200Y0201614D02*
X0086400Y0201614D01*
X0086400Y0203212D02*
X0157200Y0203212D01*
X0157200Y0204811D02*
X0086400Y0204811D01*
X0086112Y0206409D02*
X0157488Y0206409D01*
X0158503Y0208008D02*
X0085097Y0208008D01*
X0081800Y0201800D02*
X0081800Y0191800D01*
X0061800Y0171800D01*
X0061800Y0151600D01*
X0056800Y0151600D02*
X0056800Y0174300D01*
X0071800Y0189300D01*
X0071800Y0201800D01*
X0084200Y0193621D02*
X0159400Y0193621D01*
X0159400Y0192023D02*
X0084200Y0192023D01*
X0083818Y0190424D02*
X0159400Y0190424D01*
X0159400Y0188826D02*
X0082220Y0188826D01*
X0080621Y0187227D02*
X0160479Y0187227D01*
X0162077Y0185629D02*
X0079023Y0185629D01*
X0077424Y0184030D02*
X0163676Y0184030D01*
X0165274Y0182432D02*
X0075826Y0182432D01*
X0084725Y0195220D02*
X0158875Y0195220D01*
X0157642Y0196818D02*
X0085958Y0196818D01*
X0086400Y0198417D02*
X0157200Y0198417D01*
X0157200Y0200015D02*
X0086400Y0200015D01*
X0094772Y0180833D02*
X0098828Y0180833D01*
X0097622Y0179235D02*
X0095978Y0179235D01*
X0096400Y0177636D02*
X0097200Y0177636D01*
X0097200Y0176038D02*
X0096400Y0176038D01*
X0096400Y0174439D02*
X0097200Y0174439D01*
X0097200Y0172841D02*
X0096400Y0172841D01*
X0096400Y0171242D02*
X0097200Y0171242D01*
X0097507Y0169644D02*
X0096093Y0169644D01*
X0095051Y0168045D02*
X0098549Y0168045D01*
X0099400Y0166447D02*
X0094200Y0166447D01*
X0094200Y0164848D02*
X0099400Y0164848D01*
X0099400Y0163250D02*
X0094200Y0163250D01*
X0095343Y0161651D02*
X0099400Y0161651D01*
X0100153Y0160053D02*
X0096941Y0160053D01*
X0098540Y0158454D02*
X0101752Y0158454D01*
X0103350Y0156856D02*
X0100138Y0156856D01*
X0101737Y0155257D02*
X0104400Y0155257D01*
X0104400Y0153659D02*
X0103336Y0153659D01*
X0104200Y0152060D02*
X0104400Y0152060D01*
X0109200Y0152060D02*
X0109400Y0152060D01*
X0109400Y0153659D02*
X0109200Y0153659D01*
X0109200Y0155257D02*
X0109400Y0155257D01*
X0109400Y0156856D02*
X0109200Y0156856D01*
X0109400Y0158454D02*
X0108540Y0158454D01*
X0109400Y0160053D02*
X0106941Y0160053D01*
X0105343Y0161651D02*
X0109400Y0161651D01*
X0109400Y0163250D02*
X0104200Y0163250D01*
X0104200Y0164848D02*
X0109400Y0164848D01*
X0109400Y0166447D02*
X0104200Y0166447D01*
X0105051Y0168045D02*
X0108549Y0168045D01*
X0107507Y0169644D02*
X0106093Y0169644D01*
X0106400Y0171242D02*
X0107200Y0171242D01*
X0107200Y0172841D02*
X0106400Y0172841D01*
X0106400Y0174439D02*
X0107200Y0174439D01*
X0107200Y0176038D02*
X0106400Y0176038D01*
X0106400Y0177636D02*
X0107200Y0177636D01*
X0107622Y0179235D02*
X0105978Y0179235D01*
X0104772Y0180833D02*
X0108828Y0180833D01*
X0114772Y0180833D02*
X0118828Y0180833D01*
X0117622Y0179235D02*
X0115978Y0179235D01*
X0116400Y0177636D02*
X0117200Y0177636D01*
X0117200Y0176038D02*
X0116400Y0176038D01*
X0116400Y0174439D02*
X0117200Y0174439D01*
X0117200Y0172841D02*
X0116400Y0172841D01*
X0116400Y0171242D02*
X0117200Y0171242D01*
X0117507Y0169644D02*
X0116093Y0169644D01*
X0115051Y0168045D02*
X0118549Y0168045D01*
X0119400Y0166447D02*
X0114200Y0166447D01*
X0114200Y0164848D02*
X0119400Y0164848D01*
X0119400Y0163250D02*
X0114200Y0163250D01*
X0114200Y0161651D02*
X0118257Y0161651D01*
X0116659Y0160053D02*
X0114200Y0160053D01*
X0114200Y0158454D02*
X0115060Y0158454D01*
X0114400Y0156856D02*
X0114200Y0156856D01*
X0114200Y0155257D02*
X0114400Y0155257D01*
X0114400Y0153659D02*
X0114200Y0153659D01*
X0114200Y0152060D02*
X0114400Y0152060D01*
X0119200Y0152060D02*
X0119400Y0152060D01*
X0119200Y0153659D02*
X0120264Y0153659D01*
X0119200Y0155257D02*
X0121863Y0155257D01*
X0123461Y0156856D02*
X0120250Y0156856D01*
X0121848Y0158454D02*
X0125060Y0158454D01*
X0126659Y0160053D02*
X0123447Y0160053D01*
X0124200Y0161651D02*
X0128257Y0161651D01*
X0129400Y0163250D02*
X0124200Y0163250D01*
X0124200Y0164848D02*
X0129400Y0164848D01*
X0129400Y0166447D02*
X0124200Y0166447D01*
X0125051Y0168045D02*
X0128549Y0168045D01*
X0127507Y0169644D02*
X0126093Y0169644D01*
X0126400Y0171242D02*
X0127200Y0171242D01*
X0127200Y0172841D02*
X0126400Y0172841D01*
X0126400Y0174439D02*
X0127200Y0174439D01*
X0127200Y0176038D02*
X0126400Y0176038D01*
X0126400Y0177636D02*
X0127200Y0177636D01*
X0127622Y0179235D02*
X0125978Y0179235D01*
X0124772Y0180833D02*
X0128828Y0180833D01*
X0134772Y0180833D02*
X0138828Y0180833D01*
X0137622Y0179235D02*
X0135978Y0179235D01*
X0136400Y0177636D02*
X0137200Y0177636D01*
X0137200Y0176038D02*
X0136400Y0176038D01*
X0136400Y0174439D02*
X0137200Y0174439D01*
X0137200Y0172841D02*
X0136400Y0172841D01*
X0136400Y0171242D02*
X0137200Y0171242D01*
X0137507Y0169644D02*
X0136093Y0169644D01*
X0135051Y0168045D02*
X0138549Y0168045D01*
X0138053Y0166447D02*
X0134200Y0166447D01*
X0134200Y0164848D02*
X0136454Y0164848D01*
X0134856Y0163250D02*
X0134200Y0163250D01*
X0131800Y0161800D02*
X0131800Y0174300D01*
X0121800Y0174300D02*
X0121800Y0161800D01*
X0116800Y0156800D01*
X0116800Y0146600D01*
X0121800Y0146600D02*
X0121800Y0151800D01*
X0131800Y0161800D01*
X0141800Y0166800D02*
X0141800Y0174300D01*
X0146400Y0174439D02*
X0147200Y0174439D01*
X0147200Y0172841D02*
X0146400Y0172841D01*
X0146400Y0171242D02*
X0147200Y0171242D01*
X0146250Y0169644D02*
X0146093Y0169644D01*
X0141800Y0166800D02*
X0126800Y0151800D01*
X0126800Y0146600D01*
X0131800Y0146600D02*
X0131800Y0144300D01*
X0131800Y0146600D02*
X0131800Y0151800D01*
X0151800Y0171800D01*
X0151800Y0174300D01*
X0156400Y0174439D02*
X0173267Y0174439D01*
X0174400Y0172841D02*
X0156400Y0172841D01*
X0156400Y0171242D02*
X0174400Y0171242D01*
X0174400Y0169644D02*
X0156093Y0169644D01*
X0155051Y0168045D02*
X0174400Y0168045D01*
X0174400Y0166447D02*
X0149841Y0166447D01*
X0148242Y0164848D02*
X0174400Y0164848D01*
X0174400Y0163250D02*
X0146644Y0163250D01*
X0146400Y0176038D02*
X0147200Y0176038D01*
X0147200Y0177636D02*
X0146400Y0177636D01*
X0145978Y0179235D02*
X0147622Y0179235D01*
X0148828Y0180833D02*
X0144772Y0180833D01*
X0154772Y0180833D02*
X0166873Y0180833D01*
X0168471Y0179235D02*
X0155978Y0179235D01*
X0156400Y0177636D02*
X0170070Y0177636D01*
X0171668Y0176038D02*
X0156400Y0176038D01*
X0171800Y0186800D02*
X0171800Y0201800D01*
X0176400Y0200015D02*
X0177200Y0200015D01*
X0177200Y0198417D02*
X0176400Y0198417D01*
X0175958Y0196818D02*
X0177642Y0196818D01*
X0178875Y0195220D02*
X0174725Y0195220D01*
X0174200Y0193621D02*
X0179400Y0193621D01*
X0179400Y0192023D02*
X0174200Y0192023D01*
X0174200Y0190424D02*
X0179400Y0190424D01*
X0179400Y0188826D02*
X0174200Y0188826D01*
X0174767Y0187227D02*
X0179400Y0187227D01*
X0179687Y0185629D02*
X0176365Y0185629D01*
X0177964Y0184030D02*
X0181176Y0184030D01*
X0182774Y0182432D02*
X0179562Y0182432D01*
X0181161Y0180833D02*
X0184373Y0180833D01*
X0184400Y0179235D02*
X0182759Y0179235D01*
X0184051Y0177636D02*
X0184400Y0177636D01*
X0184400Y0176038D02*
X0184200Y0176038D01*
X0184200Y0174439D02*
X0184400Y0174439D01*
X0184400Y0172841D02*
X0184200Y0172841D01*
X0184200Y0171242D02*
X0184400Y0171242D01*
X0184400Y0169644D02*
X0184200Y0169644D01*
X0184200Y0168045D02*
X0184400Y0168045D01*
X0184400Y0166447D02*
X0184200Y0166447D01*
X0184200Y0164848D02*
X0184400Y0164848D01*
X0184400Y0163250D02*
X0184200Y0163250D01*
X0184200Y0161651D02*
X0184400Y0161651D01*
X0184400Y0160053D02*
X0184200Y0160053D01*
X0184200Y0158454D02*
X0184400Y0158454D01*
X0184400Y0156856D02*
X0184200Y0156856D01*
X0184200Y0155257D02*
X0184400Y0155257D01*
X0189200Y0155257D02*
X0189400Y0155257D01*
X0189400Y0156856D02*
X0189200Y0156856D01*
X0189200Y0158454D02*
X0189400Y0158454D01*
X0189400Y0160053D02*
X0189200Y0160053D01*
X0189200Y0161651D02*
X0189400Y0161651D01*
X0189400Y0163250D02*
X0189200Y0163250D01*
X0189200Y0164848D02*
X0189400Y0164848D01*
X0189400Y0166447D02*
X0189200Y0166447D01*
X0189200Y0168045D02*
X0189400Y0168045D01*
X0189400Y0169644D02*
X0189200Y0169644D01*
X0189200Y0171242D02*
X0189400Y0171242D01*
X0189400Y0172841D02*
X0189200Y0172841D01*
X0189200Y0174439D02*
X0189400Y0174439D01*
X0189400Y0176038D02*
X0189200Y0176038D01*
X0189200Y0177636D02*
X0189400Y0177636D01*
X0189400Y0179235D02*
X0189200Y0179235D01*
X0189200Y0180833D02*
X0189400Y0180833D01*
X0189400Y0182432D02*
X0189136Y0182432D01*
X0189400Y0184030D02*
X0187964Y0184030D01*
X0189400Y0185629D02*
X0186365Y0185629D01*
X0184767Y0187227D02*
X0189400Y0187227D01*
X0189400Y0188826D02*
X0184200Y0188826D01*
X0184200Y0190424D02*
X0189400Y0190424D01*
X0189400Y0192023D02*
X0184200Y0192023D01*
X0184200Y0193621D02*
X0189400Y0193621D01*
X0188875Y0195220D02*
X0184725Y0195220D01*
X0185958Y0196818D02*
X0187642Y0196818D01*
X0187200Y0198417D02*
X0186400Y0198417D01*
X0186400Y0200015D02*
X0187200Y0200015D01*
X0187200Y0201614D02*
X0186400Y0201614D01*
X0186400Y0203212D02*
X0187200Y0203212D01*
X0187200Y0204811D02*
X0186400Y0204811D01*
X0186112Y0206409D02*
X0187488Y0206409D01*
X0188503Y0208008D02*
X0185097Y0208008D01*
X0171800Y0186800D02*
X0181800Y0176800D01*
X0181800Y0149100D01*
X0210861Y0131279D02*
X0139600Y0131279D01*
X0139600Y0129681D02*
X0212459Y0129681D01*
X0214000Y0128082D02*
X0139600Y0128082D01*
X0139600Y0126484D02*
X0214000Y0126484D01*
X0214000Y0124885D02*
X0139600Y0124885D01*
X0139600Y0123287D02*
X0141480Y0123287D01*
X0141457Y0121688D02*
X0139600Y0121688D01*
X0139600Y0120090D02*
X0146025Y0120090D01*
X0147575Y0120090D02*
X0214000Y0120090D01*
X0214000Y0123287D02*
X0152120Y0123287D01*
X0147575Y0123287D02*
X0146025Y0123287D01*
X0146025Y0121688D02*
X0147575Y0121688D01*
X0147575Y0118491D02*
X0146025Y0118491D01*
X0146025Y0116893D02*
X0147575Y0116893D01*
X0147575Y0115294D02*
X0146025Y0115294D01*
X0142079Y0115294D02*
X0139600Y0115294D01*
X0139600Y0113696D02*
X0168900Y0113696D01*
X0168900Y0112097D02*
X0151943Y0112097D01*
X0151943Y0110499D02*
X0162105Y0110499D01*
X0160506Y0108900D02*
X0151943Y0108900D01*
X0151943Y0107302D02*
X0158908Y0107302D01*
X0157309Y0105703D02*
X0151943Y0105703D01*
X0151072Y0104105D02*
X0155711Y0104105D01*
X0154112Y0102506D02*
X0139700Y0102506D01*
X0142514Y0100908D02*
X0129200Y0100908D01*
X0129200Y0099309D02*
X0140915Y0099309D01*
X0139317Y0097711D02*
X0129200Y0097711D01*
X0129200Y0096112D02*
X0135218Y0096112D01*
X0134765Y0095659D02*
X0134765Y0095659D01*
X0133620Y0094514D02*
X0129200Y0094514D01*
X0129200Y0092915D02*
X0129375Y0092915D01*
X0131800Y0089300D02*
X0131800Y0086800D01*
X0131800Y0089300D02*
X0136800Y0094300D01*
X0139300Y0094300D01*
X0144300Y0099300D01*
X0154300Y0099300D01*
X0164300Y0109300D01*
X0171600Y0109300D01*
X0171800Y0109500D01*
X0176800Y0109500D02*
X0176800Y0104300D01*
X0174300Y0101800D01*
X0166800Y0101800D01*
X0159300Y0094300D01*
X0146800Y0094300D01*
X0141800Y0089300D01*
X0141800Y0086800D01*
X0146000Y0086521D02*
X0147600Y0086521D01*
X0147600Y0084923D02*
X0146000Y0084923D01*
X0145983Y0083324D02*
X0147617Y0083324D01*
X0148335Y0081726D02*
X0145265Y0081726D01*
X0142942Y0080127D02*
X0150658Y0080127D01*
X0152942Y0080127D02*
X0160658Y0080127D01*
X0162942Y0080127D02*
X0170658Y0080127D01*
X0170965Y0080000D02*
X0172635Y0080000D01*
X0174179Y0080639D01*
X0175361Y0081821D01*
X0176000Y0083365D01*
X0176000Y0090235D01*
X0175361Y0091779D01*
X0174179Y0092961D01*
X0172635Y0093600D01*
X0170965Y0093600D01*
X0169421Y0092961D01*
X0168239Y0091779D01*
X0167600Y0090235D01*
X0167600Y0083365D01*
X0168239Y0081821D01*
X0169421Y0080639D01*
X0170965Y0080000D01*
X0172942Y0080127D02*
X0180658Y0080127D01*
X0182069Y0078529D02*
X0129078Y0078529D01*
X0129200Y0080127D02*
X0130658Y0080127D01*
X0132942Y0080127D02*
X0140658Y0080127D01*
X0138335Y0081726D02*
X0135265Y0081726D01*
X0135983Y0083324D02*
X0137617Y0083324D01*
X0137600Y0084923D02*
X0136000Y0084923D01*
X0136000Y0086521D02*
X0137600Y0086521D01*
X0137600Y0088120D02*
X0136000Y0088120D01*
X0136000Y0089718D02*
X0137600Y0089718D01*
X0137211Y0091317D02*
X0138048Y0091317D01*
X0146000Y0089718D02*
X0147600Y0089718D01*
X0147600Y0088120D02*
X0146000Y0088120D01*
X0147211Y0091317D02*
X0148048Y0091317D01*
X0155552Y0091317D02*
X0158048Y0091317D01*
X0157600Y0089718D02*
X0156000Y0089718D01*
X0156000Y0088120D02*
X0157600Y0088120D01*
X0157600Y0086521D02*
X0156000Y0086521D01*
X0156000Y0084923D02*
X0157600Y0084923D01*
X0157617Y0083324D02*
X0155983Y0083324D01*
X0155265Y0081726D02*
X0158335Y0081726D01*
X0157063Y0077143D02*
X0159675Y0077143D01*
X0160133Y0077021D01*
X0160543Y0076784D01*
X0160878Y0076449D01*
X0161115Y0076038D01*
X0161238Y0075580D01*
X0161238Y0072575D01*
X0157063Y0072575D01*
X0155513Y0072575D01*
X0155513Y0071025D01*
X0157063Y0071025D01*
X0157063Y0066457D01*
X0159675Y0066457D01*
X0160133Y0066579D01*
X0160543Y0066816D01*
X0160878Y0067151D01*
X0161115Y0067562D01*
X0161238Y0068020D01*
X0161238Y0071025D01*
X0157063Y0071025D01*
X0157063Y0072575D01*
X0157063Y0077143D01*
X0157063Y0076930D02*
X0155513Y0076930D01*
X0155513Y0077143D02*
X0152902Y0077143D01*
X0152444Y0077021D01*
X0152033Y0076784D01*
X0151698Y0076449D01*
X0151461Y0076038D01*
X0151339Y0075580D01*
X0151339Y0072575D01*
X0155513Y0072575D01*
X0155513Y0077143D01*
X0155513Y0075332D02*
X0157063Y0075332D01*
X0157063Y0073733D02*
X0155513Y0073733D01*
X0155513Y0072134D02*
X0124200Y0072134D01*
X0123874Y0070536D02*
X0151339Y0070536D01*
X0151339Y0068937D02*
X0122332Y0068937D01*
X0124627Y0073733D02*
X0151339Y0073733D01*
X0151339Y0075332D02*
X0126226Y0075332D01*
X0127824Y0076930D02*
X0152287Y0076930D01*
X0157063Y0072134D02*
X0162562Y0072134D01*
X0162562Y0070536D02*
X0161238Y0070536D01*
X0161238Y0068937D02*
X0162562Y0068937D01*
X0162817Y0067339D02*
X0160986Y0067339D01*
X0157063Y0067339D02*
X0155513Y0067339D01*
X0155513Y0068937D02*
X0157063Y0068937D01*
X0157063Y0070536D02*
X0155513Y0070536D01*
X0161238Y0073733D02*
X0162562Y0073733D01*
X0162562Y0075332D02*
X0161238Y0075332D01*
X0160289Y0076930D02*
X0163486Y0076930D01*
X0165265Y0081726D02*
X0168335Y0081726D01*
X0167617Y0083324D02*
X0165983Y0083324D01*
X0166000Y0084923D02*
X0167600Y0084923D01*
X0167600Y0086521D02*
X0166000Y0086521D01*
X0166000Y0088120D02*
X0167600Y0088120D01*
X0167600Y0089718D02*
X0166000Y0089718D01*
X0165552Y0091317D02*
X0168048Y0091317D01*
X0169375Y0092915D02*
X0166309Y0092915D01*
X0166800Y0096800D02*
X0176800Y0096800D01*
X0181800Y0101800D01*
X0181800Y0109500D01*
X0186800Y0109500D02*
X0186800Y0099300D01*
X0181800Y0094300D01*
X0181800Y0086800D01*
X0177600Y0086521D02*
X0176000Y0086521D01*
X0176000Y0084923D02*
X0177600Y0084923D01*
X0177617Y0083324D02*
X0175983Y0083324D01*
X0175265Y0081726D02*
X0178335Y0081726D01*
X0182942Y0080127D02*
X0183667Y0080127D01*
X0185265Y0081726D02*
X0185266Y0081726D01*
X0185983Y0083324D02*
X0186864Y0083324D01*
X0187600Y0084923D02*
X0186000Y0084923D01*
X0186000Y0086521D02*
X0187600Y0086521D01*
X0187600Y0088120D02*
X0186000Y0088120D01*
X0186000Y0089718D02*
X0187600Y0089718D01*
X0188048Y0091317D02*
X0185552Y0091317D01*
X0184225Y0092915D02*
X0189375Y0092915D01*
X0191594Y0096112D02*
X0187006Y0096112D01*
X0185408Y0094514D02*
X0193192Y0094514D01*
X0194225Y0092915D02*
X0194400Y0092915D01*
X0196800Y0094300D02*
X0196800Y0079300D01*
X0231800Y0044300D01*
X0231800Y0026800D01*
X0236000Y0027376D02*
X0237600Y0027376D01*
X0237600Y0025778D02*
X0236000Y0025778D01*
X0236000Y0024179D02*
X0237600Y0024179D01*
X0237925Y0022581D02*
X0235675Y0022581D01*
X0234522Y0020982D02*
X0239078Y0020982D01*
X0244522Y0020982D02*
X0249078Y0020982D01*
X0247925Y0022581D02*
X0245675Y0022581D01*
X0246000Y0024179D02*
X0247600Y0024179D01*
X0247600Y0025778D02*
X0246000Y0025778D01*
X0246000Y0027376D02*
X0247600Y0027376D01*
X0247600Y0028975D02*
X0246000Y0028975D01*
X0245860Y0030573D02*
X0247740Y0030573D01*
X0248632Y0032172D02*
X0244968Y0032172D01*
X0244200Y0033770D02*
X0249400Y0033770D01*
X0249400Y0035369D02*
X0244200Y0035369D01*
X0244200Y0036967D02*
X0248239Y0036967D01*
X0246640Y0038566D02*
X0244200Y0038566D01*
X0244040Y0040164D02*
X0245042Y0040164D01*
X0243443Y0041763D02*
X0242731Y0041763D01*
X0241845Y0043361D02*
X0241133Y0043361D01*
X0240246Y0044960D02*
X0239534Y0044960D01*
X0238648Y0046558D02*
X0237936Y0046558D01*
X0237049Y0048157D02*
X0236337Y0048157D01*
X0235451Y0049755D02*
X0234739Y0049755D01*
X0233852Y0051354D02*
X0233140Y0051354D01*
X0232254Y0052952D02*
X0231542Y0052952D01*
X0230655Y0054551D02*
X0229943Y0054551D01*
X0229056Y0056149D02*
X0228345Y0056149D01*
X0227458Y0057748D02*
X0226746Y0057748D01*
X0225859Y0059346D02*
X0225148Y0059346D01*
X0224261Y0060945D02*
X0223549Y0060945D01*
X0222662Y0062543D02*
X0221951Y0062543D01*
X0221064Y0064142D02*
X0220352Y0064142D01*
X0219465Y0065740D02*
X0218754Y0065740D01*
X0217867Y0067339D02*
X0217155Y0067339D01*
X0216268Y0068937D02*
X0215557Y0068937D01*
X0214726Y0070536D02*
X0213958Y0070536D01*
X0214400Y0072134D02*
X0212360Y0072134D01*
X0210761Y0073733D02*
X0214400Y0073733D01*
X0214400Y0075332D02*
X0209200Y0075332D01*
X0209200Y0076930D02*
X0214400Y0076930D01*
X0214400Y0078529D02*
X0209200Y0078529D01*
X0209200Y0080127D02*
X0210658Y0080127D01*
X0212942Y0080127D02*
X0214400Y0080127D01*
X0219200Y0080127D02*
X0220658Y0080127D01*
X0219200Y0078529D02*
X0261500Y0078529D01*
X0261500Y0080127D02*
X0252942Y0080127D01*
X0252635Y0080000D02*
X0254179Y0080639D01*
X0255361Y0081821D01*
X0256000Y0083365D01*
X0256000Y0090235D01*
X0255361Y0091779D01*
X0254179Y0092961D01*
X0252635Y0093600D01*
X0250965Y0093600D01*
X0249421Y0092961D01*
X0248239Y0091779D01*
X0247600Y0090235D01*
X0247600Y0083365D01*
X0248239Y0081821D01*
X0249421Y0080639D01*
X0250965Y0080000D01*
X0252635Y0080000D01*
X0250658Y0080127D02*
X0242942Y0080127D01*
X0242635Y0080000D02*
X0244179Y0080639D01*
X0245361Y0081821D01*
X0246000Y0083365D01*
X0246000Y0090235D01*
X0245361Y0091779D01*
X0244179Y0092961D01*
X0242635Y0093600D01*
X0240965Y0093600D01*
X0239421Y0092961D01*
X0238239Y0091779D01*
X0237600Y0090235D01*
X0237600Y0083365D01*
X0238239Y0081821D01*
X0239421Y0080639D01*
X0240965Y0080000D01*
X0242635Y0080000D01*
X0240658Y0080127D02*
X0232942Y0080127D01*
X0232635Y0080000D02*
X0234179Y0080639D01*
X0235361Y0081821D01*
X0236000Y0083365D01*
X0236000Y0090235D01*
X0235361Y0091779D01*
X0234179Y0092961D01*
X0232635Y0093600D01*
X0230965Y0093600D01*
X0229421Y0092961D01*
X0228239Y0091779D01*
X0227600Y0090235D01*
X0227600Y0083365D01*
X0228239Y0081821D01*
X0229421Y0080639D01*
X0230965Y0080000D01*
X0232635Y0080000D01*
X0230658Y0080127D02*
X0222942Y0080127D01*
X0225265Y0081726D02*
X0228335Y0081726D01*
X0227617Y0083324D02*
X0225983Y0083324D01*
X0226000Y0084923D02*
X0227600Y0084923D01*
X0227600Y0086521D02*
X0226000Y0086521D01*
X0226000Y0088120D02*
X0227600Y0088120D01*
X0227600Y0089718D02*
X0226000Y0089718D01*
X0225552Y0091317D02*
X0228048Y0091317D01*
X0229375Y0092915D02*
X0224225Y0092915D01*
X0219375Y0092915D02*
X0218936Y0092915D01*
X0217480Y0094514D02*
X0261500Y0094514D01*
X0261500Y0096112D02*
X0215882Y0096112D01*
X0214283Y0097711D02*
X0261500Y0097711D01*
X0261500Y0099309D02*
X0212685Y0099309D01*
X0211086Y0100908D02*
X0261500Y0100908D01*
X0261500Y0102506D02*
X0209488Y0102506D01*
X0209350Y0104105D02*
X0209200Y0104105D01*
X0206800Y0101800D02*
X0206800Y0109500D01*
X0201800Y0109500D02*
X0201800Y0099300D01*
X0206800Y0094300D01*
X0206800Y0074300D01*
X0241800Y0039300D01*
X0241800Y0026800D01*
X0237600Y0028975D02*
X0236000Y0028975D01*
X0235860Y0030573D02*
X0237740Y0030573D01*
X0238632Y0032172D02*
X0234968Y0032172D01*
X0234200Y0033770D02*
X0239400Y0033770D01*
X0239400Y0035369D02*
X0234200Y0035369D01*
X0234200Y0036967D02*
X0239400Y0036967D01*
X0239140Y0038566D02*
X0234200Y0038566D01*
X0234200Y0040164D02*
X0237542Y0040164D01*
X0235943Y0041763D02*
X0234200Y0041763D01*
X0234200Y0043361D02*
X0234345Y0043361D01*
X0229345Y0043361D02*
X0189600Y0043361D01*
X0189600Y0041763D02*
X0229400Y0041763D01*
X0229400Y0040164D02*
X0189600Y0040164D01*
X0189600Y0038566D02*
X0229400Y0038566D01*
X0229400Y0036967D02*
X0189600Y0036967D01*
X0189600Y0035369D02*
X0229400Y0035369D01*
X0229400Y0033770D02*
X0189600Y0033770D01*
X0194968Y0032172D02*
X0198632Y0032172D01*
X0198239Y0031779D02*
X0197600Y0030235D01*
X0197600Y0023365D01*
X0198239Y0021821D01*
X0199421Y0020639D01*
X0200965Y0020000D01*
X0202635Y0020000D01*
X0204179Y0020639D01*
X0205361Y0021821D01*
X0206000Y0023365D01*
X0206000Y0030235D01*
X0205361Y0031779D01*
X0204179Y0032961D01*
X0202635Y0033600D01*
X0200965Y0033600D01*
X0199421Y0032961D01*
X0198239Y0031779D01*
X0197740Y0030573D02*
X0195860Y0030573D01*
X0196000Y0028975D02*
X0197600Y0028975D01*
X0197600Y0027376D02*
X0196000Y0027376D01*
X0196000Y0025778D02*
X0197600Y0025778D01*
X0197600Y0024179D02*
X0196000Y0024179D01*
X0195675Y0022581D02*
X0197925Y0022581D01*
X0199078Y0020982D02*
X0194522Y0020982D01*
X0189600Y0019384D02*
X0261500Y0019384D01*
X0261500Y0020982D02*
X0254522Y0020982D01*
X0255675Y0022581D02*
X0261500Y0022581D01*
X0261500Y0024179D02*
X0256000Y0024179D01*
X0256000Y0025778D02*
X0261500Y0025778D01*
X0261500Y0027376D02*
X0256000Y0027376D01*
X0256000Y0028975D02*
X0261500Y0028975D01*
X0261500Y0030573D02*
X0255860Y0030573D01*
X0254968Y0032172D02*
X0261500Y0032172D01*
X0261500Y0033770D02*
X0254200Y0033770D01*
X0254200Y0035369D02*
X0261500Y0035369D01*
X0261500Y0036967D02*
X0254200Y0036967D01*
X0253428Y0038566D02*
X0261500Y0038566D01*
X0261500Y0040164D02*
X0251830Y0040164D01*
X0250231Y0041763D02*
X0261500Y0041763D01*
X0261500Y0043361D02*
X0248633Y0043361D01*
X0247034Y0044960D02*
X0261500Y0044960D01*
X0261500Y0046558D02*
X0245436Y0046558D01*
X0243837Y0048157D02*
X0261500Y0048157D01*
X0261500Y0049755D02*
X0242239Y0049755D01*
X0240640Y0051354D02*
X0261500Y0051354D01*
X0261500Y0052952D02*
X0239042Y0052952D01*
X0237443Y0054551D02*
X0261500Y0054551D01*
X0261500Y0056149D02*
X0235845Y0056149D01*
X0234246Y0057748D02*
X0261500Y0057748D01*
X0261500Y0059346D02*
X0232648Y0059346D01*
X0231049Y0060945D02*
X0261500Y0060945D01*
X0261500Y0062543D02*
X0229451Y0062543D01*
X0227852Y0064142D02*
X0261500Y0064142D01*
X0261500Y0065740D02*
X0226254Y0065740D01*
X0224655Y0067339D02*
X0261500Y0067339D01*
X0261500Y0068937D02*
X0223057Y0068937D01*
X0221458Y0070536D02*
X0261500Y0070536D01*
X0261500Y0072134D02*
X0219860Y0072134D01*
X0219200Y0073733D02*
X0261500Y0073733D01*
X0261500Y0075332D02*
X0219200Y0075332D01*
X0219200Y0076930D02*
X0261500Y0076930D01*
X0261500Y0081726D02*
X0255265Y0081726D01*
X0255983Y0083324D02*
X0261500Y0083324D01*
X0261500Y0084923D02*
X0256000Y0084923D01*
X0256000Y0086521D02*
X0261500Y0086521D01*
X0261500Y0088120D02*
X0256000Y0088120D01*
X0256000Y0089718D02*
X0261500Y0089718D01*
X0261500Y0091317D02*
X0255552Y0091317D01*
X0254225Y0092915D02*
X0261500Y0092915D01*
X0261500Y0104105D02*
X0233572Y0104105D01*
X0234443Y0105703D02*
X0261500Y0105703D01*
X0252100Y0113696D02*
X0272591Y0113696D01*
X0272591Y0115294D02*
X0252100Y0115294D01*
X0252100Y0116893D02*
X0272591Y0116893D01*
X0272591Y0118491D02*
X0252100Y0118491D01*
X0252100Y0120090D02*
X0272591Y0120090D01*
X0272591Y0121688D02*
X0252100Y0121688D01*
X0252100Y0123287D02*
X0272591Y0123287D01*
X0272591Y0124885D02*
X0252100Y0124885D01*
X0252100Y0126484D02*
X0272591Y0126484D01*
X0272591Y0128082D02*
X0252100Y0128082D01*
X0252100Y0129681D02*
X0272591Y0129681D01*
X0272591Y0131279D02*
X0252100Y0131279D01*
X0252100Y0132878D02*
X0272591Y0132878D01*
X0272591Y0134476D02*
X0252100Y0134476D01*
X0252100Y0136075D02*
X0272591Y0136075D01*
X0272591Y0137673D02*
X0252100Y0137673D01*
X0252100Y0139272D02*
X0272591Y0139272D01*
X0272591Y0140870D02*
X0252100Y0140870D01*
X0252100Y0142469D02*
X0272591Y0142469D01*
X0272591Y0144068D02*
X0252100Y0144068D01*
X0252100Y0145666D02*
X0272591Y0145666D01*
X0272591Y0147265D02*
X0252100Y0147265D01*
X0252100Y0148863D02*
X0272591Y0148863D01*
X0272591Y0150462D02*
X0252100Y0150462D01*
X0252100Y0152060D02*
X0272591Y0152060D01*
X0246500Y0142469D02*
X0139700Y0142469D01*
X0111800Y0146600D02*
X0111800Y0174300D01*
X0101800Y0174300D02*
X0101800Y0161800D01*
X0106800Y0156800D01*
X0106800Y0146600D01*
X0106800Y0144300D01*
X0139600Y0118491D02*
X0141457Y0118491D01*
X0141457Y0116893D02*
X0139600Y0116893D01*
X0139600Y0112097D02*
X0141657Y0112097D01*
X0141657Y0110499D02*
X0139700Y0110499D01*
X0136800Y0107000D02*
X0137000Y0106800D01*
X0131800Y0107000D02*
X0131800Y0101200D01*
X0131800Y0107000D01*
X0131800Y0107000D01*
X0131800Y0107302D02*
X0131800Y0107302D01*
X0131800Y0108900D02*
X0131800Y0108900D01*
X0131800Y0110499D02*
X0131800Y0110499D01*
X0131800Y0112097D02*
X0131800Y0112097D01*
X0131800Y0105703D02*
X0131800Y0105703D01*
X0131800Y0104105D02*
X0131800Y0104105D01*
X0131800Y0102506D02*
X0131800Y0102506D01*
X0121800Y0107000D02*
X0121800Y0086800D01*
X0161800Y0086800D02*
X0161800Y0091800D01*
X0166800Y0096800D01*
X0174225Y0092915D02*
X0179375Y0092915D01*
X0179400Y0094514D02*
X0177552Y0094514D01*
X0179506Y0096112D02*
X0180218Y0096112D01*
X0181105Y0097711D02*
X0181817Y0097711D01*
X0182703Y0099309D02*
X0183415Y0099309D01*
X0184028Y0100908D02*
X0184400Y0100908D01*
X0184400Y0102506D02*
X0184200Y0102506D01*
X0184200Y0104105D02*
X0184400Y0104105D01*
X0189200Y0104105D02*
X0189400Y0104105D01*
X0189400Y0102506D02*
X0189200Y0102506D01*
X0189200Y0100908D02*
X0189400Y0100908D01*
X0189400Y0099309D02*
X0189200Y0099309D01*
X0188605Y0097711D02*
X0189995Y0097711D01*
X0191800Y0099300D02*
X0191800Y0109500D01*
X0196800Y0109500D02*
X0196800Y0099300D01*
X0201800Y0094300D01*
X0201800Y0086800D01*
X0196800Y0094300D02*
X0191800Y0099300D01*
X0206800Y0101800D02*
X0216800Y0091800D01*
X0216800Y0071800D01*
X0251800Y0036800D01*
X0251800Y0026800D01*
X0261500Y0017785D02*
X0189600Y0017785D01*
X0204522Y0020982D02*
X0209078Y0020982D01*
X0209421Y0020639D02*
X0210965Y0020000D01*
X0212635Y0020000D01*
X0214179Y0020639D01*
X0215361Y0021821D01*
X0216000Y0023365D01*
X0216000Y0030235D01*
X0215361Y0031779D01*
X0214179Y0032961D01*
X0212635Y0033600D01*
X0210965Y0033600D01*
X0209421Y0032961D01*
X0208239Y0031779D01*
X0207600Y0030235D01*
X0207600Y0023365D01*
X0208239Y0021821D01*
X0209421Y0020639D01*
X0207925Y0022581D02*
X0205675Y0022581D01*
X0206000Y0024179D02*
X0207600Y0024179D01*
X0207600Y0025778D02*
X0206000Y0025778D01*
X0206000Y0027376D02*
X0207600Y0027376D01*
X0207600Y0028975D02*
X0206000Y0028975D01*
X0205860Y0030573D02*
X0207740Y0030573D01*
X0208632Y0032172D02*
X0204968Y0032172D01*
X0214968Y0032172D02*
X0218632Y0032172D01*
X0218239Y0031779D02*
X0217600Y0030235D01*
X0217600Y0023365D01*
X0218239Y0021821D01*
X0219421Y0020639D01*
X0220965Y0020000D01*
X0222635Y0020000D01*
X0224179Y0020639D01*
X0225361Y0021821D01*
X0226000Y0023365D01*
X0226000Y0030235D01*
X0225361Y0031779D01*
X0224179Y0032961D01*
X0222635Y0033600D01*
X0220965Y0033600D01*
X0219421Y0032961D01*
X0218239Y0031779D01*
X0217740Y0030573D02*
X0215860Y0030573D01*
X0216000Y0028975D02*
X0217600Y0028975D01*
X0217600Y0027376D02*
X0216000Y0027376D01*
X0216000Y0025778D02*
X0217600Y0025778D01*
X0217600Y0024179D02*
X0216000Y0024179D01*
X0215675Y0022581D02*
X0217925Y0022581D01*
X0219078Y0020982D02*
X0214522Y0020982D01*
X0224522Y0020982D02*
X0229078Y0020982D01*
X0227925Y0022581D02*
X0225675Y0022581D01*
X0226000Y0024179D02*
X0227600Y0024179D01*
X0227600Y0025778D02*
X0226000Y0025778D01*
X0226000Y0027376D02*
X0227600Y0027376D01*
X0227600Y0028975D02*
X0226000Y0028975D01*
X0225860Y0030573D02*
X0227740Y0030573D01*
X0228632Y0032172D02*
X0224968Y0032172D01*
X0211567Y0044316D02*
X0211156Y0044079D01*
X0210698Y0043957D01*
X0208087Y0043957D01*
X0208087Y0048525D01*
X0208087Y0050075D01*
X0212261Y0050075D01*
X0212261Y0053080D01*
X0212139Y0053538D01*
X0211902Y0053949D01*
X0211567Y0054284D01*
X0211156Y0054521D01*
X0210698Y0054643D01*
X0208087Y0054643D01*
X0208087Y0050075D01*
X0206537Y0050075D01*
X0206537Y0054643D01*
X0203925Y0054643D01*
X0203467Y0054521D01*
X0203057Y0054284D01*
X0202722Y0053949D01*
X0202485Y0053538D01*
X0202362Y0053080D01*
X0202362Y0050075D01*
X0206537Y0050075D01*
X0206537Y0048525D01*
X0208087Y0048525D01*
X0212261Y0048525D01*
X0212261Y0045520D01*
X0212139Y0045062D01*
X0211902Y0044651D01*
X0211567Y0044316D01*
X0212080Y0044960D02*
X0227746Y0044960D01*
X0226148Y0046558D02*
X0212261Y0046558D01*
X0212261Y0048157D02*
X0224549Y0048157D01*
X0222951Y0049755D02*
X0208087Y0049755D01*
X0206537Y0049755D02*
X0201038Y0049755D01*
X0201038Y0048157D02*
X0202362Y0048157D01*
X0202362Y0048525D02*
X0202362Y0045520D01*
X0202485Y0045062D01*
X0202722Y0044651D01*
X0203057Y0044316D01*
X0203467Y0044079D01*
X0203925Y0043957D01*
X0206537Y0043957D01*
X0206537Y0048525D01*
X0202362Y0048525D01*
X0202362Y0046558D02*
X0201038Y0046558D01*
X0200904Y0044960D02*
X0202544Y0044960D01*
X0206537Y0044960D02*
X0208087Y0044960D01*
X0208087Y0046558D02*
X0206537Y0046558D01*
X0206537Y0048157D02*
X0208087Y0048157D01*
X0208087Y0051354D02*
X0206537Y0051354D01*
X0206537Y0052952D02*
X0208087Y0052952D01*
X0208087Y0054551D02*
X0206537Y0054551D01*
X0203580Y0054551D02*
X0194605Y0054551D01*
X0201038Y0052952D02*
X0202362Y0052952D01*
X0202362Y0051354D02*
X0201038Y0051354D01*
X0191539Y0048157D02*
X0189600Y0048157D01*
X0189600Y0046558D02*
X0191539Y0046558D01*
X0191673Y0044960D02*
X0189600Y0044960D01*
X0174113Y0056149D02*
X0216557Y0056149D01*
X0218155Y0054551D02*
X0211043Y0054551D01*
X0212261Y0052952D02*
X0219754Y0052952D01*
X0221352Y0051354D02*
X0212261Y0051354D01*
X0214958Y0057748D02*
X0174750Y0057748D01*
X0174750Y0059346D02*
X0213359Y0059346D01*
X0211761Y0060945D02*
X0174750Y0060945D01*
X0174750Y0062543D02*
X0210162Y0062543D01*
X0208564Y0064142D02*
X0174750Y0064142D01*
X0171806Y0067339D02*
X0205367Y0067339D01*
X0206965Y0065740D02*
X0169600Y0065740D01*
X0172061Y0068937D02*
X0203768Y0068937D01*
X0202170Y0070536D02*
X0181996Y0070536D01*
X0183594Y0072134D02*
X0200571Y0072134D01*
X0198973Y0073733D02*
X0185193Y0073733D01*
X0186791Y0075332D02*
X0197374Y0075332D01*
X0195776Y0076930D02*
X0188390Y0076930D01*
X0189988Y0078529D02*
X0194522Y0078529D01*
X0195441Y0077265D02*
X0195441Y0077265D01*
X0194400Y0080127D02*
X0192942Y0080127D01*
X0180470Y0076930D02*
X0171137Y0076930D01*
X0172061Y0075332D02*
X0178872Y0075332D01*
X0177600Y0088120D02*
X0176000Y0088120D01*
X0176000Y0089718D02*
X0177600Y0089718D01*
X0178048Y0091317D02*
X0175552Y0091317D01*
X0234225Y0092915D02*
X0239375Y0092915D01*
X0238048Y0091317D02*
X0235552Y0091317D01*
X0236000Y0089718D02*
X0237600Y0089718D01*
X0237600Y0088120D02*
X0236000Y0088120D01*
X0236000Y0086521D02*
X0237600Y0086521D01*
X0237600Y0084923D02*
X0236000Y0084923D01*
X0235983Y0083324D02*
X0237617Y0083324D01*
X0238335Y0081726D02*
X0235265Y0081726D01*
X0245265Y0081726D02*
X0248335Y0081726D01*
X0247617Y0083324D02*
X0245983Y0083324D01*
X0246000Y0084923D02*
X0247600Y0084923D01*
X0247600Y0086521D02*
X0246000Y0086521D01*
X0246000Y0088120D02*
X0247600Y0088120D01*
X0247600Y0089718D02*
X0246000Y0089718D01*
X0245552Y0091317D02*
X0248048Y0091317D01*
X0249375Y0092915D02*
X0244225Y0092915D01*
X0128632Y0032172D02*
X0124968Y0032172D01*
X0125860Y0030573D02*
X0127740Y0030573D01*
X0127600Y0028975D02*
X0126000Y0028975D01*
X0041800Y0151600D02*
X0041800Y0201800D01*
X0046400Y0200015D02*
X0047200Y0200015D01*
X0047200Y0198417D02*
X0046400Y0198417D01*
X0045958Y0196818D02*
X0047642Y0196818D01*
X0048875Y0195220D02*
X0044725Y0195220D01*
X0044200Y0193621D02*
X0049400Y0193621D01*
X0049400Y0192023D02*
X0044200Y0192023D01*
X0044200Y0190424D02*
X0049400Y0190424D01*
X0049400Y0188826D02*
X0044200Y0188826D01*
X0044200Y0187227D02*
X0049400Y0187227D01*
X0049400Y0185629D02*
X0044200Y0185629D01*
X0044200Y0184030D02*
X0048136Y0184030D01*
X0046538Y0182432D02*
X0044200Y0182432D01*
X0044200Y0180833D02*
X0044939Y0180833D01*
X0044400Y0179235D02*
X0044200Y0179235D01*
X0044200Y0177636D02*
X0044400Y0177636D01*
X0044400Y0176038D02*
X0044200Y0176038D01*
X0044200Y0174439D02*
X0044400Y0174439D01*
X0044400Y0172841D02*
X0044200Y0172841D01*
X0044200Y0171242D02*
X0044400Y0171242D01*
X0044400Y0169644D02*
X0044200Y0169644D01*
X0044200Y0168045D02*
X0044400Y0168045D01*
X0044400Y0166447D02*
X0044200Y0166447D01*
X0044200Y0164848D02*
X0044400Y0164848D01*
X0044400Y0163250D02*
X0044200Y0163250D01*
X0044200Y0161651D02*
X0044400Y0161651D01*
X0044400Y0160053D02*
X0044200Y0160053D01*
X0044200Y0158454D02*
X0044400Y0158454D01*
X0044400Y0156856D02*
X0044200Y0156856D01*
X0036800Y0151600D02*
X0036800Y0179300D01*
X0031800Y0184300D01*
X0031800Y0201800D01*
X0021800Y0201800D02*
X0021800Y0186800D01*
X0031800Y0176800D01*
X0031800Y0151600D01*
X0026800Y0151600D02*
X0026800Y0174300D01*
X0011800Y0189300D01*
X0011800Y0201800D01*
X0006600Y0211205D02*
X0272591Y0211205D01*
X0272591Y0212803D02*
X0006600Y0212803D01*
D21*
X0071800Y0134300D02*
X0066800Y0129300D01*
X0066800Y0112000D01*
X0076088Y0112000D01*
X0076800Y0111288D01*
X0071800Y0134300D02*
X0136800Y0134300D01*
X0136800Y0107000D01*
X0137000Y0106800D02*
X0146800Y0106800D01*
X0146800Y0108788D01*
X0136800Y0134300D02*
X0211800Y0134300D01*
X0216800Y0129300D01*
X0216800Y0109500D01*
X0217512Y0108788D01*
X0229300Y0108788D01*
X0249300Y0108788D01*
X0249300Y0159300D01*
X0249300Y0108788D02*
X0264300Y0108788D01*
X0264300Y0014300D01*
X0186800Y0014300D01*
X0186800Y0051900D01*
X0169200Y0051900D01*
X0193688Y0051900D01*
X0196288Y0049300D01*
X0169200Y0060900D02*
X0166800Y0063300D01*
X0166800Y0069300D01*
X0169300Y0071800D01*
X0179300Y0071800D01*
X0191800Y0084300D01*
X0191800Y0086800D01*
X0229300Y0106800D02*
X0229300Y0108788D01*
M02*
